SplineFontDB: 3.0
FontName: Oswald-Medium
FullName: Oswald Medium
FamilyName: Oswald
Weight: Medium
Copyright: Copyright (c) 2010-13 by Vernon Adams
Version: 3
ItalicAngle: 0
UnderlinePosition: -77
UnderlineWidth: 40
Ascent: 1658
Descent: 390
UFOAscent: 1658
UFODescent: -390
LayerCount: 2
Layer: 0 0 "Back"  1
Layer: 1 0 "Fore"  0
FSType: 0
OS2Version: 0
OS2_WeightWidthSlopeOnly: 0
OS2_UseTypoMetrics: 1
CreationTime: 1372384722
ModificationTime: 1372775320
PfmFamily: 33
TTFWeight: 500
TTFWidth: 5
LineGap: 0
VLineGap: 0
OS2TypoAscent: 2233
OS2TypoAOffset: 0
OS2TypoDescent: -548
OS2TypoDOffset: 0
OS2TypoLinegap: 0
OS2WinAscent: 2233
OS2WinAOffset: 0
OS2WinDescent: 548
OS2WinDOffset: 0
HheadAscent: 2233
HheadAOffset: 0
HheadDescent: -548
HheadDOffset: 0
OS2Vendor: 'newt'
Lookup: 258 0 0 "'kern' Horizontal Kerning in Cyrillic lookup 0"  {"'kern' Horizontal Kerning lookup 2 kerning class 1" [307,0,0] "'kern' Horizontal Kerning lookup 6 per glyph data 0" [307,30,0] } ['kern' ('DFLT' <'dflt' > 'cyrl' <'dflt' > 'latn' <'dflt' > ) ]
Lookup: 260 0 0 "markMarkPositioninglookup2"  {"markMarkPositioninglookup2 subtable"  } ['mark' ('latn' <'dflt' > 'grek' <'dflt' > 'cyrl' <'dflt' > 'DFLT' <'dflt' > ) ]
MarkAttachClasses: 1
DEI: 91125
KernClass2: 44 59 "'kern' Horizontal Kerning lookup 2 kerning class 1" 
 89 A Aacute Abreve Acircumflex Adieresis Agrave Amacron Aogonek Aring Atilde uni0200 uni0202
 9 B uni1E02
 16 D Dcaron uni1E0A
 94 E Eacute Ebreve Ecaron Ecircumflex Edieresis Edotaccent Egrave Emacron Eogonek uni0204 uni0206
 9 F uni1E1E
 52 G Gbreve Gcircumflex Gcommaaccent Gdotaccent uni01F4
 14 K Kcommaaccent
 28 L Lacute Lcaron Lcommaaccent
 9 P uni1E56
 44 R Racute Rcaron Rcommaaccent uni0210 uni0212
 37 T Tcaron Tcommaaccent uni021A uni1E6A
 1 V
 37 W Wacute Wcircumflex Wdieresis Wgrave
 37 Y Yacute Ycircumflex Ydieresis Ygrave
 89 a aacute abreve acircumflex adieresis agrave amacron aogonek aring atilde uni0201 uni0203
 9 afii10017
 9 afii10018
 19 afii10020 afii10052

StartChar: A
Encoding: 256 65 0
Width: 1065
VWidth: 0
Flags: W
HStem: 0 21G<38 326.532 741.519 1026> 385 197<423 645> 1638 20G<370.935 694.053>
AnchorPoint: "ogonek" 881 0 basechar 0
LayerCount: 2
Fore
SplineSet
38 0 m 1
 375 1658 l 1
 690 1658 l 1
 1026 0 l 1
 745 0 l 1
 678 385 l 1
 391 385 l 1
 323 0 l 1
 38 0 l 1
423 582 m 1
 645 582 l 1
 534 1263 l 1
 423 582 l 1
EndSplineSet
EndChar

StartChar: AE
Encoding: 257 198 1
Width: 1366
VWidth: 0
Flags: W
HStem: 0 209<930 1316> 384 202<447 659> 751 213<930 1205> 1438 210<930 1316>
VStem: 659 271<209 384 586 751 964 1150>
LayerCount: 2
Fore
SplineSet
-79 0 m 1
 635 1648 l 1
 1316 1648 l 1
 1316 1438 l 1
 930 1438 l 1
 930 964 l 1
 1205 964 l 1
 1205 751 l 1
 930 751 l 1
 930 209 l 1
 1316 209 l 1
 1316 0 l 1
 659 0 l 1
 659 384 l 1
 376 384 l 1
 215 0 l 1
 -79 0 l 1
447 586 m 1
 659 586 l 1
 659 1150 l 1
 447 586 l 1
EndSplineSet
EndChar

StartChar: B
Encoding: 267 66 11
Width: 1137
VWidth: 0
Flags: W
HStem: 0 213<426 694.658> 769 213<426 686.828> 1446 212<426 683.538>
VStem: 124 302<213 769 982 1446> 753 263<1046.74 1383.47> 776 289<295.849 676.549>
LayerCount: 2
Fore
SplineSet
124 0 m 1xf4
 124 1658 l 1
 530 1658 l 2
 822 1658 1019 1561 1016 1235 c 0xf8
 1015 1025 928 915 772 892 c 1
 967 855 1063 724 1065 481 c 0
 1067 166 904 0 600 0 c 2
 124 0 l 1xf4
426 213 m 1
 537 213 l 2
 723 213 776 298 776 484 c 0xf4
 776 681 707 769 521 769 c 2
 426 769 l 1
 426 213 l 1
426 982 m 1
 520 982 l 2
 703 982 753 1057 753 1231 c 0xf8
 753 1421 660 1446 468 1446 c 2
 426 1446 l 1
 426 982 l 1
EndSplineSet
EndChar

StartChar: C
Encoding: 268 67 12
Width: 1102
VWidth: 0
Flags: W
HStem: -20 224<454.901 679.33> 1454 223<454.905 687.263>
VStem: 97 306<263.801 1398.22> 726 291<247.918 622 1056 1416.58>
AnchorPoint: "cedilla" 480 0 basechar 0
LayerCount: 2
Fore
SplineSet
569 -20 m 0
 203 -20 97 212 97 537 c 2
 97 1115 l 2
 97 1460 203 1677 569 1677 c 0
 907 1677 1017 1492 1017 1198 c 2
 1017 1056 l 1
 726 1056 l 1
 726 1197 l 2
 726 1338 729 1454 570 1454 c 0
 414 1454 403 1334 403 1176 c 2
 403 474 l 2
 403 283 442 204 570 204 c 0
 723 204 726 323 726 474 c 2
 726 622 l 1
 1017 622 l 1
 1017 486 l 2
 1017 189 919 -20 569 -20 c 0
EndSplineSet
EndChar

StartChar: D
Encoding: 274 68 18
Width: 1133
VWidth: 0
Flags: W
HStem: 0 212<426 669.845> 1442 216<426 663.164>
VStem: 124 302<212 1442> 728 307<277.899 1384.91>
LayerCount: 2
Fore
SplineSet
426 212 m 1
 512 212 l 2
 725 212 728 325 728 546 c 2
 728 1152 l 2
 728 1361 712 1442 509 1442 c 2
 426 1442 l 1
 426 212 l 1
124 0 m 1
 124 1658 l 1
 510 1658 l 2
 911 1658 1035 1499 1035 1141 c 2
 1035 543 l 2
 1035 175 908 0 522 0 c 2
 124 0 l 1
EndSplineSet
EndChar

StartChar: Dcroat
Encoding: 276 272 20
Width: 1139
VWidth: 0
Flags: W
HStem: 0 212<429 676.845> 778 153<32 131 429 536> 1442 216<429 685.264>
VStem: 131 298<212 778 931 1442> 738 304<277.899 1384.91>
LayerCount: 2
Fore
SplineSet
429 212 m 1
 522 212 l 2
 735 212 738 325 738 546 c 2
 738 1152 l 2
 738 1361 722 1442 519 1442 c 2
 429 1442 l 1
 429 931 l 1
 536 931 l 1
 536 778 l 1
 429 778 l 1
 429 212 l 1
131 0 m 1
 131 778 l 1
 32 778 l 1
 32 931 l 1
 131 931 l 1
 131 1658 l 1
 517 1658 l 2
 918 1658 1042 1499 1042 1141 c 2
 1042 543 l 2
 1042 175 915 0 529 0 c 2
 131 0 l 1
EndSplineSet
EndChar

StartChar: E
Encoding: 277 69 21
Width: 873
VWidth: 0
Flags: W
HStem: 0 209<426 823> 756 213<426 736> 1445 213<426 818>
VStem: 124 302<209 756 969 1445>
AnchorPoint: "ogonek" 551 0 basechar 0
LayerCount: 2
Fore
SplineSet
124 0 m 1
 124 1658 l 1
 818 1658 l 1
 818 1445 l 1
 426 1445 l 1
 426 969 l 1
 736 969 l 1
 736 756 l 1
 426 756 l 1
 426 209 l 1
 823 209 l 1
 823 0 l 1
 124 0 l 1
EndSplineSet
EndChar

StartChar: Eng
Encoding: 286 330 30
Width: 1119
VWidth: 0
Flags: W
HStem: -407 192<523 710.324> 0 21G<127 375> 1638 20G<127 343.839 750 991>
VStem: 127 248<0 987> 750 241<-174.136 124 719 1658>
LayerCount: 2
Fore
SplineSet
523 -407 m 1
 523 -215 l 1
 723 -216 755 -161 755 2 c 2
 755 124 l 1
 375 987 l 1
 375 0 l 1
 127 0 l 1
 127 1658 l 1
 335 1658 l 1
 750 719 l 1
 750 1658 l 1
 991 1658 l 1
 991 0 l 2
 991 -266 923 -407 635 -407 c 2
 523 -407 l 1
EndSplineSet
EndChar

StartChar: Eth
Encoding: 288 208 32
Width: 1091
VWidth: 0
Flags: W
HStem: 0 212<419 662.845> 775 159<24 117 419 518> 1442 216<419 656.164>
VStem: 117 302<212 775 934 1442> 721 307<277.899 1384.91>
LayerCount: 2
Fore
SplineSet
419 212 m 1
 505 212 l 2
 718 212 721 325 721 546 c 2
 721 1152 l 2
 721 1361 704 1442 501 1442 c 2
 419 1442 l 1
 419 934 l 1
 518 934 l 1
 518 775 l 1
 419 775 l 1
 419 212 l 1
117 0 m 1
 117 775 l 1
 24 775 l 1
 24 934 l 1
 117 934 l 1
 117 1658 l 1
 503 1658 l 2
 904 1658 1028 1499 1028 1141 c 2
 1028 543 l 2
 1028 175 901 0 515 0 c 2
 117 0 l 1
EndSplineSet
EndChar

StartChar: Euro
Encoding: 289 8364 33
Width: 1077
VWidth: 0
Flags: W
HStem: -20 224<463.014 687.625> 628 124<-5 106 411 610> 911 125<-5 106 411 610> 1454 223<463.053 695.564>
VStem: 106 305<263.801 628 752 911 1036 1398.22> 735 291<247.918 555 1104 1407.78>
CounterMasks: 1 f0
LayerCount: 2
Fore
SplineSet
577 -20 m 0
 211 -20 106 212 106 537 c 2
 106 628 l 1
 -5 628 l 1
 -5 752 l 1
 106 752 l 1
 106 911 l 1
 -5 911 l 1
 -5 1036 l 1
 106 1036 l 1
 106 1115 l 2
 106 1460 211 1677 577 1677 c 0
 915 1677 1026 1492 1026 1198 c 2
 1026 1104 l 1
 735 1104 l 1
 735 1197 l 2
 735 1338 737 1454 579 1454 c 0
 422 1454 411 1334 411 1176 c 2
 411 1036 l 1
 610 1036 l 1
 610 911 l 1
 411 911 l 1
 411 752 l 1
 610 752 l 1
 610 628 l 1
 411 628 l 1
 411 474 l 2
 411 283 450 204 579 204 c 0
 731 204 735 323 735 474 c 2
 735 555 l 1
 1026 555 l 1
 1026 486 l 2
 1026 189 927 -20 577 -20 c 0
EndSplineSet
EndChar

StartChar: F
Encoding: 290 70 34
Width: 840
VWidth: 0
Flags: W
HStem: 0 21G<124 426> 754 213<426 729> 1449 209<426 805>
VStem: 124 302<0 754 967 1449>
LayerCount: 2
Fore
SplineSet
124 0 m 1
 124 1658 l 1
 805 1658 l 1
 805 1449 l 1
 426 1449 l 1
 426 967 l 1
 729 967 l 1
 729 754 l 1
 426 754 l 1
 426 0 l 1
 124 0 l 1
EndSplineSet
EndChar

StartChar: G
Encoding: 291 71 35
Width: 1142
VWidth: 0
Flags: W
HStem: -22 226<463.337 699.839> 0 21G<839.381 1038> 647 195<587 766> 1454 223<456.095 690.963>
VStem: 97 306<273.426 1403> 740 289<1110 1411.03> 766 272<275.892 647> 842 196<0 109.475>
LayerCount: 2
Fore
SplineSet
539 -22 m 0xb9
 214 -22 97 195 97 553 c 2
 97 1093 l 2
 97 1459 203 1677 569 1677 c 0
 907 1677 1029 1506 1029 1191 c 2
 1029 1110 l 1
 740 1110 l 1
 740 1196 l 2xbc
 740 1359 726 1454 573 1454 c 0
 410 1454 403 1321 403 1162 c 2
 403 493 l 2
 403 309 434 204 581 204 c 0
 728 204 766 319 766 511 c 2
 766 647 l 1xba
 587 647 l 1
 587 842 l 1
 1038 842 l 1
 1038 0 l 1
 842 0 l 1x79
 820 168 l 1
 777 59 694 -22 539 -22 c 0xb9
EndSplineSet
EndChar

StartChar: H
Encoding: 296 72 40
Width: 1195
VWidth: 0
Flags: W
HStem: 0 21G<127 429 766 1068> 750 215<429 766> 1638 20G<127 429 766 1068>
VStem: 127 302<0 750 965 1658> 766 302<0 750 965 1658>
LayerCount: 2
Fore
SplineSet
127 0 m 1
 127 1658 l 1
 429 1658 l 1
 429 965 l 1
 766 965 l 1
 766 1658 l 1
 1068 1658 l 1
 1068 0 l 1
 766 0 l 1
 766 750 l 1
 429 750 l 1
 429 0 l 1
 127 0 l 1
EndSplineSet
EndChar

StartChar: Hbar
Encoding: 297 294 41
Width: 1134
VWidth: 0
Flags: W
HStem: 0 21G<105 407 737 1039> 750 215<407 737> 1259 123<3 105 407 737 1039 1131> 1638 20G<105 407 737 1039>
VStem: 105 302<0 750 965 1259 1382 1658> 737 302<0 750 965 1259 1382 1658>
LayerCount: 2
Fore
SplineSet
105 0 m 1
 105 1259 l 1
 3 1259 l 1
 3 1382 l 1
 105 1382 l 1
 105 1658 l 1
 407 1658 l 1
 407 1382 l 1
 737 1382 l 1
 737 1658 l 1
 1039 1658 l 1
 1039 1382 l 1
 1131 1382 l 1
 1131 1259 l 1
 1039 1259 l 1
 1039 0 l 1
 737 0 l 1
 737 750 l 1
 407 750 l 1
 407 0 l 1
 105 0 l 1
407 965 m 1
 737 965 l 1
 737 1259 l 1
 407 1259 l 1
 407 965 l 1
EndSplineSet
EndChar

StartChar: I
Encoding: 299 73 43
Width: 562
VWidth: 0
Flags: W
HStem: 0 21G<133 431> 1638 20G<133 431>
VStem: 133 298<0 1658>
AnchorPoint: "ogonek" 280 0 basechar 0
LayerCount: 2
UndoRedoHistory
Layer: 1
Undoes
EndUndoes
Redoes
EndRedoes
EndUndoRedoHistory
Fore
SplineSet
133 0 m 1
 133 1658 l 1
 431 1658 l 1
 431 0 l 1
 133 0 l 1
EndSplineSet
EndChar

StartChar: J
Encoding: 309 74 53
Width: 667
VWidth: 0
Flags: W
HStem: -35 212<19 190.943> 1638 20G<240 542>
VStem: 240 301<226.346 1658>
AnchorPoint: "circumflexcomb" 338 1658 basechar 0
LayerCount: 2
Fore
SplineSet
19 -35 m 1
 19 177 l 1
 194 176 240 213 240 386 c 2
 240 1658 l 1
 542 1658 l 1
 541 379 l 1
 539 99 458 -35 164 -35 c 2
 19 -35 l 1
EndSplineSet
EndChar

StartChar: K
Encoding: 311 75 55
Width: 1085
VWidth: 0
Flags: W
HStem: 0 21G<124 426 764.667 1073> 1638 20G<124 426 742.944 1040>
VStem: 124 302<0 672 938 1658>
LayerCount: 2
Fore
SplineSet
124 0 m 1
 124 1658 l 1
 426 1658 l 1
 426 938 l 1
 752 1658 l 1
 1040 1658 l 1
 723 916 l 1
 1073 0 l 1
 772 0 l 1
 486 780 l 1
 426 672 l 1
 426 0 l 1
 124 0 l 1
EndSplineSet
EndChar

StartChar: L
Encoding: 313 76 57
Width: 859
VWidth: 0
Flags: W
HStem: 0 209<426 823> 1638 20G<124 426>
VStem: 124 302<209 1658>
LayerCount: 2
Fore
SplineSet
124 0 m 1
 124 1658 l 1
 426 1658 l 1
 426 209 l 1
 823 209 l 1
 823 0 l 1
 124 0 l 1
EndSplineSet
EndChar

StartChar: Lslash
Encoding: 318 321 62
Width: 865
VWidth: 0
Flags: W
HStem: 0 209<433 830> 1638 20G<131 433>
VStem: 131 302<209 749 1100 1658>
LayerCount: 2
Fore
SplineSet
131 0 m 1
 131 749 l 1
 -2 679 l 1
 -2 875 l 1
 131 946 l 1
 131 1658 l 1
 433 1658 l 1
 433 1100 l 1
 639 1208 l 1
 639 1012 l 1
 433 904 l 1
 433 209 l 1
 830 209 l 1
 830 0 l 1
 131 0 l 1
EndSplineSet
EndChar

StartChar: M
Encoding: 319 77 63
Width: 1397
VWidth: 0
Flags: W
HStem: 0 21G<121 352.314 607.777 793.186 1047.65 1276> 1638 20G<147.674 462.12 940.76 1248.34>
VStem: 121 231<0 880.337> 148 222<777.663 1146> 1028 220<809.104 1142> 1048 228<0 818.586>
LayerCount: 2
Fore
SplineSet
121 0 m 1xe0
 148 1658 l 1
 458 1658 l 1
 698 493 l 1
 945 1658 l 1
 1248 1658 l 1xd8
 1276 0 l 1
 1048 0 l 1xc4
 1028 1142 l 1
 789 0 l 1
 612 0 l 1
 370 1146 l 1xd8
 352 0 l 1
 121 0 l 1xe0
EndSplineSet
EndChar

StartChar: N
Encoding: 320 78 64
Width: 1112
VWidth: 0
Flags: W
HStem: 0 21G<124 380 781.692 988> 1638 20G<124 340.647 738 988>
VStem: 124 256<0 987> 738 250<719 1658>
LayerCount: 2
Fore
SplineSet
124 0 m 1
 124 1658 l 1
 332 1658 l 1
 738 719 l 1
 738 1658 l 1
 988 1658 l 1
 988 0 l 1
 790 0 l 1
 380 987 l 1
 380 0 l 1
 124 0 l 1
EndSplineSet
EndChar

StartChar: O
Encoding: 325 79 69
Width: 1150
VWidth: 0
Flags: W
HStem: -20 224<453.757 695.736> 1454 223<452.185 697.31>
VStem: 97 307<260.502 1402.45> 746 307<261.382 1401.13>
AnchorPoint: "ogonek" 581 0 basechar 0
LayerCount: 2
Fore
SplineSet
575 204 m 0
 724 204 746 313 746 455 c 2
 746 1208 l 2
 746 1351 724 1454 575 1454 c 0
 425 1454 404 1351 404 1208 c 2
 404 455 l 2
 404 313 425 204 575 204 c 0
575 -20 m 0
 220 -20 97 186 97 526 c 2
 97 1138 l 2
 97 1479 220 1677 575 1677 c 0
 928 1677 1053 1476 1053 1138 c 2
 1053 526 l 2
 1053 188 928 -20 575 -20 c 0
EndSplineSet
EndChar

StartChar: OE
Encoding: 326 338 70
Width: 1443
VWidth: 0
Flags: W
HStem: 0 215<455.957 706 1008 1389> 750 212<1008 1303> 1442 213<462.395 706 1008 1385>
VStem: 97 303<281.338 1375.36> 706 302<215 750 962 1441>
LayerCount: 2
Fore
SplineSet
600 0 m 2
 224 0 97 188 97 537 c 2
 97 1089 l 2
 97 1441 224 1655 588 1655 c 2
 1385 1655 l 1
 1385 1442 l 1
 1008 1442 l 1
 1008 962 l 1
 1303 962 l 1
 1303 750 l 1
 1008 750 l 1
 1008 209 l 1
 1389 209 l 1
 1389 0 l 1
 600 0 l 2
604 215 m 1
 706 215 l 1
 706 1441 l 1
 600 1441 l 2
 401 1441 400 1298 400 1089 c 2
 400 523 l 2
 400 325 414 214 604 215 c 1
EndSplineSet
EndChar

StartChar: Oslash
Encoding: 334 216 78
Width: 1138
VWidth: 0
Flags: W
HStem: -20 224<453.565 695.736> 1454 223<452.185 696.331>
VStem: 97 307<476.202 1402.45> 746 307<261.382 1258.94>
LayerCount: 2
Fore
SplineSet
298 -161 m 1
 216 -132 l 1
 275.232457233 57.759610505 l 1
 146.995349421 146.934476504 97 309.233999137 97 526 c 2
 97 1138 l 2
 97 1479 220 1677 575 1677 c 0
 650.926679525 1677 716.305258741 1667.70101683 772.160672666 1649.73990333 c 1
 820 1803 l 1
 904 1777 l 1
 853.035276298 1614.0138044 l 1
 996.718088157 1529.91822519 1053 1364.80160029 1053 1138 c 2
 1053 526 l 2
 1053 188 928 -20 575 -20 c 0
 487.645525336 -20 414.338633172 -7.52671553867 353.455282812 16.3470925577 c 1
 298 -161 l 1
575 204 m 0
 724 204 746 313 746 455 c 2
 746 1208 l 2
 746 1228.3598301 745.554036921 1247.90881825 744.359068197 1266.46513889 c 1
 434.185170837 274.522873072 l 1
 458.354768907 230.553695538 500.964417828 204 575 204 c 0
404 470.284768212 m 1
 697.570311826 1410.77906189 l 1
 671.86498899 1438.34916581 633.081309747 1454 575 1454 c 0
 425 1454 404 1351 404 1208 c 2
 404 470.284768212 l 1
EndSplineSet
EndChar

StartChar: P
Encoding: 336 80 80
Width: 1062
VWidth: 0
Flags: W
HStem: 0 21G<124 426> 741 212<426 689.317> 1445 213<426 692.148>
VStem: 124 302<0 741 953 1445> 741 284<1004.38 1397.88>
LayerCount: 2
Fore
SplineSet
124 0 m 1
 124 1658 l 1
 601 1658 l 2
 897 1658 1025 1489 1025 1187 c 0
 1025 867 850 741 582 741 c 2
 426 741 l 1
 426 0 l 1
 124 0 l 1
426 953 m 1
 523 953 l 2
 696 953 741 1012 741 1189 c 0
 741 1373 722 1445 524 1445 c 2
 426 1445 l 1
 426 953 l 1
EndSplineSet
EndChar

StartChar: Pi
Encoding: 337 928 81
Width: 1188
VWidth: 0
Flags: W
HStem: 0 21G<117 393 795 1071> 1442 216<393 795>
VStem: 117 276<0 1442> 795 276<0 1442>
LayerCount: 2
Fore
SplineSet
117 0 m 1
 117 1658 l 1
 1071 1658 l 1
 1071 0 l 1
 795 0 l 1
 795 1442 l 1
 393 1442 l 1
 393 0 l 1
 117 0 l 1
EndSplineSet
EndChar

StartChar: Q
Encoding: 338 81 82
Width: 1150
VWidth: 0
Flags: W
HStem: -20 224<453.757 624.795> 1454 223<452.185 697.31>
VStem: 97 307<260.502 1402.45> 746 307<257.595 1401.13>
LayerCount: 2
Fore
SplineSet
928 -332 m 1
 823 -283 688 -139 609 -19 c 1
 598 -20 586 -20 575 -20 c 0
 220 -20 97 186 97 526 c 2
 97 1138 l 2
 97 1479 220 1677 575 1677 c 0
 928 1677 1053 1476 1053 1138 c 2
 1053 526 l 2
 1053 284 989 109 823 29 c 1
 873 -31 931 -95 984 -127 c 1
 928 -332 l 1
575 204 m 0
 724 204 746 313 746 455 c 2
 746 1208 l 2
 746 1351 724 1454 575 1454 c 0
 425 1454 404 1351 404 1208 c 2
 404 455 l 2
 404 313 425 204 575 204 c 0
EndSplineSet
EndChar

StartChar: R
Encoding: 339 82 83
Width: 1136
VWidth: 0
Flags: W
HStem: 0 21G<124 426 752.769 1061> 757 193<426 560> 1450 208<426 677.404>
VStem: 124 302<0 757 950 1450> 746 285<1024.02 1384.46>
LayerCount: 2
Fore
SplineSet
124 0 m 1
 124 1658 l 1
 504 1658 l 2
 840 1658 1031 1555 1031 1216 c 0
 1031 1017 979 879 831 817 c 1
 1061 0 l 1
 758 0 l 1
 560 757 l 1
 426 757 l 1
 426 0 l 1
 124 0 l 1
426 950 m 1
 499 950 l 2
 676 950 746 1016 746 1202 c 0
 746 1373 697 1450 517 1450 c 2
 426 1450 l 1
 426 950 l 1
EndSplineSet
EndChar

StartChar: S
Encoding: 343 83 87
Width: 1010
VWidth: 0
Flags: W
HStem: -20 232<431.344 634.018>
VStem: 82 263<318.619 486> 84 282<1146.58 1413.31> 669 288<246.945 531.638> 670 258<1226.17 1382.4>
AnchorPoint: "cedilla" 470 0 basechar 0
LayerCount: 2
Fore
SplineSet
542 -20 m 0xb0
 239 -20 96 161 82 486 c 1
 345 541 l 1
 351 352 398 212 533 212 c 0
 629 212 669 277 669 367 c 0xd0
 669 512 595 587 492 678 c 1
 274 867 l 1
 158 969 84 1075 84 1268 c 0
 84 1528 248 1675 509 1677 c 0
 820 1680 909 1474 928 1229 c 1
 670 1178 l 1xa8
 663 1327 640 1459 504 1450 c 1
 413 1445 366 1386 366 1297 c 0
 366 1181 419 1123 496 1055 c 2
 712 867 l 1
 842 750 957 607 957 387 c 0
 957 146 790 -20 542 -20 c 0xb0
EndSplineSet
EndChar

StartChar: T
Encoding: 349 84 93
Width: 865
VWidth: 0
Flags: W
HStem: 0 21G<286 588> 1435 223<8 286 588 857>
VStem: 286 302<0 1435>
AnchorPoint: "cedilla" 380 0 basechar 0
LayerCount: 2
Fore
SplineSet
286 0 m 1
 286 1435 l 1
 8 1435 l 1
 8 1658 l 1
 857 1658 l 1
 857 1435 l 1
 588 1435 l 1
 588 0 l 1
 286 0 l 1
EndSplineSet
EndChar

StartChar: Tbar
Encoding: 350 358 94
Width: 865
VWidth: 0
Flags: W
HStem: 0 21G<286 588> 776 157<88 286 588 781> 1435 223<8 286 588 857>
VStem: 286 302<0 776 933 1435>
LayerCount: 2
Fore
SplineSet
88 776 m 1
 88 933 l 1
 286 933 l 1
 286 1435 l 1
 8 1435 l 1
 8 1658 l 1
 857 1658 l 1
 857 1435 l 1
 588 1435 l 1
 588 933 l 1
 781 933 l 1
 781 776 l 1
 588 776 l 1
 588 0 l 1
 286 0 l 1
 286 776 l 1
 88 776 l 1
EndSplineSet
EndChar

StartChar: Thorn
Encoding: 353 222 97
Width: 1082
VWidth: 0
Flags: W
HStem: 0 21G<117 419> 474 228<419 693.592> 1206 233<419 707.808> 1638 20G<117 419>
VStem: 117 302<0 474 702 1206 1439 1658> 768 284<770.73 1140.84>
LayerCount: 2
Fore
SplineSet
117 0 m 1
 117 1658 l 1
 419 1658 l 1
 419 1439 l 1
 616 1439 l 2
 913 1439 1052 1278 1052 964 c 0
 1052 608 898 476 583 475 c 2
 419 474 l 1
 419 0 l 1
 117 0 l 1
419 702 m 1
 536 702 l 2
 699 702 768 760 768 958 c 0
 768 1137 714 1206 558 1206 c 2
 419 1206 l 1
 419 702 l 1
EndSplineSet
EndChar

StartChar: U
Encoding: 354 85 98
Width: 1154
VWidth: 0
Flags: W
HStem: -20 226<464.371 690.991> 1638 20G<111 404 750 1043>
VStem: 111 293<276.561 1658> 750 293<276.561 1658>
AnchorPoint: "ogonek" 621 0 basechar 0
LayerCount: 2
Fore
SplineSet
578 -20 m 0
 203 -20 111 198 111 557 c 2
 111 1658 l 1
 404 1658 l 1
 404 526 l 2
 404 356 420 206 578 206 c 0
 735 206 750 356 750 526 c 2
 750 1658 l 1
 1043 1658 l 1
 1043 557 l 2
 1043 198 952 -20 578 -20 c 0
EndSplineSet
EndChar

StartChar: V
Encoding: 365 86 109
Width: 1059
VWidth: 0
Flags: W
HStem: 0 21G<378.947 679.077> 1638 20G<47 318.778 735.43 1013>
LayerCount: 2
Fore
SplineSet
383 0 m 1
 47 1658 l 1
 315 1658 l 1
 533 504 l 1
 739 1658 l 1
 1013 1658 l 1
 675 0 l 1
 383 0 l 1
EndSplineSet
EndChar

StartChar: W
Encoding: 366 87 110
Width: 1470
VWidth: 0
Flags: W
HStem: 0 21G<301.141 555.36 921.621 1168.86> 1638 20G<67 323.544 630.688 840.383 1151.46 1403>
LayerCount: 2
Fore
SplineSet
304 0 m 1
 67 1658 l 1
 321 1658 l 1
 457 589 l 1
 634 1658 l 1
 837 1658 l 1
 1018 588 l 1
 1154 1658 l 1
 1403 1658 l 1
 1166 0 l 1
 925 0 l 1
 738 1107 l 1
 552 0 l 1
 304 0 l 1
EndSplineSet
EndChar

StartChar: X
Encoding: 371 88 115
Width: 1023
VWidth: 0
Flags: W
HStem: 0 21G<21 291.338 711.655 1002> 1638 20G<30 321.366 705.802 978>
LayerCount: 2
Fore
SplineSet
21 0 m 1
 354 880 l 1
 30 1658 l 1
 313 1658 l 1
 528 1144 l 1
 713 1658 l 1
 978 1658 l 1
 658 827 l 1
 1002 0 l 1
 720 0 l 1
 488 556 l 1
 284 0 l 1
 21 0 l 1
EndSplineSet
EndChar

StartChar: Y
Encoding: 372 89 116
AltUni2: 0004ae.ffffffff.0
Width: 1001
VWidth: 0
Flags: W
HStem: 0 21G<357 645> 1638 20G<19 307.212 696.061 981>
VStem: 357 288<0 631>
LayerCount: 2
Fore
SplineSet
357 0 m 1
 357 631 l 1
 19 1658 l 1
 301 1658 l 1
 506 998 l 1
 702 1658 l 1
 981 1658 l 1
 645 631 l 1
 645 0 l 1
 357 0 l 1
EndSplineSet
EndChar

StartChar: Z
Encoding: 377 90 121
Width: 870
VWidth: 0
Flags: W
HStem: 0 209<360 822> 1449 209<94 512>
LayerCount: 2
Fore
SplineSet
72 0 m 1
 72 198 l 1
 512 1449 l 1
 94 1449 l 1
 94 1658 l 1
 821 1658 l 1
 821 1509 l 1
 360 209 l 1
 822 209 l 1
 822 0 l 1
 72 0 l 1
EndSplineSet
EndChar

StartChar: a
Encoding: 381 97 125
Width: 927
VWidth: 0
Flags: W
HStem: -19 217<257 471.343> 0 21G<594.667 851> 993 209<387.371 539.687>
VStem: 80 268<216.554 457.431> 556 273<226.938 597 724.415 980.936>
AnchorPoint: "ogonek" 722 0 basechar 0
LayerCount: 2
Fore
SplineSet
335 -19 m 1xb8
 179 -17 80 126 80 264 c 0
 80 577 347 657 556 740 c 1
 556 839 l 2
 556 935 543 993 462 993 c 0
 388 993 368 935 367 863 c 1
 363 789 l 1
 95 799 l 1
 95 810 96 832 96 842 c 0
 113 1095 249 1202 485 1202 c 0
 725 1202 829 1062 829 838 c 2
 829 297 l 2
 829 163 841 73 851 0 c 1
 598 0 l 1x78
 598 0 575 116 569 174 c 1
 540 78 467 -19 335 -19 c 1xb8
442 198 m 0xb8
 490 198 538 247 556 271 c 1
 556 597 l 1
 455 541 348 455 348 336 c 0
 348 251 382 198 442 198 c 0xb8
EndSplineSet
EndChar

StartChar: acute
Encoding: 385 180 129
Width: 610
VWidth: 0
Flags: W
HStem: 1249 409<237 273>
VStem: 115 405
LayerCount: 2
Fore
SplineSet
115 1249 m 1
 237 1658 l 1
 520 1658 l 1
 273 1249 l 1
 115 1249 l 1
EndSplineSet
EndChar

StartChar: acutecomb
Encoding: 386 769 130
Width: 208
VWidth: 0
Flags: W
HStem: 1249 409<116 153>
VStem: -6 405
LayerCount: 2
Fore
SplineSet
-6 1249 m 1
 116 1658 l 1
 399 1658 l 1
 153 1249 l 1
 -6 1249 l 1
EndSplineSet
EndChar

StartChar: ae
Encoding: 388 230 132
Width: 1361
VWidth: 0
Flags: W
HStem: -20 211<356.787 516.402 852.093 985.312> 989 226<377.335 532.925> 1010 204<851.674 1005.93>
VStem: 77 262<202.259 437.127> 78 276<816 971.233> 552 272<225.075 540 720 972.927> 1005 268<201.864 414> 1029 244<770.64 991.197>
LayerCount: 2
Fore
SplineSet
344 -20 m 1xa6
 194 -13 77 106 77 268 c 0xb6
 77 506 224 600 396 643 c 0
 413 647 537 677 552 679 c 1
 552 834 l 2
 552 928 531 989 454 989 c 0
 379 989 354 927 354 816 c 1
 78 816 l 1
 79 1060 204 1215 443 1215 c 0xcc
 564 1215 656 1157 683 1068 c 1
 722 1149 812 1214 932 1214 c 0
 1162 1214 1273 1063 1273 867 c 0xad
 1273 683 1104 636 947 604 c 0
 936 602 836 584 825 582 c 1
 825 473 l 2
 825 354 816 191 920 191 c 0
 999 191 1005 272 1005 361 c 2
 1005 414 l 1
 1273 414 l 1
 1273 347 l 2
 1273 116 1161 -20 930 -20 c 0
 798 -20 683 65 661 196 c 1
 604 66 493 -29 344 -20 c 1xa6
432 184 m 0
 496 184 553 251 553 395 c 2
 552 540 l 1
 526 532 500 523 477 512 c 0
 390 469 339 397 339 316 c 0
 339 246 374 184 432 184 c 0
824 720 m 1
 838 722 915 737 922 745 c 1
 988 763 1029 786 1029 873 c 0xa5
 1029 953 1000 1010 930 1010 c 0
 855 1010 824 938 824 845 c 2
 824 720 l 1
EndSplineSet
EndChar

StartChar: afii10018
Encoding: 390 1041 134
Width: 1070
VWidth: 0
Flags: W
HStem: 0 206<429 644.195> 753 211<429 641.113> 1434 224<429 894>
VStem: 127 302<206 753 964 1434> 720 282<287.987 675.265>
LayerCount: 2
Fore
SplineSet
127 0 m 1
 127 1658 l 1
 894 1658 l 1
 894 1434 l 1
 429 1434 l 1
 429 964 l 1
 478 964 l 2
 823 964 1002 850 1002 485 c 0
 1002 110 804 0 472 0 c 2
 127 0 l 1
429 206 m 1
 472 206 l 2
 645 206 722 259 720 489 c 0
 719 668 663 753 468 753 c 2
 429 753 l 1
 429 206 l 1
EndSplineSet
EndChar

StartChar: afii10019
Encoding: 391 1042 135
Width: 1138
VWidth: 0
Flags: W
HStem: 0 213<429 697.658> 769 213<429 690.212> 1446 212<429 686.995>
VStem: 127 302<213 769 982 1446> 757 262<1049.1 1383.47> 779 289<295.849 676.549>
LayerCount: 2
Fore
SplineSet
127 0 m 1xf4
 127 1658 l 1
 533 1658 l 2
 826 1658 1023 1561 1019 1235 c 1xf8
 1018 1025 932 915 776 892 c 1
 970 855 1067 724 1068 481 c 0
 1070 166 907 0 603 0 c 2
 127 0 l 1xf4
429 213 m 1
 540 213 l 2
 727 213 779 298 779 484 c 0xf4
 779 681 710 769 524 769 c 2
 429 769 l 1
 429 213 l 1
429 982 m 1
 523 982 l 2
 706 982 757 1057 757 1231 c 0xf8
 757 1421 663 1446 472 1446 c 2
 429 1446 l 1
 429 982 l 1
EndSplineSet
EndChar

StartChar: afii10020
Encoding: 392 1043 136
Width: 862
VWidth: 0
Flags: W
HStem: 0 21G<127 429> 1435 223<429 822>
VStem: 127 302<0 1435>
LayerCount: 2
Fore
SplineSet
127 0 m 1
 127 1658 l 1
 822 1658 l 1
 822 1435 l 1
 429 1435 l 1
 429 0 l 1
 127 0 l 1
EndSplineSet
EndChar

StartChar: afii10021
Encoding: 393 1044 137
Width: 1356
VWidth: 0
Flags: W
HStem: 0 215<374 850> 1440 218<642 850>
VStem: 28 221<-329 -93.1728> 850 291<215 1440> 1101 215<-329 -93.1728>
LayerCount: 2
Fore
SplineSet
28 -329 m 1xe8
 28 215 l 1
 94 215 l 1
 226 294 333 476 369 1137 c 1
 401 1658 l 1
 1141 1658 l 1
 1141 215 l 1xf0
 1316 215 l 1
 1316 -329 l 1
 1101 -329 l 1
 1081 0 l 1
 269 0 l 1
 249 -329 l 1
 28 -329 l 1xe8
374 215 m 1
 850 215 l 1
 850 1440 l 1
 642 1440 l 1
 627 1087 l 2
 599 426 488 324 374 215 c 1
EndSplineSet
EndChar

StartChar: afii10024
Encoding: 396 1046 140
Width: 1503
VWidth: 0
Flags: W
HStem: 0 21G<6 295.922 628 874 1207.05 1497> 818 50<613 628 874 889> 1638 20G<32 325.468 628 874 1176.53 1471>
VStem: 628 246<0 818 868 1658>
LayerCount: 2
Fore
SplineSet
6 0 m 1
 372 840 l 1
 32 1658 l 1
 318 1658 l 1
 613 868 l 1
 628 868 l 1
 628 1658 l 1
 874 1658 l 1
 874 868 l 1
 889 868 l 1
 1184 1658 l 1
 1471 1658 l 1
 1131 840 l 1
 1497 0 l 1
 1215 0 l 1
 890 818 l 1
 874 818 l 1
 874 0 l 1
 628 0 l 1
 628 818 l 1
 612 818 l 1
 288 0 l 1
 6 0 l 1
EndSplineSet
EndChar

StartChar: afii10025
Encoding: 397 1047 141
Width: 1028
VWidth: 0
Flags: W
HStem: -23 237<415.774 623.626> 756 207<358 573.511> 1449 229<396.628 612.443>
VStem: 51 285<1156 1389.29> 81 285<262.947 506> 665 282<258.469 666.985 1047.11 1396.73>
LayerCount: 2
Fore
SplineSet
515 -23 m 0xf4
 210 -23 81 159 81 447 c 2
 81 506 l 1
 365 506 l 1
 365 492 365 457 366 443 c 0xec
 370 298 399 214 517 214 c 0
 648 214 665 318 665 474 c 0
 665 638 617 743 429 755 c 0
 417 756 372 756 358 756 c 1
 358 963 l 1
 370 963 412 963 423 964 c 0
 613 973 665 1064 665 1228 c 0
 665 1365 622 1449 503 1449 c 0
 384 1449 343 1354 337 1227 c 0
 336 1215 336 1169 336 1156 c 1
 51 1156 l 1
 51 1233 l 2
 51 1515 222 1678 498 1678 c 0
 778 1678 947 1519 947 1237 c 0
 947 1045 855 912 725 874 c 1
 863 826 947 702 947 478 c 0
 947 178 827 -23 515 -23 c 0xf4
EndSplineSet
EndChar

StartChar: afii10026
Encoding: 398 1048 142
Width: 1161
VWidth: 0
Flags: W
HStem: 0 21G<127 337.542 780 1034> 1638 20G<127 378 819.313 1034>
VStem: 127 251<622 1658> 780 254<0 1056>
LayerCount: 2
Fore
SplineSet
127 0 m 1
 127 1658 l 1
 378 1658 l 1
 378 622 l 1
 828 1658 l 1
 1034 1658 l 1
 1034 0 l 1
 780 0 l 1
 780 1056 l 1
 329 0 l 1
 127 0 l 1
EndSplineSet
EndChar

StartChar: afii10028
Encoding: 400 1050 144
Width: 1106
VWidth: 0
Flags: W
HStem: 0 21G<127 429 767.591 1081> 1638 20G<127 429 748.321 1056>
VStem: 127 302<0 772 960 1658>
LayerCount: 2
Fore
SplineSet
127 0 m 1
 127 1658 l 1
 429 1658 l 1
 429 960 l 1
 488 960 l 1
 756 1658 l 1
 1056 1658 l 1
 745 876 l 1
 1081 0 l 1
 775 0 l 1
 489 772 l 1
 429 772 l 1
 429 0 l 1
 127 0 l 1
EndSplineSet
EndChar

StartChar: afii10029
Encoding: 401 1051 145
Width: 1260
VWidth: 0
Flags: W
HStem: 0 218<4 159.498> 1432 226<590 831>
VStem: 831 302<0 1432>
LayerCount: 2
Fore
SplineSet
4 0 m 1
 4 218 l 1
 182 213 232 252 269 810 c 2
 324 1658 l 1
 1133 1658 l 1
 1133 0 l 1
 831 0 l 1
 831 1432 l 1
 590 1432 l 1
 554 779 l 1
 521 224 468 -32 4 0 c 1
EndSplineSet
EndChar

StartChar: afii10030
Encoding: 402 1052 146
Width: 1397
VWidth: 0
Flags: W
HStem: 0 21G<121 348.259 616.199 784.74 1050.7 1276> 1638 20G<147.674 449.538 953.336 1248.34>
VStem: 121 227<0 880.337> 148 214<777.663 1079> 1035 213<809.104 1076> 1051 225<0 848.896>
LayerCount: 2
Fore
SplineSet
121 0 m 1xe0
 148 1658 l 1
 445 1658 l 1
 698 543 l 1
 958 1658 l 1
 1248 1658 l 1xd8
 1276 0 l 1
 1051 0 l 1xc4
 1035 1076 l 1
 780 0 l 1
 621 0 l 1
 362 1079 l 1xd8
 348 0 l 1
 121 0 l 1xe0
EndSplineSet
EndChar

StartChar: afii10033
Encoding: 405 1055 149
Width: 1206
VWidth: 0
Flags: W
HStem: 0 21G<124 423 783 1082> 1443 215<423 783>
VStem: 124 299<0 1443> 783 299<0 1443>
LayerCount: 2
Fore
SplineSet
124 0 m 1
 124 1658 l 1
 1082 1658 l 1
 1082 0 l 1
 783 0 l 1
 783 1443 l 1
 423 1443 l 1
 423 0 l 1
 124 0 l 1
EndSplineSet
EndChar

StartChar: afii10034
Encoding: 406 1056 150
Width: 1059
VWidth: 0
Flags: W
HStem: 0 21G<124 426> 741 212<426 689.317> 1445 213<426 692.148>
VStem: 124 302<0 741 953 1445> 741 284<1004.38 1397.88>
LayerCount: 2
Fore
SplineSet
124 0 m 1
 124 1658 l 1
 601 1658 l 2
 897 1658 1025 1489 1025 1187 c 0
 1025 867 850 741 582 741 c 2
 426 741 l 1
 426 0 l 1
 124 0 l 1
426 953 m 1
 523 953 l 2
 696 953 741 1012 741 1189 c 0
 741 1373 722 1445 524 1445 c 2
 426 1445 l 1
 426 953 l 1
EndSplineSet
EndChar

StartChar: afii10037
Encoding: 409 1059 153
Width: 1015
VWidth: 0
Flags: W
HStem: -290 214<107 354.702> 1638 20G<39 324.948 703.585 994>
LayerCount: 2
Fore
SplineSet
107 -290 m 1
 107 -76 l 1
 370 -97 426 -23 381 174 c 2
 39 1658 l 1
 321 1658 l 1
 457 969 l 1
 529 480 l 1
 589 967 l 1
 707 1658 l 1
 994 1658 l 1
 680 149 l 1
 605 -206 571 -311 107 -290 c 1
EndSplineSet
EndChar

StartChar: afii10038
Encoding: 410 1060 154
Width: 1456
VWidth: 0
Flags: W
HStem: 196 184<405.5 590 861 1042.38> 1310 179<413.625 590 861 1039.37>
VStem: 96 269<423.391 1260.77> 590 271<-63 198 381 1309 1488 1786> 1091 269<423.812 1260.77>
LayerCount: 2
Fore
SplineSet
590 -63 m 1
 590 198 l 1
 537 196 l 1
 262 172 96 318 96 621 c 2
 96 1065 l 2
 96 1366 263 1507 532 1489 c 1
 590 1488 l 1
 590 1786 l 1
 861 1786 l 1
 861 1488 l 1
 919 1489 l 1
 1193 1507 1360 1367 1360 1064 c 2
 1360 621 l 2
 1360 319 1193 172 924 196 c 1
 861 198 l 1
 861 -63 l 1
 590 -63 l 1
561 380 m 0
 565 380 586 381 590 381 c 1
 590 1309 l 1
 586 1309 564 1310 560 1310 c 0
 393 1317 365 1244 365 1067 c 2
 365 619 l 2
 365 442 393 372 561 380 c 0
895 380 m 0
 1062 372 1091 440 1091 619 c 2
 1091 1066 l 2
 1091 1243 1063 1316 894 1310 c 0
 891 1310 864 1309 861 1309 c 1
 861 381 l 1
 864 381 892 380 895 380 c 0
EndSplineSet
EndChar

StartChar: afii10040
Encoding: 412 1062 156
Width: 1343
VWidth: 0
Flags: W
HStem: 0 209<429 805> 1638 20G<127 429 805 1106>
VStem: 127 302<209 1658> 805 301<209 1658> 1072 226<-329 -181.608>
LayerCount: 2
Fore
SplineSet
1072 -329 m 1xe8
 1040 0 l 1
 127 0 l 1
 127 1658 l 1
 429 1658 l 1
 429 209 l 1
 805 209 l 1
 805 1658 l 1
 1106 1658 l 1
 1106 209 l 1xf0
 1298 209 l 1
 1298 -329 l 1
 1072 -329 l 1xe8
EndSplineSet
EndChar

StartChar: afii10041
Encoding: 413 1063 157
Width: 1169
VWidth: 0
Flags: W
HStem: 0 21G<740 1041> 706 190<431.792 736.631> 1638 20G<94 379 740 1041>
VStem: 94 285<948.348 1658> 740 301<0 729 905.281 1658>
LayerCount: 2
Fore
SplineSet
740 0 m 1
 740 729 l 1
 656 713 579 706 518 706 c 0
 260 706 94 842 94 1100 c 2
 94 1658 l 1
 379 1658 l 1
 379 1101 l 2
 379 973 413 896 587 896 c 0
 629 896 680 901 740 913 c 1
 740 1658 l 1
 1041 1658 l 1
 1041 0 l 1
 740 0 l 1
EndSplineSet
EndChar

StartChar: afii10042
Encoding: 414 1064 158
Width: 1613
VWidth: 0
Flags: W
HStem: 0 216<420 666 958 1193> 1638 20G<127 420 666 958 1193 1486>
VStem: 127 293<216 1658> 666 292<216 1658> 1193 293<216 1658>
LayerCount: 2
Fore
SplineSet
127 0 m 1
 127 1658 l 1
 420 1658 l 1
 420 216 l 1
 666 216 l 1
 666 1658 l 1
 958 1658 l 1
 958 216 l 1
 1193 216 l 1
 1193 1658 l 1
 1486 1658 l 1
 1486 0 l 1
 127 0 l 1
EndSplineSet
EndChar

StartChar: afii10043
Encoding: 415 1065 159
Width: 1746
VWidth: 0
Flags: W
HStem: 0 209<420 666 958 1194> 1638 20G<127 420 666 958 1194 1487>
VStem: 127 293<209 1658> 666 292<209 1658> 1194 293<209 1658> 1452 227<-329 -171.782>
LayerCount: 2
Fore
SplineSet
1452 -329 m 1xf4
 1422 0 l 1
 127 0 l 1
 127 1658 l 1
 420 1658 l 1
 420 209 l 1
 666 209 l 1
 666 1658 l 1
 958 1658 l 1
 958 209 l 1
 1194 209 l 1
 1194 1658 l 1
 1487 1658 l 1
 1487 209 l 1xf8
 1679 209 l 1
 1679 -329 l 1
 1452 -329 l 1xf4
EndSplineSet
EndChar

StartChar: afii10044
Encoding: 416 1066 160
Width: 1224
VWidth: 0
Flags: W
HStem: 0 206<575 805.195> 753 211<575 802.113> 1441 217<-5 273>
VStem: 273 302<206 753 964 1441> 881 282<287.987 675.265>
LayerCount: 2
Fore
SplineSet
273 0 m 1
 273 1441 l 1
 -5 1441 l 1
 -5 1658 l 1
 575 1658 l 1
 575 964 l 1
 639 964 l 2
 984 964 1163 850 1163 485 c 0
 1163 110 965 0 633 0 c 2
 273 0 l 1
575 206 m 1
 633 206 l 2
 806 206 883 259 881 489 c 0
 880 668 824 753 629 753 c 2
 575 753 l 1
 575 206 l 1
EndSplineSet
EndChar

StartChar: afii10045
Encoding: 417 1067 161
Width: 1593
VWidth: 0
Flags: W
HStem: 0 206<429 653.567> 753 211<429 651.035> 1638 20G<127 429 1164 1466>
VStem: 127 302<206 753 964 1658> 730 281<287.987 675.265> 1164 302<0 1658>
LayerCount: 2
Fore
SplineSet
127 0 m 1
 127 1658 l 1
 429 1658 l 1
 429 964 l 1
 488 964 l 2
 833 964 1011 850 1011 485 c 0
 1011 110 814 0 481 0 c 2
 127 0 l 1
429 206 m 1
 482 206 l 2
 655 206 732 259 730 489 c 0
 729 668 673 753 478 753 c 2
 429 753 l 1
 429 206 l 1
1164 0 m 1
 1164 1658 l 1
 1466 1658 l 1
 1466 0 l 1
 1164 0 l 1
EndSplineSet
EndChar

StartChar: afii10046
Encoding: 418 1068 162
Width: 1074
VWidth: 0
Flags: W
HStem: 0 206<429 652.659> 753 211<429 650.113> 1638 20G<127 429>
VStem: 127 302<206 753 964 1658> 729 282<287.987 675.265>
LayerCount: 2
Fore
SplineSet
127 0 m 1
 127 1658 l 1
 429 1658 l 1
 429 964 l 1
 487 964 l 2
 832 964 1011 850 1011 485 c 0
 1011 110 813 0 480 0 c 2
 127 0 l 1
429 206 m 1
 481 206 l 2
 654 206 731 259 729 489 c 0
 728 668 672 753 477 753 c 2
 429 753 l 1
 429 206 l 1
EndSplineSet
EndChar

StartChar: afii10047
Encoding: 419 1069 163
Width: 1117
VWidth: 0
Flags: W
HStem: -3 223<429.436 661.947> 765 173<440 714> 1470 224<437.375 661.986>
VStem: 99 291<266.215 561 1112 1426.08> 714 305<275.779 765 938 1410.2>
LayerCount: 2
Fore
SplineSet
548 -3 m 0
 210 -3 99 182 99 476 c 2
 99 561 l 1
 390 561 l 1
 390 477 l 2
 390 336 388 220 546 220 c 0
 703 220 714 340 714 498 c 2
 714 765 l 1
 440 765 l 1
 440 938 l 1
 714 938 l 1
 714 1200 l 2
 714 1391 675 1470 546 1470 c 0
 394 1470 390 1351 390 1200 c 2
 390 1112 l 1
 99 1112 l 1
 99 1188 l 2
 99 1485 198 1694 548 1694 c 0
 914 1694 1019 1462 1019 1137 c 2
 1019 559 l 2
 1019 214 914 -3 548 -3 c 0
EndSplineSet
EndChar

StartChar: afii10048
Encoding: 420 1070 164
Width: 1577
VWidth: 0
Flags: W
HStem: -20 224<927.032 1155.07> 0 21G<127 418> 733 224<418 603> 1454 223<925.541 1156.55> 1638 20G<127 418>
VStem: 127 291<0 733 957 1658> 603 276<257.922 733 957 1404.45> 1203 277<259.251 1403.13>
LayerCount: 2
Fore
SplineSet
1041 -20 m 0xb7
 707 -20 603 198 603 538 c 2
 603 733 l 1
 418 733 l 1
 418 0 l 1
 127 0 l 1
 127 1658 l 1
 418 1658 l 1x6f
 418 957 l 1
 603 957 l 1
 603 1126 l 2
 603 1466 707 1677 1041 1677 c 0
 1374 1677 1480 1463 1480 1126 c 2
 1480 538 l 2
 1480 201 1374 -20 1041 -20 c 0xb7
1041 204 m 0xb7
 1183 204 1203 313 1203 455 c 2
 1203 1208 l 2
 1203 1351 1183 1454 1041 1454 c 0
 900 1454 879 1351 879 1208 c 2
 879 455 l 2
 879 313 900 204 1041 204 c 0xb7
EndSplineSet
EndChar

StartChar: afii10049
Encoding: 421 1071 165
Width: 1174
VWidth: 0
Flags: W
HStem: 0 21G<21 360.928 745 1047> 671 214<619 745> 1447 211<511.968 745>
VStem: 127 283<987.925 1351.09> 745 302<0 671 885 1447>
LayerCount: 2
Fore
SplineSet
21 0 m 1
 356 741 l 1
 222 811 127 961 127 1183 c 0
 127 1503 296 1658 674 1658 c 2
 1047 1658 l 1
 1047 0 l 1
 745 0 l 1
 745 671 l 1
 655 671 l 2
 653 671 621 671 619 671 c 1
 353 0 l 1
 21 0 l 1
689 885 m 2
 745 885 l 1
 745 1447 l 1
 684 1447 l 2
 500 1447 410 1365 410 1183 c 0
 410 992 480 885 689 885 c 2
EndSplineSet
EndChar

StartChar: afii10051
Encoding: 422 1026 166
Width: 1206
VWidth: 0
Flags: W
HStem: 0 193<656 775.853> 797 186<589.989 799.047> 1442 216<13 243 539 808>
VStem: 243 296<0 770.844 906 1442> 842 279<253.429 755.143>
LayerCount: 2
Fore
SplineSet
656 0 m 1
 656 193 l 1
 804 193 842 292 842 430 c 2
 842 642 l 2
 842 713 798 797 694 797 c 0
 653 797 602 783 539 749 c 1
 539 0 l 1
 243 0 l 1
 243 1442 l 1
 13 1442 l 1
 13 1658 l 1
 808 1658 l 1
 808 1442 l 1
 539 1442 l 1
 539 906 l 1
 603 957 688 983 774 983 c 0
 946 983 1121 878 1121 662 c 2
 1121 429 l 2
 1121 122 993 0 713 0 c 2
 656 0 l 1
EndSplineSet
EndChar

StartChar: afii10053
Encoding: 424 1028 168
Width: 1080
VWidth: 0
Flags: W
HStem: -20 224<454.901 679.33> 756 185<403 748> 1454 223<454.905 687.263>
VStem: 97 306<263.801 756 941 1398.22> 726 291<247.918 560 1121 1416.58>
LayerCount: 2
Fore
SplineSet
569 -20 m 0
 203 -20 97 212 97 537 c 2
 97 1115 l 2
 97 1460 203 1677 569 1677 c 0
 907 1677 1017 1492 1017 1198 c 2
 1017 1121 l 1
 726 1121 l 1
 726 1197 l 2
 726 1338 729 1454 570 1454 c 0
 414 1454 403 1334 403 1176 c 2
 403 941 l 1
 748 941 l 1
 748 756 l 1
 403 756 l 1
 403 474 l 2
 403 283 442 204 570 204 c 0
 723 204 726 323 726 474 c 2
 726 560 l 1
 1017 560 l 1
 1017 486 l 2
 1017 189 919 -20 569 -20 c 0
EndSplineSet
EndChar

StartChar: afii10055
Encoding: 426 1030 170
Width: 542
VWidth: 0
Flags: W
HStem: 0 21G<126 424> 1638 20G<126 424>
VStem: 126 298<0 1658>
LayerCount: 2
Fore
SplineSet
126 0 m 1
 126 1658 l 1
 424 1658 l 1
 424 0 l 1
 126 0 l 1
EndSplineSet
EndChar

StartChar: afii10057
Encoding: 428 1032 172
Width: 646
VWidth: 0
Flags: W
HStem: -35 212<12 182.943> 1638 20G<232 534>
VStem: 232 302<216.25 1658>
LayerCount: 2
Fore
SplineSet
12 -35 m 1
 12 177 l 1
 186 176 232 213 232 386 c 2
 232 1658 l 1
 534 1658 l 1
 534 379 l 1
 531 99 450 -35 156 -35 c 2
 12 -35 l 1
EndSplineSet
EndChar

StartChar: afii10058
Encoding: 429 1033 173
Width: 1764
VWidth: 0
Flags: W
HStem: 0 206<23 161.579 1151 1348.57> 753 211<1151 1345.11> 1432 226<609 849>
VStem: 849 302<206 753 964 1432> 1424 282<287.987 675.265>
LayerCount: 2
Fore
SplineSet
23 0 m 1
 23 218 l 1
 190 208 255 290 280 674 c 1
 341 1658 l 1
 1151 1658 l 1
 1151 964 l 1
 1182 964 l 2
 1527 964 1706 850 1706 485 c 0
 1706 110 1509 0 1176 0 c 2
 849 0 l 1
 849 1432 l 1
 609 1432 l 1
 565 671 l 2
 537 187 419 -10 108 -1 c 1
 23 0 l 1
1151 206 m 1
 1177 206 l 2
 1349 206 1426 259 1424 489 c 0
 1423 668 1367 753 1172 753 c 2
 1151 753 l 1
 1151 206 l 1
EndSplineSet
EndChar

StartChar: afii10059
Encoding: 430 1034 174
Width: 1655
VWidth: 0
Flags: W
HStem: 0 206<1042 1237.57> 751 223<429 740 1042 1235.03> 1640 20G<127 429 740 1042>
VStem: 127 302<1 751 974 1660> 740 302<206 751 974 1660> 1314 281<287.987 675.265>
LayerCount: 2
Fore
SplineSet
1065 0 m 1
 740 1 l 1
 740 751 l 1
 429 751 l 1
 429 1 l 1
 127 1 l 1
 127 1660 l 1
 429 1660 l 1
 429 974 l 1
 740 974 l 1
 740 1660 l 1
 1042 1660 l 1
 1042 964 l 1
 1072 964 l 2
 1417 964 1595 850 1595 485 c 0
 1595 110 1398 0 1065 0 c 1
1042 206 m 1
 1066 206 l 2
 1239 206 1316 259 1314 489 c 0
 1313 668 1257 753 1061 753 c 2
 1042 753 l 1
 1042 206 l 1
EndSplineSet
EndChar

StartChar: afii10060
Encoding: 431 1035 175
Width: 1117
VWidth: 0
Flags: W
HStem: 0 21G<234 532 733 1013> 801 170<561.463 728.728> 1435 223<9 234 532 778>
VStem: 234 298<0 782.25 912 1435> 733 280<0 797.297>
LayerCount: 2
Fore
SplineSet
234 0 m 1
 234 1435 l 1
 9 1435 l 1
 9 1658 l 1
 778 1658 l 1
 778 1435 l 1
 532 1435 l 1
 532 912 l 1
 532 912 630 971 764 971 c 0
 916 971 1013 886 1013 764 c 2
 1013 0 l 1
 733 0 l 1
 733 714 l 2
 733 767 721 802 655 801 c 0
 597 801 543 765 532 759 c 1
 532 0 l 1
 234 0 l 1
EndSplineSet
EndChar

StartChar: afii10066
Encoding: 435 1073 179
Width: 936
VWidth: 0
Flags: W
HStem: -18 193<401.149 552.317> 937 177<405.96 653.5>
VStem: 99 275<195.394 905.604 1057 1398.45> 578 272<193.657 926.621>
LayerCount: 2
Fore
SplineSet
460 -18 m 0
 196 -16 99 140 99 422 c 2
 99 1034 l 2
 99 1735 311 1561 745 1736 c 1
 786 1517 l 1
 461 1367 367 1537 366 1167 c 1
 366 1057 l 1
 424 1090 500 1114 568 1114 c 0
 739 1114 850 1005 850 686 c 2
 850 430 l 2
 850 62 689 -19 460 -18 c 0
479 175 m 0
 556 175 578 226 578 402 c 2
 578 759 l 2
 578 887 558 937 493 937 c 0
 452 937 414 915 374 848 c 1
 374 422 l 2
 374 232 390 175 479 175 c 0
EndSplineSet
EndChar

StartChar: afii10067
Encoding: 436 1074 180
Width: 938
VWidth: 0
Flags: W
HStem: 0 182<383 573.865> 540 175<383 568.591> 1010 174<383 560.654>
VStem: 108 275<182 540 715 1010> 593 256<736.564 981.992> 605 274<213.451 514.978>
LayerCount: 2
Fore
SplineSet
108 0 m 1xf4
 108 1184 l 1
 484 1184 l 2
 777 1184 847 1056 849 896 c 0xf8
 851 761 803 679 682 645 c 1
 840 611 879 487 879 344 c 0
 879 126 785 0 482 0 c 2
 108 0 l 1xf4
383 182 m 1
 443 182 l 2
 528 182 605 194 605 353 c 0xf4
 605 536 540 540 449 540 c 2
 383 540 l 1
 383 182 l 1
383 715 m 1
 473 715 l 2
 554 715 593 758 593 867 c 0xf8
 593 968 549 1010 451 1010 c 2
 383 1010 l 1
 383 715 l 1
EndSplineSet
EndChar

StartChar: afii10068
Encoding: 437 1075 181
Width: 651
VWidth: 0
Flags: W
HStem: 0 21G<107 387> 991 193<387 639>
VStem: 107 280<0 991>
LayerCount: 2
Fore
SplineSet
107 0 m 1
 107 1184 l 1
 639 1184 l 1
 639 991 l 1
 387 991 l 1
 387 0 l 1
 107 0 l 1
EndSplineSet
EndChar

StartChar: afii10069
Encoding: 438 1076 182
Width: 1122
VWidth: 0
Flags: W
HStem: 0 185<315 667> 1000 184<547 667>
VStem: 28 203<-313 -88.6416> 321 216<562.959 1000> 667 262<185 1000> 886 202<-313 -99.3253>
LayerCount: 2
Fore
SplineSet
28 -313 m 1xf4
 28 178 l 1
 199 289 313 485 321 950 c 1
 335 1184 l 1
 929 1184 l 1
 929 185 l 1xf8
 1088 185 l 1
 1088 -313 l 1
 886 -313 l 1
 865 0 l 1
 251 0 l 1
 231 -313 l 1
 28 -313 l 1xf4
315 185 m 1
 667 185 l 1
 667 1000 l 1
 547 1000 l 1
 537 888 l 1
 531 420 430 270 315 185 c 1
EndSplineSet
EndChar

StartChar: afii10072
Encoding: 441 1078 185
Width: 1273
VWidth: 0
Flags: W
HStem: 0 21G<11 264.403 518 750 1008.39 1262> 576 41<499 518 750 768> 1164 20G<27 289.654 518 750 982.169 1245>
VStem: 518 232<0 576 617 1184>
LayerCount: 2
Fore
SplineSet
11 0 m 1
 276 600 l 1
 27 1184 l 1
 282 1184 l 1
 499 617 l 1
 518 617 l 1
 518 1184 l 1
 750 1184 l 1
 750 617 l 1
 768 617 l 1
 990 1184 l 1
 1245 1184 l 1
 992 600 l 1
 1262 0 l 1
 1017 0 l 1
 769 576 l 1
 750 576 l 1
 750 0 l 1
 518 0 l 1
 518 576 l 1
 498 576 l 1
 256 0 l 1
 11 0 l 1
EndSplineSet
EndChar

StartChar: afii10073
Encoding: 442 1079 186
Width: 837
VWidth: 0
Flags: W
HStem: -21 195<339.121 508.941> 526 170<305 489.264> 1003 199<316.731 501.279>
VStem: 74 230<213.562 381 826 988.934> 535 242<194.275 491.972 741.715 972.843>
LayerCount: 2
Fore
SplineSet
420 -21 m 0
 152 -21 74 133 74 381 c 1
 304 381 l 1
 304 234 347 174 427 174 c 0
 525 174 535 256 535 362 c 0
 535 500 481 526 305 526 c 1
 305 696 l 1
 484 696 526 740 526 860 c 0
 526 960 481 1003 412 1003 c 0
 333 1003 292 967 292 826 c 1
 63 826 l 1
 63 1074 171 1202 425 1202 c 0
 671 1202 774 1049 774 880 c 0
 774 690 672 629 585 614 c 1
 677 588 777 552 777 324 c 0
 777 111 667 -21 420 -21 c 0
EndSplineSet
EndChar

StartChar: afii10074
Encoding: 443 1080 187
Width: 991
VWidth: 0
Flags: W
HStem: 0 21G<107 339.183 656 884> 1164 20G<107 335 656.636 884>
VStem: 107 228<477 1184> 656 228<0 710>
LayerCount: 2
Fore
SplineSet
107 0 m 1
 107 1184 l 1
 335 1184 l 1
 335 477 l 1
 666 1184 l 1
 884 1184 l 1
 884 0 l 1
 656 0 l 1
 656 710 l 1
 330 0 l 1
 107 0 l 1
EndSplineSet
EndChar

StartChar: afii10076
Encoding: 445 1082 189
Width: 944
VWidth: 0
Flags: W
HStem: 0 21G<107 387 632.565 935> 1164 20G<107 387 627.85 931>
VStem: 107 280<0 538 703 1184>
LayerCount: 2
Fore
SplineSet
107 0 m 1
 107 1184 l 1
 387 1184 l 1
 387 703 l 1
 440 703 l 1
 636 1184 l 1
 931 1184 l 1
 694 617 l 1
 935 0 l 1
 640 0 l 1
 440 538 l 1
 387 538 l 1
 387 0 l 1
 107 0 l 1
EndSplineSet
EndChar

StartChar: afii10077
Encoding: 446 1083 190
Width: 1074
VWidth: 0
Flags: W
HStem: -7 200<33 112.097> 983 201<518 687>
VStem: 687 279<0 983>
LayerCount: 2
Fore
SplineSet
33 -7 m 1
 33 193 l 1
 210 183 223 293 242 628 c 1
 278 1184 l 1
 966 1184 l 1
 966 0 l 1
 687 0 l 1
 687 983 l 1
 518 983 l 1
 495 613 l 1
 467 108 392 -11 113 -11 c 0
 94 -11 58 -10 33 -7 c 1
EndSplineSet
EndChar

StartChar: afii10078
Encoding: 447 1084 191
Width: 1141
VWidth: 0
Flags: W
HStem: 0 21G<103 329 812 1037> 1164 20G<111.848 325.838 814.162 1028.15>
VStem: 103 226<0 649> 812 225<0 650>
LayerCount: 2
Fore
SplineSet
103 0 m 1
 112 1184 l 1
 318 1184 l 1
 570 541 l 1
 822 1184 l 1
 1028 1184 l 1
 1037 0 l 1
 812 0 l 1
 812 650 l 1
 612 145 l 1
 529 145 l 1
 329 649 l 1
 329 0 l 1
 103 0 l 1
EndSplineSet
EndChar

StartChar: afii10079
Encoding: 448 1085 192
Width: 1005
VWidth: 0
Flags: W
HStem: 0 21G<107 387 618 898> 509 198<387 618> 1164 20G<107 387 618 898>
VStem: 107 280<0 509 707 1184> 618 280<0 509 707 1184>
LayerCount: 2
Fore
SplineSet
107 0 m 1
 107 1184 l 1
 387 1184 l 1
 387 707 l 1
 618 707 l 1
 618 1184 l 1
 898 1184 l 1
 898 0 l 1
 618 0 l 1
 618 509 l 1
 387 509 l 1
 387 0 l 1
 107 0 l 1
EndSplineSet
EndChar

StartChar: afii10081
Encoding: 450 1087 194
Width: 977
VWidth: 0
Flags: W
HStem: 0 21G<107 387 590 869> 983 201<387 590>
VStem: 107 280<0 983> 590 279<0 983>
LayerCount: 2
Fore
SplineSet
107 0 m 1
 107 1184 l 1
 869 1184 l 1
 869 0 l 1
 590 0 l 1
 590 983 l 1
 387 983 l 1
 387 0 l 1
 107 0 l 1
EndSplineSet
EndChar

StartChar: afii10084
Encoding: 453 1090 197
Width: 764
VWidth: 0
Flags: W
HStem: 0 21G<240 520> 985 199<28 240 520 736>
VStem: 240 280<0 985>
LayerCount: 2
Fore
SplineSet
240 0 m 1
 240 985 l 1
 28 985 l 1
 28 1184 l 1
 736 1184 l 1
 736 985 l 1
 520 985 l 1
 520 0 l 1
 240 0 l 1
EndSplineSet
EndChar

StartChar: afii10085
Encoding: 454 1091 198
Width: 881
VWidth: 0
Flags: W
HStem: -335 214<113 287.763> 1164 20G<26 278.925 588.679 851>
LayerCount: 2
Fore
SplineSet
113 -335 m 1
 102 -121 l 1
 294 -120 330 -93 289 84 c 1
 26 1184 l 1
 275 1184 l 1
 380 649 l 1
 446 284 l 1
 503 648 l 1
 592 1184 l 1
 851 1184 l 1
 575 -6 l 1
 512 -285 405 -335 113 -335 c 1
EndSplineSet
EndChar

StartChar: afii10086
Encoding: 455 1092 199
Width: 1336
VWidth: 0
Flags: W
HStem: -374 21G<541 792> 42 182<404.277 541 792 926.39> 1003 169<405.604 541 792 933.759> 1638 20G<541 792>
VStem: 87 256<285.282 939.969> 541 251<-374 42 224 1003 1172 1658> 993 256<297.125 939.969>
LayerCount: 2
Fore
SplineSet
541 -374 m 1
 541 42 l 1
 519 42 l 2
 342 42 87 122 87 485 c 2
 87 750 l 2
 87 1044 299 1172 516 1172 c 2
 541 1172 l 1
 541 1658 l 1
 792 1658 l 1
 792 1172 l 1
 824 1172 l 2
 1042 1172 1249 1044 1249 750 c 2
 1249 485 l 2
 1249 122 997 42 822 42 c 2
 792 42 l 1
 792 -374 l 1
 541 -374 l 1
526 224 m 2
 541 224 l 1
 541 1003 l 1
 524 1003 l 2
 417 1003 343 946 343 782 c 2
 343 476 l 2
 343 292 408 224 526 224 c 2
805 224 m 2
 920 224 993 292 993 476 c 2
 993 782 l 2
 993 946 914 1003 807 1003 c 2
 792 1003 l 1
 792 224 l 1
 805 224 l 2
EndSplineSet
EndChar

StartChar: afii10088
Encoding: 457 1094 201
Width: 1082
VWidth: 0
Flags: W
HStem: 0 185<387 617> 1164 20G<107 387 617 896>
VStem: 107 280<185 1184> 617 279<185 1184> 854 201<-313 -99.3253>
LayerCount: 2
Fore
SplineSet
854 -313 m 1xe8
 833 0 l 1
 107 0 l 1
 107 1184 l 1
 387 1184 l 1
 387 185 l 1
 617 185 l 1
 617 1184 l 1
 896 1184 l 1
 896 185 l 1xf0
 1055 185 l 1
 1055 -313 l 1
 854 -313 l 1xe8
EndSplineSet
EndChar

StartChar: afii10089
Encoding: 458 1095 202
Width: 954
VWidth: 0
Flags: W
HStem: 0 21G<567 846> 461 178<376.191 567> 1164 20G<77 356 567 846>
VStem: 77 279<659.451 1184> 567 279<0 469 639.658 1184>
LayerCount: 2
Fore
SplineSet
567 0 m 1
 567 469 l 1
 521 464 476 461 432 461 c 0
 198 461 77 542 77 760 c 2
 77 1184 l 1
 356 1184 l 1
 356 767 l 2
 356 686 378 640 494 639 c 0
 514 639 539 640 567 643 c 1
 567 1184 l 1
 846 1184 l 1
 846 0 l 1
 567 0 l 1
EndSplineSet
EndChar

StartChar: afii10090
Encoding: 459 1096 203
Width: 1372
VWidth: 0
Flags: W
HStem: 0 194<373 549 815 999> 1164 20G<107 373 549 815 999 1264>
VStem: 107 266<194 1184> 549 266<194 1184> 999 265<194 1184>
LayerCount: 2
Fore
SplineSet
107 0 m 1
 107 1184 l 1
 373 1184 l 1
 373 194 l 1
 549 194 l 1
 549 1184 l 1
 815 1184 l 1
 815 194 l 1
 999 194 l 1
 999 1184 l 1
 1264 1184 l 1
 1264 0 l 1
 107 0 l 1
EndSplineSet
EndChar

StartChar: afii10091
Encoding: 460 1097 204
Width: 1488
VWidth: 0
Flags: W
HStem: 0 185<374 549 815 998> 1164 20G<107 374 549 815 998 1265>
VStem: 107 267<185 1184> 549 266<185 1184> 998 267<185 1184> 1223 201<-313 -99.3253>
LayerCount: 2
Fore
SplineSet
1223 -313 m 1xf4
 1202 0 l 1
 107 0 l 1
 107 1184 l 1
 374 1184 l 1
 374 185 l 1
 549 185 l 1
 549 1184 l 1
 815 1184 l 1
 815 185 l 1
 998 185 l 1
 998 1184 l 1
 1265 1184 l 1
 1265 185 l 1xf8
 1424 185 l 1
 1424 -313 l 1
 1223 -313 l 1xf4
EndSplineSet
EndChar

StartChar: afii10092
Encoding: 461 1098 205
Width: 1060
VWidth: 0
Flags: W
HStem: 0 161<514 709.142> 534 165<514 710.303> 987 197<0 235>
VStem: 235 279<161 534 699 987> 758 253<206.766 488.351>
LayerCount: 2
Fore
SplineSet
235 0 m 1
 235 987 l 1
 0 987 l 1
 0 1184 l 1
 514 1184 l 1
 514 699 l 1
 533 699 l 1
 859 697 1011 636 1011 348 c 0
 1011 84 873 0 520 0 c 2
 235 0 l 1
514 161 m 1
 518 161 l 1
 695 162 758 193 758 348 c 0
 758 494 704 532 525 534 c 1
 514 534 l 1
 514 161 l 1
EndSplineSet
EndChar

StartChar: afii10093
Encoding: 462 1099 206
Width: 1399
VWidth: 0
Flags: W
HStem: 0 161<387 581.142> 534 165<387 583.196> 1164 20G<107 387 1012 1292>
VStem: 107 280<161 534 699 1184> 631 252<206.766 488.351> 1012 280<0 1184>
LayerCount: 2
Fore
SplineSet
107 0 m 1
 107 1184 l 1
 387 1184 l 1
 387 699 l 1
 393 699 400 699 406 699 c 0
 732 697 883 636 883 348 c 0
 883 84 745 0 392 0 c 2
 107 0 l 1
387 161 m 1
 388 161 390 161 391 161 c 0
 568 162 631 193 631 348 c 0
 631 494 576 532 398 534 c 0
 394 534 391 534 387 534 c 1
 387 161 l 1
1012 0 m 1
 1012 1184 l 1
 1292 1184 l 1
 1292 0 l 1
 1012 0 l 1
EndSplineSet
EndChar

StartChar: afii10094
Encoding: 463 1100 207
Width: 925
VWidth: 0
Flags: W
HStem: 0 161<387 581.142> 534 165<387 583.196> 1164 20G<107 387>
VStem: 107 280<161 534 699 1184> 631 252<206.766 488.351>
LayerCount: 2
Fore
SplineSet
107 0 m 1
 107 1184 l 1
 387 1184 l 1
 387 699 l 1
 393 699 400 699 406 699 c 0
 732 697 883 636 883 348 c 0
 883 84 745 0 392 0 c 2
 107 0 l 1
387 161 m 1
 388 161 390 161 391 161 c 0
 568 162 631 193 631 348 c 0
 631 494 576 532 398 534 c 0
 394 534 391 534 387 534 c 1
 387 161 l 1
EndSplineSet
EndChar

StartChar: afii10095
Encoding: 464 1101 208
Width: 906
VWidth: 0
Flags: W
HStem: -19 202<364.041 519.195> 520 136<268 541> 999 203<364.387 519.27>
VStem: 84 261<203.111 392 771 983.226> 541 280<197.654 520 656 984.188>
LayerCount: 2
Fore
SplineSet
444 -19 m 0
 188 -19 84 101 84 346 c 2
 84 392 l 1
 345 392 l 1
 345 345 l 2
 345 224 371 183 441 183 c 0
 520 183 541 232 541 382 c 2
 541 520 l 1
 268 520 l 1
 268 656 l 1
 541 656 l 1
 541 807 l 2
 541 962 512 999 441 999 c 0
 362 999 345 939 345 844 c 2
 345 771 l 1
 84 771 l 1
 84 833 l 2
 84 1073 193 1202 444 1202 c 0
 724 1202 821 1034 821 762 c 2
 821 420 l 2
 821 148 723 -19 444 -19 c 0
EndSplineSet
EndChar

StartChar: afii10096
Encoding: 465 1102 209
Width: 1299
VWidth: 0
Flags: W
HStem: -19 204<798.187 934.125> 0 21G<107 367> 499 191<367 522> 999 203<798.187 934.125> 1164 20G<107 367>
VStem: 107 260<0 499 690 1184> 522 252<202.654 499 690 980.346> 959 253<202.654 980.346>
LayerCount: 2
Fore
SplineSet
866 -19 m 0xb7
 626 -19 522 136 522 396 c 2
 522 499 l 1
 367 499 l 1
 367 0 l 1
 107 0 l 1
 107 1184 l 1
 367 1184 l 1x6f
 367 690 l 1
 522 690 l 1
 522 787 l 2
 522 1047 626 1202 866 1202 c 0
 1105 1202 1212 1047 1212 787 c 2
 1212 396 l 2
 1212 136 1105 -19 866 -19 c 0xb7
866 185 m 0xb7
 953 185 959 278 959 383 c 2
 959 800 l 2
 959 904 953 999 866 999 c 0
 780 999 774 903 774 800 c 2
 774 383 l 2
 774 279 780 185 866 185 c 0xb7
EndSplineSet
EndChar

StartChar: afii10097
Encoding: 466 1103 210
Width: 968
VWidth: 0
Flags: W
HStem: 0 21G<24 331.321 581 861> 448 160<488 581> 1025 159<394.627 581>
VStem: 75 253<673.869 963.845> 581 280<0 446 608 1025>
LayerCount: 2
Fore
SplineSet
24 0 m 1
 229 495 l 1
 124 540 75 658 75 820 c 0
 75 1064 203 1183 536 1184 c 1
 861 1184 l 1
 861 0 l 1
 581 0 l 1
 581 446 l 1
 555 446 519 447 488 448 c 1
 324 0 l 1
 24 0 l 1
568 608 m 0
 571 608 578 608 581 608 c 1
 581 1025 l 1
 579 1025 573 1025 570 1025 c 0
 399 1025 328 969 328 821 c 0
 328 678 392 610 568 608 c 0
EndSplineSet
EndChar

StartChar: afii10098
Encoding: 467 1169 211
Width: 659
VWidth: 0
Flags: W
HStem: 0 21G<107 387> 991 193<387 495>
VStem: 107 280<0 991> 495 148<1184 1406>
LayerCount: 2
Fore
SplineSet
107 0 m 1
 107 1184 l 1
 495 1184 l 1
 495 1406 l 1
 643 1406 l 1
 643 991 l 1
 387 991 l 1
 387 0 l 1
 107 0 l 1
EndSplineSet
EndChar

StartChar: afii10099
Encoding: 468 1106 212
Width: 994
VWidth: 0
Flags: W
HStem: -320 162<393 563.764> 0 21G<123 402> 817 185<465.214 754.5> 1240 152<-20 123 402 683> 1638 20G<123 402>
VStem: 123 279<0 796.228 929 1240 1392 1658> 621 279<-107.009 809.855>
LayerCount: 2
Fore
SplineSet
393 -320 m 1
 393 -158 l 1
 421 -158 l 2
 591 -158 621 -99 621 176 c 2
 621 703 l 2
 621 772 607 817 537 817 c 0
 482 817 413 782 402 777 c 1
 402 0 l 1
 123 0 l 1
 123 1240 l 1
 -20 1240 l 1
 -20 1392 l 1
 123 1392 l 1
 123 1658 l 1
 402 1658 l 1
 402 1392 l 1
 683 1392 l 1
 683 1240 l 1
 402 1240 l 1
 402 929 l 1
 434 941 537 1002 657 1002 c 0
 852 1002 900 860 900 732 c 2
 900 210 l 2
 900 -228 816 -320 455 -320 c 2
 393 -320 l 1
EndSplineSet
EndChar

StartChar: afii10101
Encoding: 470 1108 214
Width: 874
VWidth: 0
Flags: W
HStem: -19 204<387.781 542.982> 526 152<366 648> 1000 202<387.805 543.258>
VStem: 86 280<199.56 526 678 985.671> 562 261<200.223 419 782 979.889>
LayerCount: 2
Fore
SplineSet
463 -19 m 0
 183 -19 86 150 86 421 c 2
 86 764 l 2
 86 1035 184 1202 463 1202 c 0
 720 1202 823 1082 823 837 c 2
 823 782 l 1
 562 782 l 1
 562 839 l 2
 562 959 537 1000 466 1000 c 0
 387 1000 366 952 366 801 c 2
 366 678 l 1
 648 678 l 1
 648 526 l 1
 366 526 l 1
 366 376 l 2
 366 221 395 185 467 185 c 0
 546 185 562 244 562 339 c 2
 562 419 l 1
 823 419 l 1
 823 351 l 2
 823 110 715 -19 463 -19 c 0
EndSplineSet
EndChar

StartChar: afii10103
Encoding: 472 1110 216
Width: 493
VWidth: 0
Flags: W
HStem: 0 21G<108 388> 1164 20G<108 388> 1355 236<109 389>
VStem: 108 280<0 1184 1355 1591>
LayerCount: 2
Fore
SplineSet
108 0 m 1
 108 1184 l 1
 388 1184 l 1
 388 0 l 1
 108 0 l 1
109 1355 m 1
 109 1591 l 1
 389 1591 l 1
 389 1355 l 1
 109 1355 l 1
EndSplineSet
EndChar

StartChar: afii10105
Encoding: 474 1112 218
Width: 494
VWidth: 0
Flags: W
HStem: -327 213<-30.6561 209.949> 1164 20G<133 412> 1371 236<132 414>
VStem: 133 279<-97.7109 1184 1371 1607>
LayerCount: 2
Fore
SplineSet
-32 -307 m 1
 -32 -107 l 1
 -16 -110 9 -114 27 -114 c 0
 99 -114 133 -71 133 7 c 2
 133 1184 l 1
 412 1184 l 1
 412 -25 l 2
 412 -210 304 -327 113 -327 c 0
 63 -327 9 -321 -32 -307 c 1
132 1371 m 1
 132 1607 l 1
 414 1607 l 1
 414 1371 l 1
 132 1371 l 1
EndSplineSet
EndChar

StartChar: afii10106
Encoding: 475 1113 219
Width: 1494
VWidth: 0
Flags: W
HStem: -7 199<37 166.456> 0 161<970 1142.1> 534 164<970 1144.87> 983 201<521 691>
VStem: 691 279<161 534 698 983> 1187 253<202.838 487.321>
LayerCount: 2
Fore
SplineSet
37 -7 m 1xbc
 37 192 l 1xbc
 210 186 227 282 250 673 c 2
 281 1184 l 1
 970 1184 l 1
 970 698 l 1
 990 698 l 2
 1296 698 1440 628 1440 348 c 0
 1440 91 1308 4 976 0 c 1
 691 0 l 1x7c
 691 983 l 1
 521 983 l 1
 500 622 l 1
 470 68 377 -19 91 -11 c 0
 80 -10 51 -9 37 -7 c 1xbc
970 161 m 1x7c
 971 161 976 161 977 161 c 0
 1131 162 1187 202 1187 348 c 0
 1187 488 1137 533 976 534 c 0
 975 534 971 534 970 534 c 1
 970 161 l 1x7c
EndSplineSet
EndChar

StartChar: afii10107
Encoding: 476 1114 220
Width: 1385
VWidth: 0
Flags: W
HStem: 1 161<871 1038.96> 496 210<387 591> 535 164<871 1034.93> 1164 20G<107 387 591 871>
VStem: 107 280<0 496 706 1184> 591 280<162 496 706 1185> 1087 252<208.936 487.632>
LayerCount: 2
Fore
SplineSet
107 0 m 1xde
 107 1184 l 1
 387 1184 l 1
 387 706 l 1
 591 706 l 1xde
 591 1185 l 1
 871 1185 l 1
 871 699 l 1
 878 699 885 699 892 699 c 0xbe
 1197 693 1339 628 1339 349 c 0
 1339 91 1207 4 871 1 c 1
 591 1 l 1
 591 496 l 1
 387 496 l 1
 387 0 l 1
 107 0 l 1xde
871 162 m 1
 874 162 878 162 881 163 c 0
 1032 167 1087 204 1087 348 c 0
 1087 487 1038 528 882 534 c 0
 878 534 875 535 871 535 c 1xbe
 871 162 l 1
EndSplineSet
EndChar

StartChar: afii10108
Encoding: 477 1115 221
Width: 1000
VWidth: 0
Flags: W
HStem: 0 21G<123 402 621 900> 817 185<465.553 754.5> 1240 152<-20 123 402 683> 1638 20G<123 402>
VStem: 123 279<0 794.466 929 1240 1392 1658> 621 279<0 809.855>
LayerCount: 2
Fore
SplineSet
123 0 m 1
 123 1240 l 1
 -20 1240 l 1
 -20 1392 l 1
 123 1392 l 1
 123 1658 l 1
 402 1658 l 1
 402 1392 l 1
 683 1392 l 1
 683 1240 l 1
 402 1240 l 1
 402 929 l 1
 434 941 537 1002 657 1002 c 0
 852 1002 900 860 900 732 c 2
 900 0 l 1
 621 0 l 1
 621 703 l 2
 621 772 607 817 537 817 c 0
 496 817 413 782 402 777 c 1
 402 0 l 1
 123 0 l 1
EndSplineSet
EndChar

StartChar: afii10145
Encoding: 480 1039 224
Width: 1173
VWidth: 0
Flags: W
HStem: 1638 20G<124 426 747 1049>
VStem: 124 302<222 1658> 465 251<-314.436 0> 479 222<-329 -14.5637> 747 302<222 1658>
LayerCount: 2
Fore
SplineSet
479 -329 m 1xd8
 465 0 l 1
 124 0 l 1
 124 1658 l 1
 426 1658 l 1
 426 222 l 1
 747 222 l 1
 747 1658 l 1
 1049 1658 l 1
 1049 0 l 1
 716 0 l 1xe8
 701 -329 l 1
 479 -329 l 1xd8
EndSplineSet
EndChar

StartChar: afii10193
Encoding: 481 1119 225
Width: 986
VWidth: 0
Flags: W
HStem: 1164 20G<107 387 599 878>
VStem: 107 280<185 1184> 383 229<-213.675 0> 404 194<-313 -99.3253> 599 279<185 1184>
LayerCount: 2
Fore
SplineSet
404 -313 m 1x90
 383 0 l 1xa0
 107 0 l 1
 107 1184 l 1
 387 1184 l 1
 387 185 l 1
 599 185 l 1
 599 1184 l 1
 878 1184 l 1
 878 0 l 1xc8
 612 0 l 1xa0
 598 -313 l 1
 404 -313 l 1x90
EndSplineSet
EndChar

StartChar: afii61289
Encoding: 482 8467 226
Width: 1125
VWidth: 0
Flags: W
LayerCount: 2
Fore
SplineSet
402 503 m 1
 244 299 l 1
 156 391 l 1
 443 774 l 1
 571 1634 l 2
 645 2131 1584 2027 743 940 c 1
 608 766 l 1
 540 340 l 2
 496 62 658 66 813 248 c 1
 894 148 l 1
 674 -106 312 -104 379 345 c 1
 402 503 l 1
654 1057 m 1
 1178 1787 746 1635 746 1635 c 1
 654 1057 l 1
EndSplineSet
EndChar

StartChar: ampersand
Encoding: 486 38 230
Width: 1210
VWidth: 0
Flags: W
HStem: -24 249<990.612 1106> -21 209<387.63 596.671> 1465 213<448.206 612.086>
VStem: 102 250<221.554 576.674> 165 253<1103.64 1438.5> 633 248<1151.66 1446.91> 868 234<523.06 790>
LayerCount: 2
Fore
SplineSet
467 -21 m 0x62
 244 -21 102 134 102 359 c 0x72
 102 568 216 739 337 852 c 1
 269 993 165 1136 165 1306 c 0
 165 1519 300 1678 519 1678 c 0
 721 1678 881 1555 881 1348 c 0x6c
 881 1120 705 947 589 826 c 1
 803 463 l 1
 838 534 858 677 868 790 c 1
 1102 790 l 1
 1102 592 1032 419 960 299 c 1
 988 264 1047 227 1106 225 c 1
 1106 -19 l 1
 1093 -22 1080 -24 1066 -24 c 0xa2
 951 -24 871 68 803 132 c 1
 730 39 614 -21 467 -21 c 0x62
470 188 m 0
 550 188 611 232 654 287 c 1
 654 287 448 640 441 658 c 1
 387 579 352 470 352 369 c 0
 352 267 393 188 470 188 c 0
501 975 m 1
 558 1057 633 1224 633 1355 c 0
 633 1423 588 1465 525 1465 c 0
 453 1465 418 1393 418 1313 c 0x2c
 418 1198 472 1057 501 975 c 1
EndSplineSet
EndChar

StartChar: approxequal
Encoding: 488 8776 232
Width: 959
VWidth: 0
Flags: W
HStem: 463 211<524.924 737.308> 583 209<218.449 439.707> 875 211<524.924 737.308> 995 209<218.449 439.707>
LayerCount: 2
Fore
SplineSet
642 463 m 0x80
 532 463 402 583 316 583 c 0
 280 583 216 546 169 496 c 1
 75 622 l 1
 130 692 244 792 324 792 c 0x40
 434 792 561 674 647 674 c 0
 686 674 740 718 791 764 c 1
 890 650 l 1
 839 569 729 463 642 463 c 0x80
642 875 m 0x20
 532 875 402 995 316 995 c 0
 280 995 216 958 169 908 c 1
 75 1033 l 1
 130 1104 244 1204 324 1204 c 0x10
 434 1204 561 1086 647 1086 c 0
 686 1086 740 1129 791 1175 c 1
 890 1062 l 1
 839 981 729 875 642 875 c 0x20
EndSplineSet
EndChar

StartChar: asciicircum
Encoding: 490 94 234
Width: 953
VWidth: 0
Flags: W
HStem: 979 679
LayerCount: 2
Fore
SplineSet
68 979 m 1
 351 1658 l 1
 601 1658 l 1
 886 979 l 1
 634 979 l 1
 476 1433 l 1
 319 979 l 1
 68 979 l 1
EndSplineSet
EndChar

StartChar: asciitilde
Encoding: 491 126 235
Width: 959
VWidth: 0
Flags: W
HStem: 712 212<524.924 737.308> 832 210<218.449 439.707>
LayerCount: 2
Fore
SplineSet
642 712 m 0x80
 532 712 402 832 316 832 c 0
 280 832 216 795 169 745 c 1
 75 871 l 1
 130 942 244 1042 324 1042 c 0x40
 434 1042 561 924 647 924 c 0
 686 924 740 967 791 1013 c 1
 890 899 l 1
 839 818 729 712 642 712 c 0x80
EndSplineSet
EndChar

StartChar: asterisk
Encoding: 492 42 236
Width: 845
VWidth: 0
Flags: W
HStem: 1637 20G<344 553>
LayerCount: 2
Fore
SplineSet
332 938 m 1
 167 1037 l 1
 321 1254 l 1
 91 1342 l 1
 155 1513 l 1
 370 1397 l 1
 344 1657 l 1
 553 1657 l 1
 527 1396 l 1
 742 1513 l 1
 807 1341 l 1
 576 1252 l 1
 732 1037 l 1
 564 938 l 1
 448 1178 l 1
 332 938 l 1
EndSplineSet
EndChar

StartChar: at
Encoding: 493 64 237
Width: 1914
VWidth: 0
Flags: W
HStem: -275 192<723.026 1320.33> -41 20G<1317 1385.28> 196 1033<1204 1417> 1040 205<983.203 1142.85> 1467 191<817.747 1315.63>
VStem: 119 228<284.082 911.208> 566 250<441.969 826.734> 1637 197<591.758 1127.08>
CounterMasks: 1 07
LayerCount: 2
Fore
SplineSet
969 -275 m 0xef
 427 -275 90 47 119 627 c 1
 143 1297 522 1658 1090 1658 c 0
 1624 1658 1855 1266 1834 835 c 1
 1825 528 1655 196 1320 196 c 0xef
 1203 196 1104 257 1086 368 c 1
 1062 291 1001 216 896 206 c 0
 675 186 561 380 566 598 c 1
 569 868 734 1245 1044 1245 c 0xdf
 1113 1245 1159 1185 1183 1154 c 1
 1204 1229 l 1
 1417 1229 l 1
 1311 506 l 2
 1303 445 1289 357 1343 351 c 1
 1498 338 1628 562 1637 819 c 1
 1654 1165 1497 1467 1071 1467 c 0
 620 1467 365 1120 347 634 c 1
 322 182 542 -83 996 -83 c 0
 1104 -83 1253 -61 1381 -21 c 1
 1421 -208 l 1
 1269 -249 1114 -275 969 -275 c 0xef
955 406 m 1
 994 414 1061 451 1082 552 c 1
 1149 1024 l 1
 1140 1036 1113 1040 1098 1040 c 0xdf
 935 1040 816 822 816 597 c 1
 815 491 854 392 955 406 c 1
EndSplineSet
EndChar

StartChar: b
Encoding: 495 98 239
Width: 978
VWidth: 0
Flags: W
HStem: -19 201<468.481 714.5> 0 21G<110 390> 1008 194<470.641 583.713> 1638 20G<110 390>
VStem: 110 280<0 87 196.19 988.609 1094 1658> 611 280<202.501 984.838>
LayerCount: 2
Fore
SplineSet
611 -19 m 0xbc
 528 -19 452 27 390 87 c 1
 390 0 l 1
 110 0 l 1x7c
 110 1658 l 1
 390 1658 l 1
 390 1094 l 1
 455 1159 536 1203 629 1202 c 0
 849 1200 891 950 891 802 c 2
 891 414 l 2
 891 183 818 -19 611 -19 c 0xbc
514 182 m 0xbc
 601 182 611 287 611 405 c 2
 611 813 l 2
 611 914 594 1010 507 1008 c 0
 466 1007 425 988 390 962 c 1
 390 219 l 1
 424 197 465 182 514 182 c 0xbc
EndSplineSet
EndChar

StartChar: backslash
Encoding: 496 92 240
Width: 812
VWidth: 0
Flags: W
HStem: 0 21G<537.331 737> 1638 20G<73 273.657>
VStem: 73 664
LayerCount: 2
Fore
SplineSet
543 0 m 1
 73 1658 l 1
 268 1658 l 1
 737 0 l 1
 543 0 l 1
EndSplineSet
EndChar

StartChar: bar
Encoding: 497 124 241
Width: 518
VWidth: 0
Flags: W
HStem: 1639 20G<137.98 381>
VStem: 136 244<-333 1658>
LayerCount: 2
Fore
SplineSet
136 -333 m 1
 138 1659 l 1
 381 1658 l 1
 380 -333 l 1
 136 -333 l 1
EndSplineSet
EndChar

StartChar: braceleft
Encoding: 498 123 242
Width: 695
VWidth: 0
Flags: W
HStem: -403 197<522.572 639> 542 196<89 191.841> 1486 197<522.572 639>
VStem: 214 277<-180.975 523.113 756.887 1460.97>
LayerCount: 2
Fore
SplineSet
639 -403 m 1
 246 -403 214 -326 214 21 c 2
 214 260 l 2
 214 513 201 542 89 542 c 1
 89 738 l 1
 201 738 214 767 214 1020 c 2
 214 1259 l 2
 214 1606 246 1683 639 1683 c 1
 639 1486 l 1
 499 1486 491 1460 491 1251 c 2
 491 985 l 2
 491 768 442 665 333 640 c 1
 442 615 491 512 491 295 c 2
 491 29 l 2
 491 -180 499 -206 639 -206 c 1
 639 -403 l 1
EndSplineSet
EndChar

StartChar: braceright
Encoding: 499 125 243
Width: 727
VWidth: 0
Flags: W
HStem: -403 197<88 204.428> 542 196<535.159 638> 1486 197<88 204.428>
VStem: 236 277<-180.975 523.113 756.887 1460.97>
LayerCount: 2
Fore
SplineSet
88 -403 m 1
 88 -206 l 1
 228 -206 236 -180 236 29 c 2
 236 295 l 2
 236 512 285 615 394 640 c 1
 285 665 236 768 236 985 c 2
 236 1251 l 2
 236 1460 228 1486 88 1486 c 1
 88 1683 l 1
 481 1683 513 1606 513 1259 c 2
 513 1020 l 2
 513 767 526 738 638 738 c 1
 638 542 l 1
 526 542 513 513 513 260 c 2
 513 21 l 2
 513 -326 481 -403 88 -403 c 1
EndSplineSet
EndChar

StartChar: bracketleft
Encoding: 500 91 244
Width: 703
VWidth: 0
Flags: W
HStem: -386 124<365 610> 1534 124<366 611>
VStem: 117 248<-262 1534>
LayerCount: 2
Fore
SplineSet
117 -386 m 1
 118 1658 l 1
 611 1658 l 1
 611 1534 l 1
 366 1534 l 1
 365 -262 l 1
 610 -262 l 1
 610 -386 l 1
 117 -386 l 1
EndSplineSet
EndChar

StartChar: bracketright
Encoding: 501 93 245
Width: 655
VWidth: 0
Flags: W
HStem: -386 124<45 290> 1534 124<45 289>
VStem: 290 248<-262 1534>
LayerCount: 2
Fore
SplineSet
45 -386 m 1
 45 -262 l 1
 290 -262 l 1
 289 1534 l 1
 45 1534 l 1
 45 1658 l 1
 538 1658 l 1
 538 -386 l 1
 45 -386 l 1
EndSplineSet
EndChar

StartChar: breve
Encoding: 502 728 246
Width: 690
VWidth: 0
Flags: W
HStem: 1368 134<235.927 442.491> 1638 20G<69 210 468 610>
VStem: 69 141<1523.85 1658> 468 142<1528.42 1658>
LayerCount: 2
Fore
SplineSet
339 1368 m 0
 137 1368 69 1490 69 1658 c 1
 210 1658 l 1
 210 1547 242 1502 339 1502 c 0
 436 1502 468 1548 468 1658 c 1
 610 1658 l 1
 610 1489 543 1368 339 1368 c 0
EndSplineSet
EndChar

StartChar: brokenbar
Encoding: 503 166 247
Width: 442
VWidth: 0
Flags: W
HStem: 1638 20G<117 325>
VStem: 117 208<-333 502 823 1658>
LayerCount: 2
Fore
SplineSet
117 -333 m 1
 117 502 l 1
 325 502 l 1
 325 -333 l 1
 117 -333 l 1
117 823 m 1
 117 1658 l 1
 325 1658 l 1
 325 823 l 1
 117 823 l 1
EndSplineSet
EndChar

StartChar: bullet
Encoding: 504 8226 248
Width: 866
VWidth: 0
Flags: W
HStem: 474 619<268.426 594.606>
VStem: 133 598<610.79 954.474>
LayerCount: 2
Fore
SplineSet
431 474 m 0
 262 474 133 586 133 782 c 0
 133 981 262 1093 431 1093 c 0
 601 1093 731 979 731 782 c 0
 731 586 601 474 431 474 c 0
EndSplineSet
EndChar

StartChar: c
Encoding: 505 99 249
Width: 899
VWidth: 0
Flags: W
HStem: -19 200<386.73 541.613> 1003 199<386.805 542.127>
VStem: 85 280<198.865 985.671> 561 261<200.223 463 741 988.731>
AnchorPoint: "cedilla" 380 0 basechar 0
LayerCount: 2
Fore
SplineSet
462 -19 m 0
 182 -19 85 150 85 421 c 2
 85 764 l 2
 85 1035 183 1202 462 1202 c 0
 718 1202 822 1082 822 837 c 2
 822 741 l 1
 561 741 l 1
 561 842 l 2
 561 962 536 1003 465 1003 c 0
 386 1003 365 955 365 805 c 2
 365 373 l 2
 365 218 394 181 465 181 c 0
 544 181 561 241 561 336 c 2
 561 463 l 1
 822 463 l 1
 822 351 l 2
 822 110 713 -19 462 -19 c 0
EndSplineSet
EndChar

StartChar: caron
Encoding: 507 711 251
Width: 760
VWidth: 0
Flags: W
HStem: 1291 367<242 268 491 516>
VStem: 65 630
LayerCount: 2
Fore
SplineSet
242 1291 m 1
 65 1658 l 1
 268 1658 l 1
 379 1427 l 1
 491 1658 l 1
 695 1658 l 1
 516 1291 l 1
 242 1291 l 1
EndSplineSet
EndChar

StartChar: cedilla
Encoding: 512 184 256
Width: 547
VWidth: 0
Flags: W
HStem: -504 129<81 318.997> -204 204<139 259.028>
VStem: 139 121<-131.833 0> 322 194<-376.291 -248.817>
AnchorPoint: "cedilla" 120 0 mark 0
LayerCount: 2
Fore
SplineSet
81 -504 m 1
 81 -375 l 1
 170 -401 320 -402 322 -325 c 1
 323 -243 223 -220 139 -204 c 1
 139 0 l 1
 260 0 l 1
 260 -126 l 1
 388 -138 512 -203 516 -316 c 0
 523 -516 285 -566 81 -504 c 1
EndSplineSet
EndChar

StartChar: cent
Encoding: 513 162 257
Width: 857
VWidth: 0
Flags: W
HStem: -15 200<386.325 397 475 539.889> 1000 199<386.325 397 475 540.813>
VStem: 83 280<205.096 978.99> 397 78<-201 -18 1201 1383> 559 261<202.927 463 741 986.438>
LayerCount: 2
Fore
SplineSet
397 -201 m 1
 397 -15 l 1
 167 9 83 171 83 421 c 2
 83 764 l 2
 83 1013 167 1174 397 1199 c 1
 397 1383 l 1
 475 1383 l 1
 475 1201 l 1
 723 1197 820 1078 820 837 c 2
 820 741 l 1
 559 741 l 1
 559 839 l 2
 559 959 534 1000 463 1000 c 0
 384 1000 363 952 363 801 c 2
 363 376 l 2
 363 221 392 185 464 185 c 0
 542 185 559 244 559 339 c 2
 559 463 l 1
 820 463 l 1
 820 351 l 2
 820 115 719 -14 475 -18 c 1
 475 -201 l 1
 397 -201 l 1
EndSplineSet
EndChar

StartChar: circumflex
Encoding: 514 710 258
Width: 762
VWidth: 0
Flags: W
HStem: 1266 392<257 280 490 511>
VStem: 73 625
LayerCount: 2
Fore
SplineSet
73 1266 m 1
 257 1658 l 1
 511 1658 l 1
 698 1266 l 1
 490 1266 l 1
 385 1526 l 1
 280 1266 l 1
 73 1266 l 1
EndSplineSet
EndChar

StartChar: colon
Encoding: 515 58 259
Width: 476
VWidth: 0
Flags: W
HStem: 166 269<126 396> 843 270<126 396>
VStem: 126 270<166 435 843 1113>
LayerCount: 2
Fore
SplineSet
126 166 m 1
 126 435 l 1
 396 435 l 1
 396 166 l 1
 126 166 l 1
126 843 m 1
 126 1113 l 1
 396 1113 l 1
 396 843 l 1
 126 843 l 1
EndSplineSet
EndChar

StartChar: comma
Encoding: 516 44 260
Width: 430
VWidth: 0
Flags: W
HStem: -281 105<119.904 172.061> 0 271<81 228>
VStem: 81 275<3.09445 271> 228 128<-120.552 0>
LayerCount: 2
Fore
SplineSet
124 -281 m 1xe0
 94 -176 l 1
 168 -157 228 -98 228 0 c 1xd0
 81 0 l 1
 81 271 l 1
 356 271 l 1
 356 19 l 2
 356 -153 279 -250 124 -281 c 1xe0
EndSplineSet
EndChar

StartChar: copyright
Encoding: 517 169 261
Width: 1784
VWidth: 0
Flags: W
HStem: -24 89<644.38 1156.21> 254 203<810.763 983.051> 1238 202<810.864 984.431> 1608 92<635.163 1165.05>
VStem: 72 105<550.731 1125.87> 481 302<484.677 1210.46> 1008 282<476.291 712 989 1215.58> 1616 96<550.319 1125.87>
CounterMasks: 2 f0 0f
LayerCount: 2
Fore
SplineSet
895 254 m 0
 587 254 481 425 481 701 c 2
 481 995 l 2
 481 1270 588 1440 895 1440 c 0
 1177 1440 1290 1319 1290 1071 c 2
 1290 989 l 1
 1008 989 l 1
 1008 1072 l 2
 1008 1195 977 1238 898 1238 c 0
 811 1238 783 1188 783 1034 c 2
 783 654 l 2
 783 494 820 457 899 457 c 0
 986 457 1008 519 1008 616 c 2
 1008 712 l 1
 1290 712 l 1
 1290 629 l 2
 1290 385 1171 254 895 254 c 0
897 65 m 0
 1396 65 1616 451 1616 838 c 0
 1616 1227 1396 1608 897 1608 c 0
 396 1608 177 1227 177 838 c 0
 177 451 396 65 897 65 c 0
893 -24 m 0
 309 -24 72 424 72 838 c 0
 72 1254 309 1700 893 1700 c 0
 1475 1700 1712 1254 1712 838 c 0
 1712 422 1477 -24 893 -24 c 0
EndSplineSet
EndChar

StartChar: currency
Encoding: 518 164 262
Width: 1138
VWidth: 0
Flags: W
HStem: 428 93<407.785 730.89> 1211 93<407.785 730.89>
VStem: 136 99<693.746 1038.64> 904 98<693.746 1038.64>
LayerCount: 2
Fore
SplineSet
114 381 m 1
 84 411 l 1
 247 573 l 1
 178 650 136 754 136 866 c 0
 136 979 178 1082 247 1159 c 1
 84 1321 l 1
 114 1351 l 1
 276 1189 l 1
 352 1261 455 1305 569 1304 c 1
 683 1305 786 1261 862 1189 c 1
 1024 1351 l 1
 1054 1321 l 1
 892 1159 l 1
 960 1082 1002 979 1002 866 c 0
 1002 754 960 650 891 573 c 1
 1054 411 l 1
 1024 381 l 1
 862 543 l 1
 786 471 683 427 569 428 c 1
 455 427 352 471 276 543 c 1
 114 381 l 1
569 521 m 0
 759 521 904 677 904 866 c 0
 904 1056 759 1211 569 1211 c 0
 380 1211 235 1056 235 866 c 0
 235 677 380 521 569 521 c 0
EndSplineSet
EndChar

StartChar: d
Encoding: 519 100 263
Width: 969
VWidth: 0
Flags: W
HStem: -19 200<281 514.861> 0 21G<582 862> 1005 197<263 520.988> 1638 20G<582 862>
VStem: 87 281<205.453 974.888> 582 280<0 81 193.207 991.699 1111 1658>
LayerCount: 2
Fore
SplineSet
376 -19 m 1xbc
 186 -19 87 107 87 411 c 2
 87 755 l 2
 87 996 154 1202 372 1202 c 0
 453 1202 525 1164 582 1111 c 1
 582 1658 l 1
 862 1658 l 1
 862 0 l 1
 582 0 l 1x7c
 582 81 l 1
 522 19 452 -18 376 -19 c 1xbc
474 181 m 0xbc
 504 181 543 191 582 213 c 1
 582 969 l 1
 549 990 511 1005 473 1005 c 0
 392 1005 368 917 368 824 c 2
 368 390 l 2
 368 277 384 181 474 181 c 0xbc
EndSplineSet
EndChar

StartChar: dagger
Encoding: 520 8224 264
Width: 810
VWidth: 0
Flags: W
HStem: 0 21G<282 531> 1059 192<81 282 531 731>
VStem: 282 249<0 1059 1251 1653>
LayerCount: 2
Fore
SplineSet
282 0 m 1
 282 1059 l 1
 81 1059 l 1
 81 1251 l 1
 282 1251 l 1
 282 1653 l 1
 531 1653 l 1
 531 1251 l 1
 731 1251 l 1
 731 1059 l 1
 531 1059 l 1
 531 0 l 1
 282 0 l 1
EndSplineSet
EndChar

StartChar: daggerdbl
Encoding: 521 8225 265
Width: 810
VWidth: 0
Flags: W
HStem: 0 21G<285 529> 505 170<68 285 529 744> 1010 174<68 285 529 744>
VStem: 285 244<0 505 675 1010 1184 1654>
LayerCount: 2
Fore
SplineSet
285 0 m 1
 285 505 l 1
 68 505 l 1
 68 675 l 1
 285 675 l 1
 285 1010 l 1
 68 1010 l 1
 68 1184 l 1
 285 1184 l 1
 285 1654 l 1
 529 1654 l 1
 529 1184 l 1
 744 1184 l 1
 744 1010 l 1
 529 1010 l 1
 529 675 l 1
 744 675 l 1
 744 505 l 1
 529 505 l 1
 529 0 l 1
 285 0 l 1
EndSplineSet
EndChar

StartChar: dcroat
Encoding: 523 273 267
Width: 979
VWidth: 0
Flags: W
HStem: -19 200<278.5 510.738> 0 21G<578 858> 1005 197<260 517.309> 1390 131<324 578 858 970> 1638 20G<578 858>
VStem: 85 280<205.453 974.888> 578 280<0 81 192.593 991.699 1111 1390 1521 1658>
LayerCount: 2
Fore
SplineSet
374 -19 m 1xbe
 183 -19 85 107 85 411 c 2
 85 755 l 2
 85 996 151 1202 369 1202 c 0
 451 1202 520 1164 578 1111 c 1
 578 1390 l 1
 324 1390 l 1
 324 1521 l 1
 578 1521 l 1
 578 1658 l 1
 858 1658 l 1
 858 1521 l 1
 970 1521 l 1
 970 1390 l 1
 858 1390 l 1
 858 0 l 1
 578 0 l 1x7e
 578 81 l 1
 518 19 450 -18 374 -19 c 1xbe
472 181 m 0xbe
 501 181 539 191 578 213 c 1
 578 969 l 1
 545 990 508 1005 470 1005 c 0
 389 1005 365 917 365 824 c 2
 365 390 l 2
 365 277 381 181 472 181 c 0xbe
EndSplineSet
EndChar

StartChar: degree
Encoding: 524 176 268
Width: 1017
VWidth: 0
Flags: W
HStem: 921 169<384.956 631.136> 1508 169<385.142 630.951>
VStem: 128 192<1158.91 1440.72> 696 194<1158.71 1440.72>
LayerCount: 2
Fore
SplineSet
508 1090 m 0
 630 1090 696 1178 696 1300 c 0
 696 1422 630 1508 508 1508 c 0
 386 1508 320 1422 320 1300 c 0
 320 1178 386 1090 508 1090 c 0
508 921 m 0
 273 921 128 1070 128 1300 c 0
 128 1531 274 1677 508 1677 c 0
 742 1677 890 1531 890 1300 c 0
 890 1069 743 921 508 921 c 0
EndSplineSet
EndChar

StartChar: dieresis
Encoding: 525 168 269
Width: 847
VWidth: 0
Flags: W
HStem: 1392 266<101 352 494 746>
VStem: 101 251<1392 1658> 494 252<1392 1658>
LayerCount: 2
Fore
SplineSet
101 1392 m 1
 101 1658 l 1
 352 1658 l 1
 352 1392 l 1
 101 1392 l 1
494 1392 m 1
 494 1658 l 1
 746 1658 l 1
 746 1392 l 1
 494 1392 l 1
EndSplineSet
EndChar

StartChar: divide
Encoding: 526 247 270
Width: 809
VWidth: 0
Flags: W
HStem: 349 245<310 506> 760 174<50 759> 1080 245<310 506>
VStem: 310 196<349 594 1080 1325>
LayerCount: 2
Fore
SplineSet
310 349 m 1
 310 594 l 1
 506 594 l 1
 506 349 l 1
 310 349 l 1
50 760 m 1
 50 934 l 1
 759 934 l 1
 759 760 l 1
 50 760 l 1
310 1080 m 1
 310 1325 l 1
 506 1325 l 1
 506 1080 l 1
 310 1080 l 1
EndSplineSet
EndChar

StartChar: dollar
Encoding: 527 36 271
Width: 1009
VWidth: 0
Flags: W
HStem: -19 231<408.211 495 580 610.014>
VStem: 63 264<311.824 486> 66 282<1144.88 1410.54> 460 87<1673.17 1830> 495 85<-182 -19> 650 289<241.928 531.638> 651 259<1226.18 1391.23>
LayerCount: 2
Fore
SplineSet
495 -182 m 1xac
 495 -19 l 1
 212 -9 77 173 63 486 c 1
 327 541 l 1
 332 352 379 212 515 212 c 0
 611 212 650 277 650 367 c 0xcc
 650 512 577 587 473 678 c 2
 256 867 l 2
 140 969 66 1075 66 1268 c 0
 66 1517 219 1662 460 1676 c 1
 460 1830 l 1
 547 1830 l 1
 547 1676 l 1
 817 1657 893 1458 910 1229 c 1
 651 1178 l 1xb2
 645 1327 622 1459 486 1450 c 1
 395 1445 348 1386 348 1297 c 0
 348 1181 401 1123 477 1055 c 1
 693 867 l 1
 824 750 939 607 939 387 c 0
 939 165 797 7 580 -17 c 1
 580 -182 l 1
 495 -182 l 1xac
EndSplineSet
EndChar

StartChar: dotlessi
Encoding: 529 305 273
Width: 517
VWidth: 0
Flags: W
HStem: 0 21G<123 402> 1164 20G<123 402>
VStem: 123 279<0 1184>
LayerCount: 2
Fore
SplineSet
123 0 m 1
 123 1184 l 1
 402 1184 l 1
 402 0 l 1
 123 0 l 1
EndSplineSet
EndChar

StartChar: e
Encoding: 530 101 274
Width: 915
VWidth: 0
Flags: W
HStem: -19 204<388.558 543.309> 578 140<363 565> 999 203<387.846 542.75>
VStem: 85 278<206.764 578 718 977.557> 565 266<207.559 407 718 981.991>
AnchorPoint: "ogonek" 521 0 basechar 0
LayerCount: 2
UndoRedoHistory
Layer: 1
Undoes
EndUndoes
Redoes
EndRedoes
EndUndoRedoHistory
Fore
SplineSet
466 -19 m 0
 186 -19 85 144 85 424 c 2
 85 759 l 2
 85 1042 191 1202 465 1202 c 0
 754 1202 831 1027 831 733 c 2
 831 578 l 1
 363 578 l 1
 363 400 l 2
 363 283 365 185 465 185 c 0
 545 185 565 247 565 339 c 2
 565 407 l 5
 830 407 l 5
 830 360 l 2
 830 118 710 -19 466 -19 c 0
363 718 m 1
 565 718 l 1
 565 831 l 2
 565 947 541 999 463 999 c 0
 384 999 363 948 363 795 c 2
 363 718 l 1
EndSplineSet
EndChar

StartChar: eight
Encoding: 538 56 282
Width: 1025
VWidth: 0
Flags: W
HStem: -21 216<411.944 613.423> 742 247<426.472 597.022> 1461 216<423.261 600.092>
VStem: 80 275<252.508 678.829> 105 272<1038.21 1412.42> 645 272<1037.89 1418.99> 668 276<252.072 682.542>
CounterMasks: 1 e0
LayerCount: 2
Fore
SplineSet
513 -21 m 0xe2
 195 -21 79 178 80 482 c 0xf2
 81 670 147 801 275 874 c 1
 179 946 107 1057 105 1239 c 0
 102 1512 239 1677 513 1677 c 0
 787 1677 920 1510 917 1239 c 0xec
 915 1057 845 945 749 874 c 1
 874 800 943 670 944 482 c 0
 947 177 831 -21 513 -21 c 0xe2
513 195 m 0
 651 195 668 341 668 468 c 0
 668 604 642 742 513 742 c 0
 383 742 355 604 355 468 c 0
 355 338 374 195 513 195 c 0
513 989 m 0
 615 989 645 1108 645 1251 c 0
 645 1366 610 1461 513 1461 c 0
 413 1461 377 1367 377 1252 c 0xec
 377 1108 408 989 513 989 c 0
EndSplineSet
EndChar

StartChar: ellipsis
Encoding: 539 8230 283
Width: 1238
VWidth: 0
Flags: W
HStem: 0 277<66 337 482 753 901 1173>
VStem: 66 271<0 277> 482 271<0 277> 901 272<0 278>
CounterMasks: 1 70
LayerCount: 2
Fore
SplineSet
66 0 m 1
 66 277 l 1
 337 277 l 1
 337 0 l 1
 66 0 l 1
482 0 m 1
 482 277 l 1
 753 277 l 1
 753 0 l 1
 482 0 l 1
901 0 m 1
 901 278 l 1
 1173 278 l 1
 1173 0 l 1
 901 0 l 1
EndSplineSet
EndChar

StartChar: emdash
Encoding: 541 8212 285
Width: 2047
VWidth: 0
Flags: W
HStem: 610 196<1 2046>
LayerCount: 2
Fore
SplineSet
1 610 m 1
 1 806 l 1
 2046 806 l 1
 2046 610 l 1
 1 610 l 1
EndSplineSet
EndChar

StartChar: endash
Encoding: 542 8211 286
Width: 1024
VWidth: 0
Flags: W
HStem: 510 200<1 1023>
LayerCount: 2
Fore
SplineSet
1 510 m 1
 1 710 l 1
 1023 710 l 1
 1023 510 l 1
 1 510 l 1
EndSplineSet
EndChar

StartChar: eng
Encoding: 543 331 287
Width: 872
VWidth: 0
Flags: W
HStem: -392 192<334 526.25> 0 21G<87 367> 993 209<482.84 562.406> 1164 20G<87 367>
VStem: 87 280<0 967.291 1074 1184> 570 280<-152.889 987.572>
LayerCount: 2
Fore
SplineSet
334 -392 m 1xec
 334 -200 l 1
 532 -200 570 -148 570 -10 c 2
 570 884 l 2
 570 951 557 994 491 993 c 0xec
 454 992 409 970 367 939 c 1
 367 0 l 1
 87 0 l 1
 87 1184 l 1
 367 1184 l 1xdc
 367 1074 l 1
 450 1152 544 1202 656 1202 c 0
 801 1202 850 1073 850 946 c 2
 850 -12 l 2
 850 -271 708 -392 428 -392 c 2
 334 -392 l 1xec
EndSplineSet
EndChar

StartChar: equal
Encoding: 545 61 289
Width: 879
VWidth: 0
Flags: W
HStem: 542 189<119 760> 918 190<119 760>
VStem: 119 641<542 731 918 1108>
LayerCount: 2
Fore
SplineSet
119 542 m 1
 119 731 l 1
 760 731 l 1
 760 542 l 1
 119 542 l 1
119 918 m 1
 119 1108 l 1
 760 1108 l 1
 760 918 l 1
 119 918 l 1
EndSplineSet
EndChar

StartChar: estimated
Encoding: 546 8494 290
Width: 910
VWidth: 0
Flags: W
HStem: -19 78<384.199 630.236> 578 82<342 602> 1119 83<375.465 569.778>
VStem: 84 258<148.648 578 660 1034.81> 602 229<660 1052.71> 665 164<99.5547 433>
CounterMasks: 2 e0 1c
LayerCount: 2
Fore
SplineSet
487 -19 m 0xf4
 207 -19 84 101 84 381 c 2
 84 799 l 2
 84 1082 197 1202 471 1202 c 0
 760 1202 831 1067 831 773 c 2
 831 578 l 1xf8
 342 578 l 1
 342 284 l 2
 342 138 347 59 509 59 c 0
 660 59 665 138 665 277 c 2
 665 433 l 1
 829 433 l 1
 829 310 l 2
 829 68 740 -19 487 -19 c 0xf4
342 660 m 1
 602 660 l 1
 602 920 l 2
 602 1036 586 1119 472 1119 c 0
 356 1119 342 1040 342 887 c 2
 342 660 l 1
EndSplineSet
EndChar

StartChar: eth
Encoding: 547 240 291
Width: 1016
VWidth: 0
Flags: W
HStem: -22 202<415.136 593.642> 958 204<431.952 605.525> 1519 178<221 458.12>
VStem: 107 277<211.829 908.597> 629 279<216.857 941.455>
LayerCount: 2
Fore
SplineSet
908 465 m 2
 908 136 764 -22 495 -22 c 0
 212 -22 107 138 107 448 c 2
 107 674 l 2
 107 948 200 1162 446 1162 c 0
 531 1162 589 1132 627 1102 c 1
 621 1211 598 1307 564 1354 c 1
 346 1269 l 1
 330 1373 l 1
 506 1441 l 1
 460 1489 378 1519 209 1519 c 1
 221 1697 l 1
 478 1697 626 1642 714 1533 c 1
 934 1617 l 1
 950 1512 l 1
 774 1447 l 1
 834 1336 908 1098 908 841 c 2
 908 465 l 2
384 592 m 0
 384 361 352 180 500 180 c 0
 613 180 629 272 629 395 c 2
 629 907 l 1
 614 920 582 958 516 958 c 0
 408 958 384 853 384 592 c 0
EndSplineSet
EndChar

StartChar: exclam
Encoding: 548 33 292
Width: 471
VWidth: 0
Flags: W
HStem: 0 270<95 366>
VStem: 95 271<0 270> 182 98<384 573.952>
LayerCount: 2
Fore
SplineSet
95 0 m 1xc0
 95 270 l 1
 366 270 l 1
 366 0 l 1
 95 0 l 1xc0
182 384 m 1xa0
 97 1656 l 1
 376 1656 l 1
 280 384 l 1
 182 384 l 1xa0
EndSplineSet
EndChar

StartChar: exclamdown
Encoding: 549 161 293
Width: 453
VWidth: 0
Flags: W
HStem: -339 21G<87 365> 1047 270<97 368>
VStem: 97 271<1047 1317> 183 97<743.048 933>
LayerCount: 2
Fore
SplineSet
87 -339 m 1xd0
 183 933 l 1
 280 933 l 1
 365 -339 l 1
 87 -339 l 1xd0
97 1047 m 1xe0
 97 1317 l 1
 368 1317 l 1
 368 1047 l 1
 97 1047 l 1xe0
EndSplineSet
EndChar

StartChar: f
Encoding: 550 102 294
Width: 624
VWidth: 0
Flags: W
HStem: 0 21G<165 444> 985 199<37 165 444 610> 1398 209<329.466 610>
VStem: 165 279<0 985 1184 1388.14>
LayerCount: 2
Fore
SplineSet
165 0 m 1
 165 985 l 1
 37 985 l 1
 37 1184 l 1
 165 1184 l 1
 165 1247 l 2
 165 1468 202 1607 457 1607 c 0
 512 1607 549 1603 610 1596 c 1
 610 1388 l 1
 588 1390 557 1398 534 1398 c 0
 464 1398 444 1350 444 1275 c 2
 444 1184 l 1
 610 1184 l 1
 610 985 l 1
 444 985 l 1
 444 0 l 1
 165 0 l 1
EndSplineSet
EndChar

StartChar: five
Encoding: 551 53 295
Width: 1021
VWidth: 0
Flags: W
HStem: -23 218<432.674 628.138> 881 210<423.31 620.217> 1399 259<380 890>
VStem: 99 279<248.829 479> 124 244<737 826.526 1008 1399> 679 275<251.457 825.195>
CounterMasks: 1 e0
LayerCount: 2
Fore
SplineSet
520 -23 m 0xec
 187 -23 99 173 99 479 c 1
 378 479 l 1xf4
 378 321 394 193 531 195 c 0
 678 197 679 352 679 564 c 0
 679 749 666 881 525 881 c 0
 443 881 390 818 368 737 c 1
 124 737 l 1
 137 1658 l 1
 890 1658 l 1
 890 1399 l 1
 380 1399 l 1
 363 1008 l 1
 406 1056 488 1088 584 1091 c 1
 849 1103 954 896 954 587 c 0
 954 244 880 -23 520 -23 c 0xec
EndSplineSet
EndChar

StartChar: florin
Encoding: 552 402 296
Width: 851
VWidth: 0
Flags: W
HStem: -293 209<39.562 195.006> 981 203<188 312 613 756> 1398 209<644.326 799.46>
LayerCount: 2
Fore
SplineSet
170 -293 m 0
 116 -293 79 -289 20 -282 c 1
 40 -74 l 1
 61 -78 93 -84 115 -84 c 0
 185 -84 210 -36 218 40 c 2
 312 981 l 1
 188 981 l 1
 188 1184 l 1
 333 1184 l 1
 340 1255 l 2
 362 1473 415 1607 669 1607 c 0
 724 1607 760 1603 820 1596 c 1
 799 1388 l 1
 777 1390 748 1398 725 1398 c 0
 655 1398 629 1350 622 1275 c 2
 613 1184 l 1
 756 1184 l 1
 756 981 l 1
 592 981 l 1
 499 58 l 2
 477 -161 425 -293 170 -293 c 0
EndSplineSet
EndChar

StartChar: foundryicon
Encoding: 553 -1 297
Width: 1449
VWidth: 0
Flags: W
LayerCount: 2
Fore
SplineSet
298 254 m 1
 452 751 l 1
 32 1068 l 1
 556 1071 l 1
 720 1568 l 1
 892 1071 l 1
 1417 1071 l 1
 994 751 l 1
 1150 254 l 1
 720 554 l 1
 298 254 l 1
EndSplineSet
EndChar

StartChar: four
Encoding: 554 52 298
Width: 1044
VWidth: 0
Flags: W
HStem: 0 21G<560 828> 405 236<319 560 828 1000> 1639 20G<485.512 828>
VStem: 560 268<0 405 641 1344>
LayerCount: 2
Fore
SplineSet
560 0 m 1
 560 405 l 1
 73 405 l 1
 73 667 l 1
 494 1659 l 1
 828 1659 l 1
 828 641 l 1
 1000 641 l 1
 1000 405 l 1
 828 405 l 1
 828 0 l 1
 560 0 l 1
319 641 m 1
 560 641 l 1
 560 1344 l 1
 319 641 l 1
EndSplineSet
EndChar

StartChar: fraction
Encoding: 555 8260 299
Width: 559
VWidth: 0
Flags: W
HStem: 0 21G<13 236.776> 1638 20G<323.212 546>
VStem: 13 533
LayerCount: 2
Fore
SplineSet
13 0 m 1
 327 1658 l 1
 546 1658 l 1
 233 0 l 1
 13 0 l 1
EndSplineSet
EndChar

StartChar: g
Encoding: 556 103 300
Width: 950
VWidth: 0
Flags: W
HStem: -359 197<310.728 665.015> 363 181<378.249 546.237> 1022 180<375.101 546.227>
VStem: 45 250<-252.5 -19.3998> 89 260<568.932 997.439> 572 250<566.532 995.95> 680 217<-141.154 15.3143>
LayerCount: 2
Fore
SplineSet
516 -359 m 0xe2
 308 -359 45 -347 45 -158 c 0xf2
 45 -40 130 43 212 93 c 1
 122 124 89 172 85 226 c 0
 77 320 134 374 221 446 c 1
 139 508 89 596 89 772 c 0
 89 1068 224 1202 457 1202 c 0
 578 1202 664 1164 711 1086 c 1
 734 1114 798 1175 871 1211 c 1
 910 1229 l 1
 976 1073 l 1
 932 1062 809 1016 775 995 c 1
 799 951 822 858 822 769 c 0xec
 822 526 726 363 467 363 c 0
 426 363 341 378 322 386 c 1
 306 362 288 334 290 308 c 0
 292 279 324 265 394 258 c 1
 416 254 571 240 610 235 c 0
 811 214 897 120 897 -53 c 0
 897 -257 795 -359 516 -359 c 0xe2
514 -162 m 0
 629 -162 678 -135 680 -69 c 1
 684 1 651 31 544 40 c 1
 356 58 l 1
 337 36 295 -17 295 -73 c 0
 295 -133 328 -162 514 -162 c 0
460 544 m 0
 558 544 572 617 572 780 c 0
 572 944 562 1022 462 1022 c 0
 361 1022 349 945 349 780 c 0xec
 349 633 363 544 460 544 c 0
EndSplineSet
EndChar

StartChar: gcommaaccent
Encoding: 559 291 303
Width: 901
VWidth: 0
Flags: W
HStem: -373 161<319.547 683.715> 373 157<390.959 582.985> 1047 158<395.684 582.837> 1487 268<526 673> 1939 79<591.758 639.722>
VStem: 34 252<-175.393 -25.5617> 76 271<578.778 993.867> 412 261<1487 1751.24> 412 114<1755 1877.32> 627 258<575.902 979.289>
LayerCount: 2
Fore
SplineSet
499 -373 m 0xfa40
 297 -373 34 -332 34 -139 c 0xfc40
 34 -42 138 46 223 103 c 1
 133 136 71 169 63 216 c 0
 47 310 139 404 214 471 c 1
 122 536 76 642 76 778 c 0
 76 1036 221 1205 480 1205 c 0
 606 1205 702 1153 756 1086 c 1
 799 1143 858 1197 917 1226 c 2
 957 1245 l 1
 1021 1115 l 1
 972 1100 888 1050 827 1003 c 1
 855 959 885 880 885 780 c 0
 885 538 762 373 502 373 c 0
 431 373 365 387 313 409 c 1
 281 366 239 309 243 275 c 1
 246 260 287 248 351 235 c 1
 423 219 511 206 607 190 c 1
 844 147 932 70 932 -83 c 0
 932 -253 798 -373 499 -373 c 0xfa40
412 1487 m 1xf9
 412 1709 l 1xf9
 413 1896 485 1996 637 2018 c 1
 652 1939 l 1
 582 1907 526 1851 526 1755 c 1xf880
 673 1755 l 1
 673 1487 l 1
 412 1487 l 1xf9
499 -212 m 0
 627 -212 712 -182 717 -106 c 1
 725 -27 685 7 540 35 c 1
 390 60 l 1
 347 22 286 -33 286 -99 c 0xfc
 286 -177 364 -212 499 -212 c 0
487 530 m 0
 612 530 627 656 627 792 c 0
 627 927 609 1047 485 1047 c 0
 361 1047 347 906 347 792 c 0xfa40
 347 662 362 530 487 530 c 0
EndSplineSet
EndChar

StartChar: germandbls
Encoding: 561 223 305
Width: 1085
VWidth: 0
Flags: W
HStem: -23 222<495 650.382> 0 21G<107 387> 736 223<502 601.351> 1466 212<428.912 622.642>
VStem: 107 280<0 1429> 669 255<1032.1 1417.82> 717 279<273.288 641.938>
LayerCount: 2
Fore
SplineSet
495 -23 m 1xba
 495 199 l 1
 666 199 723 283 717 486 c 1xba
 714 636 636 736 502 736 c 1
 501 959 l 1
 623 959 669 1083 669 1237 c 0
 669 1376 633 1466 523 1466 c 0
 411 1466 386 1372 387 1244 c 1
 387 0 l 1
 107 0 l 1
 107 1241 l 1
 108 1479 222 1678 493 1678 c 0
 788 1678 924 1517 924 1239 c 0x7c
 924 1060 855 945 705 873 c 1
 886 822 996 671 996 469 c 0
 996 131 825 -23 495 -23 c 1xba
EndSplineSet
EndChar

StartChar: grave
Encoding: 562 96 306
Width: 610
VWidth: 0
Flags: W
HStem: 1249 409<350 387>
VStem: 103 405
LayerCount: 2
Fore
SplineSet
350 1249 m 1
 103 1658 l 1
 387 1658 l 1
 508 1249 l 1
 350 1249 l 1
EndSplineSet
EndChar

StartChar: gravecomb
Encoding: 563 768 307
Width: 208
VWidth: 0
Flags: W
HStem: 1249 409<202 239>
VStem: -45 405
LayerCount: 2
Fore
SplineSet
202 1249 m 1
 -45 1658 l 1
 239 1658 l 1
 360 1249 l 1
 202 1249 l 1
EndSplineSet
EndChar

StartChar: greater
Encoding: 564 62 308
Width: 789
VWidth: 0
Flags: W
VStem: 115 612
LayerCount: 2
Fore
SplineSet
115 121 m 1
 115 382 l 1
 521 673 l 1
 115 961 l 1
 115 1223 l 1
 727 795 l 1
 727 547 l 1
 115 121 l 1
EndSplineSet
EndChar

StartChar: greaterequal
Encoding: 565 8805 309
Width: 830
VWidth: 0
Flags: W
HStem: 6 172<108 757>
VStem: 115 642<1113 1285>
LayerCount: 2
Fore
SplineSet
115 273 m 1
 115 534 l 1
 521 825 l 1
 115 1113 l 1
 115 1375 l 1
 727 947 l 1
 727 699 l 1
 115 273 l 1
108 6 m 1
 108 178 l 1
 757 178 l 1
 757 6 l 1
 108 6 l 1
EndSplineSet
EndChar

StartChar: guillemotleft
Encoding: 566 171 310
Width: 970
VWidth: 0
Flags: W
LayerCount: 2
Fore
SplineSet
429 64 m 1
 66 541 l 1
 66 658 l 1
 429 1136 l 1
 429 827 l 1
 252 600 l 1
 429 372 l 1
 429 64 l 1
858 64 m 1
 493 541 l 1
 493 658 l 1
 858 1136 l 1
 858 827 l 1
 680 600 l 1
 858 372 l 1
 858 64 l 1
EndSplineSet
EndChar

StartChar: guillemotright
Encoding: 567 187 311
Width: 1010
VWidth: 0
Flags: W
LayerCount: 2
Fore
SplineSet
107 64 m 1
 107 372 l 1
 299 601 l 1
 107 827 l 1
 107 1136 l 1
 485 658 l 1
 485 541 l 1
 107 64 l 1
536 64 m 1
 536 372 l 1
 727 601 l 1
 536 827 l 1
 536 1136 l 1
 912 658 l 1
 912 541 l 1
 536 64 l 1
EndSplineSet
EndChar

StartChar: guilsinglleft
Encoding: 568 8249 312
Width: 558
VWidth: 0
Flags: W
VStem: 64 418
LayerCount: 2
Fore
SplineSet
482 52 m 1
 64 515 l 1
 64 658 l 1
 482 1123 l 1
 482 814 l 1
 254 588 l 1
 482 359 l 1
 482 52 l 1
EndSplineSet
EndChar

StartChar: guilsinglright
Encoding: 569 8250 313
Width: 577
VWidth: 0
Flags: W
VStem: 100 418
LayerCount: 2
Fore
SplineSet
100 133 m 1
 100 440 l 1
 332 669 l 1
 100 895 l 1
 100 1204 l 1
 518 726 l 1
 518 609 l 1
 100 133 l 1
EndSplineSet
EndChar

StartChar: h
Encoding: 570 104 314
Width: 980
VWidth: 0
Flags: W
HStem: 0 21G<112 391 600 879> 1182 20G<628.5 758.5> 1638 20G<112 391>
VStem: 112 279<0 964.083 1069 1658> 600 279<0 987.572>
LayerCount: 2
Fore
SplineSet
112 0 m 1
 112 1658 l 1
 391 1658 l 1
 391 1069 l 1
 475 1149 571 1202 686 1202 c 0
 831 1202 879 1073 879 946 c 2
 879 0 l 1
 600 0 l 1
 600 884 l 2
 600 951 587 994 521 993 c 0
 482 992 435 968 391 935 c 1
 391 0 l 1
 112 0 l 1
EndSplineSet
EndChar

StartChar: hbar
Encoding: 571 295 315
Width: 980
VWidth: 0
Flags: W
HStem: 0 21G<112 392 601 880> 1182 20G<629 759> 1395 141<-2 112 392 638> 1638 20G<112 392>
VStem: 112 280<0 964.083 1069 1395 1536 1658> 601 279<0 987.572>
LayerCount: 2
Fore
SplineSet
112 0 m 1
 112 1395 l 1
 -2 1395 l 1
 -2 1536 l 1
 112 1536 l 1
 112 1658 l 1
 392 1658 l 1
 392 1536 l 1
 638 1536 l 1
 638 1395 l 1
 392 1395 l 1
 392 1069 l 1
 476 1149 572 1202 686 1202 c 0
 832 1202 880 1073 880 946 c 2
 880 0 l 1
 601 0 l 1
 601 884 l 2
 601 951 588 994 522 993 c 0
 483 992 436 968 392 935 c 1
 392 0 l 1
 112 0 l 1
EndSplineSet
EndChar

StartChar: hungarumlaut
Encoding: 573 733 317
Width: 727
VWidth: 0
Flags: W
HStem: 1264 394<254 297 592 611>
LayerCount: 2
Fore
SplineSet
156 1264 m 1
 254 1658 l 1
 480 1658 l 1
 297 1264 l 1
 156 1264 l 1
467 1264 m 1
 592 1658 l 1
 853 1658 l 1
 611 1264 l 1
 467 1264 l 1
EndSplineSet
EndChar

StartChar: hyphen
Encoding: 574 45 318
Width: 723
VWidth: 0
Flags: W
HStem: 556 194<115 609>
VStem: 115 494<556 750>
LayerCount: 2
Fore
SplineSet
115 556 m 1
 115 750 l 1
 609 750 l 1
 609 556 l 1
 115 556 l 1
EndSplineSet
EndChar

StartChar: i
Encoding: 575 105 319
Width: 509
VWidth: 0
Flags: W
HStem: 0 21G<116 396> 1164 20G<116 396> 1371 236<116 397>
VStem: 116 280<0 1184 1371 1607>
AnchorPoint: "ogonek" 266 0 basechar 0
LayerCount: 2
Fore
SplineSet
116 0 m 1
 116 1184 l 1
 396 1184 l 1
 396 0 l 1
 116 0 l 1
116 1371 m 1
 116 1607 l 1
 397 1607 l 1
 397 1371 l 1
 116 1371 l 1
EndSplineSet
EndChar

StartChar: infinity
Encoding: 583 8734 327
Width: 1318
VWidth: 0
Flags: W
HStem: 203 228<266.445 458.112> 222 224<871.298 1049.02> 673 224<866.58 1049.02>
VStem: 49 192<454.564 664.953> 1073 196<464.464 654.853>
LayerCount: 2
Fore
SplineSet
356 203 m 0xb8
 148 203 49 369 49 560 c 0
 49 750 148 916 356 916 c 0
 496 916 593 833 671 744 c 1
 746 826 839 900 965 897 c 0
 1157 893 1269 751 1269 560 c 0
 1269 368 1157 226 965 222 c 0x78
 839 219 746 293 671 375 c 1
 593 286 496 203 356 203 c 0xb8
353 431 m 0xb8
 404 434 472 471 555 560 c 1
 472 648 407 685 353 688 c 0
 293 692 241 644 241 560 c 0
 241 475 293 428 353 431 c 0xb8
975 446 m 0x78
 1020 446 1073 478 1073 560 c 0
 1073 641 1020 673 975 673 c 0
 926 674 873 645 792 560 c 1
 873 475 926 445 975 446 c 0x78
EndSplineSet
EndChar

StartChar: integral
Encoding: 584 8747 328
Width: 690
VWidth: 0
Flags: W
HStem: -389 209<30 309.034> 1471 209<361.658 641>
VStem: 195 280<-168.758 1458.96>
LayerCount: 2
Fore
SplineSet
181 -389 m 0
 127 -389 90 -386 30 -379 c 1
 30 -171 l 1
 50 -174 83 -180 105 -180 c 0
 175 -180 195 -132 195 -57 c 2
 195 1329 l 2
 195 1546 235 1680 489 1680 c 0
 544 1680 580 1676 641 1669 c 1
 641 1461 l 1
 619 1464 589 1471 566 1471 c 0
 496 1471 475 1424 475 1348 c 2
 475 -38 l 2
 475 -257 436 -389 181 -389 c 0
EndSplineSet
EndChar

StartChar: j
Encoding: 587 106 331
Width: 518
VWidth: 0
Flags: W
HStem: -327 213<-28.6561 211.949> 1164 20G<135 414> 1371 236<134 416>
VStem: 135 279<-97.7109 1184 1371 1607>
LayerCount: 2
Fore
SplineSet
-30 -307 m 1
 -30 -107 l 1
 -14 -110 11 -114 29 -114 c 0
 101 -114 135 -71 135 7 c 2
 135 1184 l 1
 414 1184 l 1
 414 -25 l 2
 414 -210 306 -327 115 -327 c 0
 65 -327 11 -321 -30 -307 c 1
134 1371 m 1
 134 1607 l 1
 416 1607 l 1
 416 1371 l 1
 134 1371 l 1
EndSplineSet
EndChar

StartChar: k
Encoding: 589 107 333
Width: 986
VWidth: 0
Flags: W
HStem: 0 21G<681.749 982> 1164 20G<684 974.764> 1640 20G<110 388>
VStem: 110 278<2 454 711 1660>
LayerCount: 2
Fore
SplineSet
110 2 m 1
 110 1660 l 1
 388 1660 l 1
 388 711 l 1
 684 1183 l 1
 987 1184 l 1
 697 710 l 1
 982 0 l 1
 689 0 l 1
 478 582 l 1
 388 454 l 1
 388 2 l 1
 110 2 l 1
EndSplineSet
EndChar

StartChar: kgreenlandic
Encoding: 591 312 335
Width: 954
VWidth: 0
Flags: W
HStem: 0 21G<111 391 655.357 950> 1164 20G<111 391 645.357 948>
VStem: 111 280<0 432 686 1184>
LayerCount: 2
Fore
SplineSet
111 0 m 1
 111 1184 l 1
 391 1184 l 1
 391 686 l 1
 656 1184 l 1
 948 1184 l 1
 693 701 l 1
 950 0 l 1
 662 0 l 1
 476 560 l 1
 391 432 l 1
 391 0 l 1
 111 0 l 1
EndSplineSet
EndChar

StartChar: l
Encoding: 592 108 336
Width: 518
VWidth: 0
Flags: W
HStem: 0 21G<125 405> 1638 20G<125 405>
VStem: 125 280<0 1658>
LayerCount: 2
Fore
SplineSet
125 0 m 1
 125 1658 l 1
 405 1658 l 1
 405 0 l 1
 125 0 l 1
EndSplineSet
EndChar

StartChar: less
Encoding: 597 60 341
Width: 789
VWidth: 0
Flags: W
VStem: 62 610
LayerCount: 2
Fore
SplineSet
672 121 m 1
 62 547 l 1
 62 795 l 1
 672 1223 l 1
 672 961 l 1
 267 673 l 1
 672 382 l 1
 672 121 l 1
EndSplineSet
EndChar

StartChar: lessequal
Encoding: 598 8804 342
Width: 814
VWidth: 0
Flags: W
HStem: 0 172<65 714>
VStem: 65 649<0 172>
LayerCount: 2
Fore
SplineSet
698 265 m 1
 89 691 l 1
 89 939 l 1
 698 1366 l 1
 698 1105 l 1
 293 816 l 1
 698 525 l 1
 698 265 l 1
65 0 m 1
 65 172 l 1
 714 172 l 1
 714 0 l 1
 65 0 l 1
EndSplineSet
EndChar

StartChar: logicalnot
Encoding: 599 172 343
Width: 899
VWidth: 0
Flags: W
HStem: 743 199<88 687>
VStem: 687 140<473 743>
LayerCount: 2
Fore
SplineSet
687 473 m 1
 687 743 l 1
 88 743 l 1
 88 942 l 1
 827 942 l 1
 827 473 l 1
 687 473 l 1
EndSplineSet
EndChar

StartChar: lozenge
Encoding: 600 9674 344
Width: 985
VWidth: 0
Flags: W
HStem: 0 21G<425.656 562.243> 1165 20G<416.939 553.568>
LayerCount: 2
Fore
SplineSet
438 0 m 1
 72 593 l 1
 429 1185 l 1
 541 1185 l 1
 913 593 l 1
 550 0 l 1
 438 0 l 1
493 184 m 1
 727 593 l 1
 487 986 l 1
 257 593 l 1
 493 184 l 1
EndSplineSet
EndChar

StartChar: lslash
Encoding: 601 322 345
Width: 610
VWidth: 0
Flags: W
HStem: 0 21G<173 452> 1638 20G<173 452>
VStem: 173 279<0 840 1149 1658>
LayerCount: 2
Fore
SplineSet
173 0 m 1
 173 840 l 1
 34 777 l 1
 34 963 l 1
 173 1025 l 1
 173 1658 l 1
 452 1658 l 1
 452 1149 l 1
 591 1211 l 1
 591 1027 l 1
 452 964 l 1
 452 0 l 1
 173 0 l 1
EndSplineSet
EndChar

StartChar: m
Encoding: 602 109 346
Width: 1469
VWidth: 0
Flags: W
HStem: 0 21G<107 373 607 872 1103 1369> 1018 187<476.792 595.066 975.014 1091.36> 1164 20G<107 373>
VStem: 107 266<0 981.593 1080 1184> 607 265<0 983.413> 1103 266<0 1005.51>
LayerCount: 2
Fore
SplineSet
107 0 m 1xdc
 107 1184 l 1
 373 1184 l 1xbc
 373 1080 l 1
 457 1168 554 1205 654 1205 c 0
 743 1205 817 1161 851 1060 c 1
 940 1163 1043 1205 1150 1205 c 0
 1277 1205 1369 1113 1369 924 c 2
 1369 0 l 1
 1103 0 l 1
 1103 900 l 2
 1103 990 1072 1019 1018 1018 c 0
 973 1017 917 991 871 949 c 1
 871 941 872 933 872 924 c 2
 872 0 l 1
 607 0 l 1
 607 900 l 2
 607 990 575 1019 521 1018 c 0
 476 1017 422 991 373 948 c 1
 373 0 l 1
 107 0 l 1xdc
EndSplineSet
EndChar

StartChar: macron
Encoding: 603 175 347
Width: 491
VWidth: 0
Flags: W
HStem: 1510 148<33 486>
VStem: 33 453<1510 1658>
LayerCount: 2
Fore
SplineSet
33 1510 m 1
 33 1658 l 1
 486 1658 l 1
 486 1510 l 1
 33 1510 l 1
EndSplineSet
EndChar

StartChar: minus
Encoding: 604 8722 348
Width: 880
VWidth: 0
Flags: W
HStem: 726 173<116 764>
VStem: 116 648<726 899>
LayerCount: 2
Fore
SplineSet
116 726 m 1
 116 899 l 1
 764 899 l 1
 764 726 l 1
 116 726 l 1
EndSplineSet
EndChar

StartChar: mu
Encoding: 605 181 349
Width: 956
VWidth: 0
Flags: W
HStem: -370 21G<96.9743 377> 0 21G<573 852> 1164 20G<95 375 573 852>
VStem: 97 278<-370 6.01232 195.669 1184> 573 279<0 105 214.143 1184>
LayerCount: 2
Fore
SplineSet
97 -370 m 1
 95 1184 l 1
 375 1184 l 1
 375 300 l 2
 375 233 387 190 453 191 c 0
 489 191 532 213 573 242 c 1
 573 1184 l 1
 852 1184 l 1
 852 0 l 1
 573 0 l 1
 573 105 l 1
 523 59 467 21 403 1 c 0
 394 -2 385 -4 376 -7 c 1
 377 -370 l 1
 97 -370 l 1
EndSplineSet
EndChar

StartChar: multiply
Encoding: 606 215 350
Width: 885
VWidth: 0
Flags: W
HStem: 496 672
VStem: 107 671
LayerCount: 2
Fore
SplineSet
241 496 m 1
 107 629 l 1
 309 832 l 1
 107 1034 l 1
 240 1168 l 1
 443 966 l 1
 645 1168 l 1
 778 1035 l 1
 575 832 l 1
 778 629 l 1
 646 496 l 1
 443 698 l 1
 241 496 l 1
EndSplineSet
EndChar

StartChar: n
Encoding: 607 110 351
Width: 970
VWidth: 0
Flags: W
HStem: 0 21G<107 387 590 870> 1164 20G<107 387 620 749>
VStem: 107 280<0 967.291 1068 1184> 590 280<0 987.572>
LayerCount: 2
Fore
SplineSet
107 0 m 1
 107 1184 l 1
 387 1184 l 1
 387 1068 l 1
 470 1146 564 1202 676 1202 c 0
 822 1202 870 1073 870 946 c 2
 870 0 l 1
 590 0 l 1
 590 884 l 2
 590 951 578 994 512 993 c 0
 474 992 430 970 387 939 c 1
 387 0 l 1
 107 0 l 1
EndSplineSet
EndChar

StartChar: nine
Encoding: 612 57 356
Width: 1042
VWidth: 0
Flags: W
HStem: -20 223<413.432 609.313> 637 215<418.133 603.975> 1457 220<430.159 612.859>
VStem: 86 287<241.631 421 896.704 1403.49> 664 287<264.44 744 889.435 1397.84>
CounterMasks: 1 e0
LayerCount: 2
Fore
SplineSet
517 -20 m 0
 231 -20 103 132 99 401 c 0
 99 405 99 418 99 421 c 1
 374 421 l 1
 374 282 398 203 519 203 c 0
 626 203 664 302 664 548 c 2
 664 744 l 1
 625 678 548 638 443 637 c 0
 172 634 86 850 86 1120 c 0
 86 1441 204 1677 518 1677 c 0
 824 1677 951 1443 951 1137 c 2
 951 570 l 2
 951 245 859 -20 517 -20 c 0
520 852 m 0
 595 852 639 901 664 948 c 1
 664 1198 l 2
 664 1327 637 1457 518 1457 c 0
 399 1457 373 1328 373 1168 c 0
 373 1000 373 852 520 852 c 0
EndSplineSet
EndChar

StartChar: notequal
Encoding: 613 8800 357
Width: 887
VWidth: 0
Flags: W
HStem: 0 21G<116 315.646> 542 189<127 268 517 768> 918 190<127 375 624 768> 1638 20G<579.327 780>
VStem: 116 664
CounterMasks: 1 e0
LayerCount: 2
Fore
SplineSet
116 0 m 1
 268 542 l 1
 127 542 l 1
 127 731 l 1
 322 731 l 1
 375 918 l 1
 127 918 l 1
 127 1108 l 1
 429 1108 l 1
 585 1658 l 1
 780 1658 l 1
 624 1108 l 1
 768 1108 l 1
 768 918 l 1
 570 918 l 1
 517 731 l 1
 768 731 l 1
 768 542 l 1
 463 542 l 1
 310 0 l 1
 116 0 l 1
EndSplineSet
EndChar

StartChar: numbersign
Encoding: 615 35 359
Width: 1044
VWidth: 0
Flags: W
HStem: 0 21G<96 325.648 493 724.613> 574 191<77 170 425 568 824 965> 967 194<80 223 483 622 880 968> 1638 20G<316.384 549 715.344 946>
CounterMasks: 1 70
LayerCount: 2
Fore
SplineSet
96 0 m 1
 170 574 l 1
 75 574 l 1
 77 765 l 1
 198 765 l 1
 223 967 l 1
 78 967 l 1
 80 1161 l 1
 254 1161 l 1
 319 1658 l 1
 549 1658 l 1
 483 1161 l 1
 652 1161 l 1
 718 1658 l 1
 946 1658 l 1
 880 1161 l 1
 970 1161 l 1
 968 967 l 1
 851 967 l 1
 824 765 l 1
 967 765 l 1
 965 574 l 1
 797 574 l 1
 722 0 l 1
 493 0 l 1
 568 574 l 1
 399 574 l 1
 323 0 l 1
 96 0 l 1
425 765 m 1
 596 765 l 1
 622 967 l 1
 452 967 l 1
 425 765 l 1
EndSplineSet
EndChar

StartChar: o
Encoding: 616 111 360
Width: 929
VWidth: 0
Flags: W
HStem: -19 197<389.019 543.469> 1006 196<389.019 543.469>
VStem: 85 277<202.654 980.346> 566 278<202.654 980.346>
AnchorPoint: "ogonek" 521 0 basechar 0
LayerCount: 2
Fore
SplineSet
464 178 m 0
 559 178 566 272 566 377 c 2
 566 806 l 2
 566 911 559 1006 464 1006 c 0
 369 1006 362 910 362 806 c 2
 362 377 l 2
 362 273 369 178 464 178 c 0
463 -19 m 0
 202 -19 85 136 85 396 c 2
 85 787 l 2
 85 1047 202 1202 463 1202 c 0
 724 1202 844 1047 844 787 c 2
 844 396 l 2
 844 136 724 -19 463 -19 c 0
EndSplineSet
EndChar

StartChar: oe
Encoding: 621 339 365
Width: 1432
VWidth: 0
Flags: W
HStem: -21 202<408.329 556.731> 582 145<870 1064> 1015 199<407.13 559.363 898.542 1034.75>
VStem: 103 278<205.02 992.404> 583 287<204.482 582 727 992.723> 1063 271<197.606 436 727 991.325>
LayerCount: 2
Fore
SplineSet
456 -21 m 0
 220 -21 103 128 103 388 c 2
 103 814 l 2
 103 1067 218 1214 466 1214 c 0
 581 1214 682 1161 723 1073 c 1
 763 1161 870 1214 982 1214 c 0
 1263 1214 1333 1033 1333 745 c 2
 1333 582 l 1
 870 582 l 1
 870 459 l 2
 870 343 866 187 966 181 c 0
 1041 176 1063 223 1063 324 c 2
 1063 436 l 1
 1334 436 l 1
 1334 325 l 2
 1334 93 1216 -27 979 -21 c 0
 848 -18 760 35 720 119 c 1
 677 37 594 -21 456 -21 c 0
480 181 m 0
 569 181 583 264 583 385 c 2
 583 821 l 2
 583 927 571 1015 482 1015 c 0
 393 1015 381 928 381 821 c 2
 381 385 l 2
 381 277 389 181 480 181 c 0
870 727 m 1
 1064 727 l 1
 1064 811 l 2
 1064 909 1049 1015 967 1015 c 0
 886 1015 870 911 870 811 c 2
 870 727 l 1
EndSplineSet
EndChar

StartChar: ogonek
Encoding: 622 731 366
Width: 516
VWidth: 0
Flags: W
HStem: -492 138<202.448 368>
VStem: -14 202<-339.279 -145.084>
AnchorPoint: "ogonek" 271 0 mark 0
LayerCount: 2
Fore
SplineSet
368 -492 m 1
 176 -494 -14 -488 -14 -296 c 0
 -14 -170 89 -37 189 12 c 1
 323 12 l 1
 280 -65 188 -173 188 -273 c 0
 188 -376 335 -354 406 -354 c 1
 368 -492 l 1
EndSplineSet
EndChar

StartChar: one
Encoding: 626 49 370
Width: 1025
VWidth: 0
Flags: W
HStem: 0 21G<444 728> 1638 20G<474.5 728>
VStem: 444 284<0 1337>
LayerCount: 2
Fore
SplineSet
444 0 m 1
 444 1337 l 1
 177 1266 l 1
 177 1478 l 1
 258 1505 438 1570 511 1658 c 1
 728 1658 l 1
 728 0 l 1
 444 0 l 1
EndSplineSet
EndChar

StartChar: onehalf
Encoding: 627 189 371
Width: 1551
VWidth: 0
Flags: W
HStem: 2 131<1143 1421> 718 133<1131.01 1241.83> 1638 20G<287.5 396 936.328 1128>
VStem: 210 186<829 1376> 953 468<2 133 616 762> 1250 178<481.795 713.163>
LayerCount: 2
Fore
SplineSet
953 2 m 1xf8
 953 133 l 1xf8
 1137 386 l 2
 1186 454 1250 525 1250 615 c 0
 1250 669 1242 718 1187 718 c 0
 1128 718 1119 653 1125 584 c 1
 947 584 l 1
 945 608 945 616 945 623 c 0
 949 762 1033 851 1185 851 c 0
 1339 851 1428 765 1428 617 c 0xf4
 1428 495 1351 393 1267 288 c 1
 1237 255 1164 162 1143 133 c 1
 1421 133 l 1
 1421 2 l 1
 953 2 l 1xf8
210 829 m 1
 210 1376 l 1
 90 1351 l 1
 90 1485 l 1
 188 1536 260 1590 315 1658 c 1
 396 1658 l 1
 396 829 l 1
 210 829 l 1
308 0 m 1
 944 1658 l 1
 1128 1658 l 1
 491 0 l 1
 308 0 l 1
EndSplineSet
EndChar

StartChar: onequarter
Encoding: 628 188 372
Width: 1551
VWidth: 0
Flags: W
HStem: 0 22G<323 513.684 1155 1329> 234 134<1002 1155 1329 1442> 1638 20G<311 419 951.328 1143>
VStem: 233 186<829 1376> 1155 174<1 234 368 644>
LayerCount: 2
Fore
SplineSet
1155 1 m 1
 1155 234 l 1
 870 234 l 1
 870 364 l 1
 1173 876 l 1
 1329 876 l 1
 1329 368 l 1
 1442 368 l 1
 1442 234 l 1
 1329 234 l 1
 1329 1 l 1
 1155 1 l 1
233 829 m 1
 233 1376 l 1
 113 1351 l 1
 113 1485 l 1
 211 1536 284 1590 338 1658 c 1
 419 1658 l 1
 419 829 l 1
 233 829 l 1
323 0 m 1
 959 1658 l 1
 1143 1658 l 1
 506 0 l 1
 323 0 l 1
1002 368 m 1
 1155 368 l 1
 1155 644 l 1
 1002 368 l 1
EndSplineSet
EndChar

StartChar: uni00B9
Encoding: 629 185 373
Width: 878
VWidth: 0
Flags: W
VStem: 392 206<616 1570>
LayerCount: 2
Fore
SplineSet
392 616 m 1
 391 1570 l 1
 181 1528 l 1
 181 1682 l 1
 243 1700 383 1740 440 1812 c 1
 597 1812 l 1
 598 616 l 1
 392 616 l 1
EndSplineSet
EndChar

StartChar: ordfeminine
Encoding: 630 170 374
Width: 953
VWidth: 0
Flags: W
HStem: 644 190<299.5 501.66> 1491 192<431.652 552.356>
VStem: 140 244<843.702 1037.81> 173 236<1328 1477.97> 567 248<855.875 1147 1235.11 1482.48> 592 223<659 793>
LayerCount: 2
Fore
SplineSet
370 644 m 1xc4
 229 646 140 753 140 881 c 0xe4
 140 1133 397 1190 567 1249 c 1
 567 1360 l 2
 567 1427 554 1491 495 1491 c 0
 428 1491 413 1424 409 1325 c 1
 173 1328 l 1
 176 1552 299 1683 508 1683 c 0
 740 1683 815 1539 815 1312 c 2xd8
 815 659 l 1
 592 659 l 1
 584 793 l 1
 547 711 472 644 370 644 c 1xc4
463 834 m 0
 506 834 546 868 567 907 c 1
 567 1147 l 1xe8
 474 1098 384 1025 384 934 c 0
 384 872 415 834 463 834 c 0
EndSplineSet
EndChar

StartChar: ordmasculine
Encoding: 631 186 375
Width: 953
VWidth: 0
Flags: W
HStem: 642 188<394.078 554.393> 1496 188<394.078 554.6>
VStem: 139 230<852.094 1474.75> 576 238<846.985 1479.17>
LayerCount: 2
Fore
SplineSet
476 642 m 0
 246 642 139 776 139 1006 c 2
 139 1321 l 2
 139 1551 246 1684 476 1684 c 0
 698 1684 814 1544 814 1321 c 2
 814 1006 l 2
 814 783 698 642 476 642 c 0
474 830 m 0
 568 830 576 916 576 1023 c 2
 576 1303 l 2
 576 1411 569 1496 474 1496 c 0
 381 1496 369 1409 369 1303 c 2
 369 1023 l 2
 369 917 381 830 474 830 c 0
EndSplineSet
EndChar

StartChar: oslash
Encoding: 632 248 376
Width: 924
VWidth: 0
Flags: W
HStem: -19 197<385.837 543.469> 1006 196<389.019 542.535>
VStem: 85 277<440.399 980.346> 566 278<202.654 753.356>
LayerCount: 2
Fore
SplineSet
207 -196 m 1
 135 -169 l 1
 217.350930347 52.0772809494 l 1
 127.169545688 121.661015463 85 239.908275692 85 396 c 2
 85 787 l 2
 85 1047 202 1202 463 1202 c 0
 529.25015826 1202 586.415588328 1192.01324206 634.839736258 1172.85745488 c 1
 712 1380 l 1
 792 1351 l 1
 708.984610948 1131.47041562 l 1
 800.52151435 1061.96035218 844 943.502013564 844 787 c 2
 844 396 l 2
 844 136 724 -19 463 -19 c 0
 394.072033933 -19 335.187274644 -8.18960381605 285.848410482 12.510241053 c 1
 207 -196 l 1
464 178 m 0
 559 178 566 272 566 377 c 2
 566 753.355555556 l 1
 374.509672938 246.970023992 l 1
 387.304332797 205.440118055 412.943059089 178 464 178 c 0
362 440.398613518 m 1
 550.363984764 946.075931368 l 1
 536.675238208 982.550690072 511.198352123 1006 464 1006 c 0
 369 1006 362 910 362 806 c 2
 362 440.398613518 l 1
EndSplineSet
EndChar

StartChar: p
Encoding: 634 112 378
Width: 976
VWidth: 0
Flags: W
HStem: -390 21G<107 387> -19 201<466.706 711.5> 1008 194<470.693 580.481> 1164 20G<107 387>
VStem: 107 280<-390 88 196.619 988.845 1093 1184> 609 279<202.501 984.002>
LayerCount: 2
Fore
SplineSet
107 -390 m 1xec
 107 1184 l 1
 387 1184 l 1xdc
 387 1093 l 1
 453 1159 533 1203 626 1202 c 0
 846 1200 888 950 888 802 c 2
 888 414 l 2
 888 183 815 -19 608 -19 c 0
 526 -19 450 27 387 88 c 1
 387 -390 l 1
 107 -390 l 1xec
510 182 m 0
 597 182 609 287 609 405 c 2
 609 813 l 2
 609 914 590 1010 503 1008 c 0xec
 462 1007 422 987 387 961 c 1
 387 219 l 1
 421 198 462 182 510 182 c 0
EndSplineSet
EndChar

StartChar: paragraph
Encoding: 635 182 379
Width: 1036
VWidth: 0
Flags: W
HStem: 1514 144<577 729>
VStem: 70 507<1167.11 1510.38> 397 180<-196 1028> 729 175<-196 1514>
LayerCount: 2
Fore
SplineSet
397 -196 m 1xb0
 397 1028 l 1xb0
 205 1030 70 1141 70 1341 c 0xd0
 70 1573 235 1658 456 1658 c 2
 904 1658 l 1
 904 -196 l 1
 729 -196 l 1
 729 1514 l 1
 577 1514 l 1
 577 -196 l 1
 397 -196 l 1xb0
EndSplineSet
EndChar

StartChar: parenleft
Encoding: 636 40 380
Width: 652
VWidth: 0
Flags: W
HStem: -393 191<511.59 587> 1484 191<511.59 587>
VStem: 138 263<45.6667 1233.42>
LayerCount: 2
Fore
SplineSet
587 -393 m 1
 160 -395 138 129 138 636 c 0
 138 1161 160 1676 587 1675 c 1
 587 1484 l 1
 412 1484 401 1089 401 636 c 0
 401 178 415 -202 587 -202 c 1
 587 -393 l 1
EndSplineSet
EndChar

StartChar: parenright
Encoding: 637 41 381
Width: 593
VWidth: 0
Flags: W
HStem: -393 191<65 140.41> 1484 191<65 140.41>
VStem: 251 263<47.7228 1235.48>
LayerCount: 2
Fore
SplineSet
65 -393 m 1
 65 -202 l 1
 236 -202 251 184 251 639 c 0
 251 1095 240 1484 65 1484 c 1
 65 1675 l 1
 492 1676 514 1163 514 639 c 0
 514 131 492 -395 65 -393 c 1
EndSplineSet
EndChar

StartChar: partialdiff
Encoding: 638 8706 382
Width: 1033
VWidth: 0
Flags: W
HStem: -26 193<367.815 592.959> 930 192<420.843 630.303> 1493 185<362 503.853>
VStem: 74 258<203.037 491.654> 735 233<882.1 1296.53>
CounterMasks: 1 e0
LayerCount: 2
Fore
SplineSet
468 -26 m 0
 273 -26 74 78 74 325 c 0
 74 340 74 355 75 371 c 2
 113 790 l 1
 129 991 260 1122 449 1122 c 0
 575 1122 678 1058 727 1014 c 1
 732 1050 735 1083 735 1114 c 0
 735 1360 571 1469 305 1493 c 1
 362 1678 l 1
 594 1678 968 1595 968 1055 c 0
 968 1023 924 515 924 515 c 1
 880 11 677 -26 468 -26 c 0
478 167 m 0
 560 167 629 189 651 388 c 2
 704 874 l 1
 635 913 576 930 527 930 c 0
 435 930 382 869 373 770 c 2
 333 342 l 2
 332 334 332 325 332 319 c 0
 332 232 378 167 478 167 c 0
EndSplineSet
EndChar

StartChar: percent
Encoding: 639 37 383
Width: 1980
VWidth: 0
Flags: W
HStem: -7 195<1453.25 1626.99> 718 196<1445.1 1630.01> 744 194<358.251 526.522> 1468 197<349.161 534.799>
VStem: 81 242<965.767 1442.12> 562 243<970.677 1438.45> 1176 242<214.767 691.123> 1657 243<219.677 688.297>
LayerCount: 2
Fore
SplineSet
442 938 m 0xbf
 549 938 562 1036 562 1165 c 2
 562 1255 l 2
 562 1386 552 1468 442 1468 c 0
 332 1468 323 1384 323 1254 c 2
 323 1163 l 2
 323 1035 337 938 442 938 c 0xbf
442 744 m 0
 183 744 81 895 81 1164 c 2
 81 1252 l 2
 81 1527 177 1665 442 1665 c 0
 705 1665 805 1533 805 1260 c 2
 805 1159 l 2
 805 889 702 744 442 744 c 0
1537 188 m 0
 1645 188 1657 286 1657 414 c 2
 1657 504 l 2
 1657 636 1648 718 1537 718 c 0xdf
 1427 718 1418 633 1418 503 c 2
 1418 413 l 2
 1418 284 1432 188 1537 188 c 0
1537 -7 m 0
 1278 -7 1176 144 1176 413 c 2
 1176 501 l 2
 1176 776 1272 914 1537 914 c 0
 1800 914 1900 783 1900 510 c 2
 1900 408 l 2
 1900 138 1797 -7 1537 -7 c 0
658 0 m 1
 1126 1658 l 1
 1323 1658 l 1
 855 0 l 1
 658 0 l 1
EndSplineSet
EndChar

StartChar: period
Encoding: 640 46 384
Width: 438
VWidth: 0
Flags: W
HStem: 0 277<94 366>
VStem: 94 272<0 277>
LayerCount: 2
Fore
SplineSet
94 0 m 1
 94 277 l 1
 366 277 l 1
 366 0 l 1
 94 0 l 1
EndSplineSet
EndChar

StartChar: periodcentered
Encoding: 641 183 385
Width: 400
VWidth: 0
Flags: W
HStem: 636 269<65 336>
VStem: 65 271<636 905>
LayerCount: 2
Fore
SplineSet
65 636 m 1
 65 905 l 1
 336 905 l 1
 336 636 l 1
 65 636 l 1
EndSplineSet
EndChar

StartChar: perthousand
Encoding: 642 8240 386
Width: 2814
VWidth: 0
Flags: W
HStem: -7 195<1453.25 1626.99 2284.25 2452.52> 718 196<1445.1 1630.01 2276.1 2460.8> 744 194<358.251 526.522> 1468 197<349.161 534.799>
VStem: 81 242<965.767 1442.12> 562 243<970.677 1438.45> 1176 242<214.767 691.123> 1657 243<219.677 688.297> 2007 242<214.767 691.123> 2488 243<219.677 688.297>
CounterMasks: 1 03c0
LayerCount: 2
Fore
SplineSet
442 938 m 0xbfc0
 549 938 562 1036 562 1165 c 2
 562 1255 l 2
 562 1386 552 1468 442 1468 c 0
 332 1468 323 1384 323 1254 c 2
 323 1163 l 2
 323 1035 337 938 442 938 c 0xbfc0
442 744 m 0
 183 744 81 895 81 1164 c 2
 81 1252 l 2
 81 1527 177 1665 442 1665 c 0
 705 1665 805 1533 805 1260 c 2
 805 1159 l 2
 805 889 702 744 442 744 c 0
1537 188 m 0
 1645 188 1657 286 1657 414 c 2
 1657 504 l 2
 1657 636 1648 718 1537 718 c 0xdfc0
 1427 718 1418 633 1418 503 c 2
 1418 413 l 2
 1418 284 1432 188 1537 188 c 0
1537 -7 m 0
 1278 -7 1176 144 1176 413 c 2
 1176 501 l 2
 1176 776 1272 914 1537 914 c 0
 1800 914 1900 783 1900 510 c 2
 1900 408 l 2
 1900 138 1797 -7 1537 -7 c 0
2368 188 m 0
 2475 188 2488 286 2488 414 c 2
 2488 504 l 2
 2488 636 2478 718 2368 718 c 0
 2258 718 2249 633 2249 503 c 2
 2249 413 l 2
 2249 284 2263 188 2368 188 c 0
2368 -7 m 0
 2109 -7 2007 144 2007 413 c 2
 2007 501 l 2
 2007 776 2103 914 2368 914 c 0
 2631 914 2731 783 2731 510 c 2
 2731 408 l 2
 2731 138 2628 -7 2368 -7 c 0
658 0 m 1
 1126 1658 l 1
 1323 1658 l 1
 855 0 l 1
 658 0 l 1
EndSplineSet
EndChar

StartChar: pi
Encoding: 643 960 387
Width: 1155
VWidth: 0
Flags: W
HStem: -20 205<957.063 1055> 0 21G<170 449> 988 196<38 170 449 646 926 1080>
VStem: 170 279<0 988> 646 280<206.947 988>
LayerCount: 2
Fore
SplineSet
449 988 m 1xb8
 449 0 l 1
 170 0 l 1x78
 170 988 l 1
 38 988 l 1
 38 1184 l 1
 1080 1184 l 1
 1080 988 l 1
 926 988 l 1
 926 393 l 2
 926 218 948 185 1069 185 c 1
 1055 -20 l 1
 731 -20 646 81 646 288 c 2
 646 988 l 1
 449 988 l 1xb8
EndSplineSet
EndChar

StartChar: plus
Encoding: 644 43 388
Width: 890
VWidth: 0
Flags: W
HStem: 758 186<53 343 540 838>
VStem: 343 197<424 758 944 1274>
LayerCount: 2
Fore
SplineSet
343 424 m 1
 343 758 l 1
 53 758 l 1
 53 944 l 1
 343 944 l 1
 343 1274 l 1
 540 1274 l 1
 540 944 l 1
 838 944 l 1
 838 758 l 1
 540 758 l 1
 540 424 l 1
 343 424 l 1
EndSplineSet
EndChar

StartChar: plusminus
Encoding: 645 177 389
Width: 865
VWidth: 0
Flags: W
HStem: 0 189<124 740> 581 186<124 337 528 740>
VStem: 337 191<365 581 767 983>
LayerCount: 2
Fore
SplineSet
337 365 m 1
 337 581 l 1
 124 581 l 1
 124 767 l 1
 337 767 l 1
 337 983 l 1
 528 983 l 1
 528 767 l 1
 740 767 l 1
 740 581 l 1
 528 581 l 1
 528 365 l 1
 337 365 l 1
124 0 m 1
 124 189 l 1
 740 189 l 1
 740 0 l 1
 124 0 l 1
EndSplineSet
EndChar

StartChar: product
Encoding: 646 8719 390
Width: 1188
VWidth: 0
Flags: W
HStem: -390 21G<117 393 795 1071> 1442 216<393 795>
VStem: 117 276<-390 1442> 795 276<-390 1442>
LayerCount: 2
Fore
SplineSet
117 -390 m 1
 117 1658 l 1
 1071 1658 l 1
 1071 -390 l 1
 795 -390 l 1
 795 1442 l 1
 393 1442 l 1
 393 -390 l 1
 117 -390 l 1
EndSplineSet
EndChar

StartChar: q
Encoding: 647 113 391
Width: 971
VWidth: 0
Flags: W
HStem: -390 21G<585 865> -19 200<281.5 516.161> 1005 197<263.5 520.716> 1164 20G<585 865>
VStem: 88 280<206.714 974.888> 585 280<-390 83 193.891 991.506 1108 1184>
LayerCount: 2
Fore
SplineSet
585 -390 m 1xdc
 585 83 l 1
 524 20 454 -18 377 -19 c 1
 186 -19 88 107 88 411 c 2
 88 755 l 2
 88 996 154 1202 373 1202 c 0xec
 455 1202 527 1163 585 1108 c 1
 585 1184 l 1
 865 1184 l 1
 865 -390 l 1
 585 -390 l 1xdc
476 181 m 0
 506 181 545 192 585 214 c 1
 585 968 l 1
 551 990 513 1005 475 1005 c 0
 393 1005 368 917 368 824 c 2
 368 390 l 2
 368 277 386 181 476 181 c 0
EndSplineSet
EndChar

StartChar: question
Encoding: 648 63 392
Width: 999
VWidth: 0
Flags: W
HStem: 0 273<289 565> 1439 243<386.34 598.403>
VStem: 97 262<1193.82 1408.37> 289 276<0 273 425 671.606> 647 276<1062.1 1386.25>
LayerCount: 2
Fore
SplineSet
299 425 m 1xe8
 299 684 l 1
 477 843 653 1036 647 1269 c 0
 644 1375 580 1439 490 1439 c 0
 396 1439 348 1374 359 1281 c 1
 359 1262 368 1210 374 1193 c 1
 117 1141 l 1
 110 1171 97 1229 97 1256 c 1
 62 1506 204 1682 487 1682 c 0
 769 1682 923 1525 923 1259 c 0
 923 994 744 796 551 622 c 1
 551 425 l 1
 299 425 l 1xe8
289 0 m 1xd8
 289 273 l 1
 565 273 l 1
 565 0 l 1
 289 0 l 1xd8
EndSplineSet
EndChar

StartChar: questiondown
Encoding: 649 191 393
Width: 1066
VWidth: 0
Flags: W
HStem: -378 243<455.905 667.974> 1032 272<489 765>
VStem: 132 276<-82.2526 242.428> 489 276<632.625 880 1032 1304> 696 262<-104.372 110.178>
LayerCount: 2
Fore
SplineSet
567 -378 m 0xe8
 286 -378 132 -221 132 45 c 0
 132 310 310 509 503 682 c 1
 503 880 l 1
 756 880 l 1
 756 620 l 1
 577 462 401 268 408 36 c 1
 410 -70 474 -135 565 -135 c 0
 659 -135 706 -70 696 23 c 1
 696 42 686 94 680 111 c 1
 937 164 l 1
 945 133 958 75 958 48 c 1
 992 -202 850 -378 567 -378 c 0xe8
489 1032 m 1xf0
 489 1304 l 1
 765 1304 l 1
 765 1032 l 1
 489 1032 l 1xf0
EndSplineSet
EndChar

StartChar: quotedbl
Encoding: 650 34 394
Width: 763
VWidth: 0
Flags: W
HStem: 1100 558<124 263 466 605>
VStem: 124 139<1100 1176.92> 466 139<1100 1176.19>
LayerCount: 2
Fore
SplineSet
124 1100 m 1
 124 1658 l 1
 367 1658 l 1
 263 1100 l 1
 124 1100 l 1
466 1100 m 1
 466 1658 l 1
 710 1658 l 1
 605 1100 l 1
 466 1100 l 1
EndSplineSet
EndChar

StartChar: quotedblbase
Encoding: 651 8222 395
Width: 974
VWidth: 0
Flags: W
HStem: -251 96<214 266.879 655 707.879> 57 262<173 300 614 741>
VStem: 173 273<62.2751 319> 300 146<-129.106 57> 614 273<62.2751 319> 741 146<-129.106 57>
LayerCount: 2
Fore
SplineSet
214 -251 m 1xe0
 182 -155 l 1
 277 -155 300 -82 300 57 c 1xd0
 173 57 l 1
 173 319 l 1
 447 319 l 1
 447 291 447 126 446 104 c 0
 442 -125 388 -251 214 -251 c 1xe0
655 -251 m 1
 623 -155 l 1
 718 -155 741 -82 741 57 c 1xc4
 614 57 l 1
 614 319 l 1
 888 319 l 1
 888 291 888 126 887 104 c 0xc8
 883 -125 829 -251 655 -251 c 1
EndSplineSet
EndChar

StartChar: quotedblleft
Encoding: 652 8220 396
Width: 970
VWidth: 0
Flags: W
HStem: 1136 262<256 383 697 824> 1610 96<289.121 342 730.121 783>
VStem: 109 274<1136 1392.72> 110 146<1398 1584.11> 550 274<1136 1392.72> 551 146<1398 1584.11>
LayerCount: 2
Fore
SplineSet
109 1136 m 1xe0
 109 1164 109 1329 110 1351 c 0
 114 1580 168 1706 342 1706 c 1
 374 1610 l 1
 279 1610 256 1537 256 1398 c 1xd0
 383 1398 l 1
 383 1136 l 1
 109 1136 l 1xe0
550 1136 m 1xc8
 550 1164 550 1329 551 1351 c 0
 555 1580 609 1706 783 1706 c 1
 815 1610 l 1
 720 1610 697 1537 697 1398 c 1xc4
 824 1398 l 1
 824 1136 l 1
 550 1136 l 1xc8
EndSplineSet
EndChar

StartChar: quotedblright
Encoding: 653 8221 397
Width: 970
VWidth: 0
Flags: W
HStem: 1087 96<212 264.585 614 666.879> 1396 261<170 298 573 701>
VStem: 170 273<1401.26 1657> 298 145<1209.51 1396> 573 273<1401.26 1657> 701 145<1209.51 1396>
LayerCount: 2
Fore
SplineSet
212 1087 m 1xe0
 179 1183 l 1
 274 1183 298 1257 298 1396 c 1xd0
 170 1396 l 1
 170 1657 l 1
 444 1657 l 1
 444 1629 444 1465 443 1443 c 0
 439 1214 385 1087 212 1087 c 1xe0
614 1087 m 1
 582 1183 l 1
 677 1183 701 1257 701 1396 c 1xc4
 573 1396 l 1
 573 1657 l 1
 847 1657 l 1
 847 1629 847 1465 846 1443 c 0xc8
 842 1214 788 1087 614 1087 c 1
EndSplineSet
EndChar

StartChar: quoteleft
Encoding: 654 8216 398
Width: 745
VWidth: 0
Flags: W
HStem: 1136 262<256 383> 1610 96<289.121 342>
VStem: 109 274<1136 1392.72> 110 146<1398 1584.11>
LayerCount: 2
Fore
SplineSet
109 1136 m 1xe0
 109 1164 109 1329 110 1351 c 0
 114 1580 168 1706 342 1706 c 1
 374 1610 l 1
 279 1610 256 1537 256 1398 c 1xd0
 383 1398 l 1
 383 1136 l 1
 109 1136 l 1xe0
EndSplineSet
EndChar

StartChar: quoteright
Encoding: 655 8217 399
Width: 456
VWidth: 0
Flags: W
HStem: 1088 96<166 218.585> 1396 262<125 252>
VStem: 125 272<1401.44 1658> 252 145<1210.32 1396>
LayerCount: 2
Fore
SplineSet
166 1088 m 1xe0
 133 1184 l 1
 228 1184 252 1257 252 1396 c 1xd0
 125 1396 l 1
 125 1658 l 1
 399 1658 l 1
 399 1630 398 1465 397 1443 c 0
 393 1215 339 1088 166 1088 c 1xe0
EndSplineSet
EndChar

StartChar: quotesinglbase
Encoding: 656 8218 400
Width: 572
VWidth: 0
Flags: W
HStem: -253 96<220 272.879> 55 262<179 306>
VStem: 179 273<60.2751 317> 306 146<-131.106 55>
LayerCount: 2
Fore
SplineSet
220 -253 m 1xe0
 188 -157 l 1
 283 -157 306 -84 306 55 c 1xd0
 179 55 l 1
 179 317 l 1
 453 317 l 1
 453 289 453 124 452 102 c 0
 448 -127 394 -253 220 -253 c 1xe0
EndSplineSet
EndChar

StartChar: quotesingle
Encoding: 657 39 401
Width: 653
VWidth: 0
Flags: W
HStem: 1100 558<138 281>
VStem: 138 143<1100 1184.21>
LayerCount: 2
Fore
SplineSet
138 1100 m 1
 138 1658 l 1
 376 1658 l 1
 281 1100 l 1
 138 1100 l 1
EndSplineSet
EndChar

StartChar: r
Encoding: 658 114 402
Width: 710
VWidth: 0
Flags: W
HStem: 0 21G<111 391> 935 264<513.754 680.99> 1164 20G<111 391>
VStem: 111 280<0 868.766 1002 1184>
LayerCount: 2
Fore
SplineSet
111 0 m 1xd0
 111 1184 l 1
 391 1184 l 1xb0
 391 1002 l 1
 472 1146 552 1199 640 1199 c 0
 653 1199 665 1198 682 1194 c 1
 682 917 l 1
 656 927 619 935 585 935 c 1
 508 932 450 902 391 812 c 1
 391 0 l 1
 111 0 l 1xd0
EndSplineSet
EndChar

StartChar: radical
Encoding: 660 8730 404
Width: 1116
VWidth: 0
Flags: W
HStem: 0 21G<456.961 769.92> 1013 171<18 256> 1638 20G<810.726 1091>
LayerCount: 2
Fore
SplineSet
461 0 m 1
 256 1015 l 1
 18 1013 l 1
 18 1184 l 1
 484 1184 l 1
 553 809 l 1
 615 393 l 1
 675 809 l 1
 814 1658 l 1
 1091 1658 l 1
 766 0 l 1
 461 0 l 1
EndSplineSet
EndChar

StartChar: registered
Encoding: 663 174 407
Width: 1824
VWidth: 0
Flags: W
HStem: -28 109<658.755 1165.24> 753 122<817 901> 1212 146<817 1003.71> 1571 113<658.755 1164.91>
VStem: 98 123<546.329 1099.92> 582 235<309 753 875 1212> 1044 230<912.154 1180.31> 1600 126<545.917 1099.92>
CounterMasks: 2 b0 0f
LayerCount: 2
Fore
SplineSet
582 309 m 1
 582 1358 l 1
 909 1358 l 2
 1150 1358 1274 1270 1274 1057 c 0
 1274 923 1219 850 1114 800 c 1
 1302 309 l 1
 1056 309 l 1
 901 753 l 1
 817 753 l 1
 817 309 l 1
 582 309 l 1
817 875 m 1
 858 875 l 2
 1003 875 1044 927 1044 1051 c 0
 1044 1152 1005 1212 897 1212 c 2
 817 1212 l 1
 817 875 l 1
912 81 m 0
 1390 81 1600 454 1600 827 c 0
 1600 1202 1390 1571 912 1571 c 0
 430 1571 221 1202 221 827 c 0
 221 454 430 81 912 81 c 0
913 -28 m 0
 333 -28 98 417 98 828 c 0
 98 1241 333 1684 913 1684 c 0
 1491 1684 1726 1241 1726 828 c 0
 1726 415 1493 -28 913 -28 c 0
EndSplineSet
EndChar

StartChar: ring
Encoding: 664 730 408
Width: 402
VWidth: 0
Flags: W
HStem: 1215 119<106.979 289.16> 1562 118<107.185 289.16>
VStem: -39 126<1354.12 1541.68> 309 128<1354.12 1541.68>
LayerCount: 2
Fore
SplineSet
198 1215 m 0
 59 1215 -39 1303 -39 1448 c 0
 -39 1593 60 1680 198 1680 c 0
 337 1680 437 1593 437 1448 c 0
 437 1303 337 1215 198 1215 c 0
198 1334 m 0
 269 1334 309 1381 309 1448 c 0
 309 1514 269 1562 198 1562 c 0
 127 1562 87 1514 87 1448 c 0
 87 1381 127 1334 198 1334 c 0
EndSplineSet
EndChar

StartChar: s
Encoding: 665 115 409
Width: 812
VWidth: 0
Flags: W
HStem: -19 198<326.825 494.723> 1001 201<338.932 500.072>
VStem: 73 251<824.093 983.297>
AnchorPoint: "cedilla" 370 0 basechar 0
LayerCount: 2
Fore
SplineSet
414 -19 m 0
 217 -19 90 96 44 299 c 1
 256 376 l 1
 285 249 336 176 418 179 c 1
 477 180 520 226 517 285 c 0
 514 333 462 393 400 446 c 2
 241 582 l 2
 155 656 70 755 73 891 c 0
 77 1083 217 1202 408 1202 c 0
 600 1202 714 1073 747 893 c 1
 563 816 l 1
 543 913 502 1000 421 1001 c 1
 359 1003 324 956 324 907 c 1
 323 864 369 813 423 766 c 1
 585 619 l 1
 676 539 768 446 768 296 c 0
 768 88 612 -19 414 -19 c 0
EndSplineSet
EndChar

StartChar: section
Encoding: 671 167 415
Width: 923
VWidth: 0
Flags: W
HStem: -15 213<365.839 562.034> 1482 210<373.124 561.702>
VStem: 94 246<781.263 963.955 1299.46 1456.47> 593 232<737.194 921.533>
LayerCount: 2
Fore
SplineSet
459 -15 m 0
 246 -15 135 132 93 308 c 1
 291 367 l 1
 316 297 370 198 462 198 c 0
 535 198 581 234 586 301 c 0
 590 368 557 416 476 466 c 2
 264 595 l 2
 167 654 90 730 94 868 c 0
 97 1000 170 1089 267 1128 c 1
 182 1176 92 1270 89 1388 c 0
 84 1581 246 1692 460 1692 c 0
 674 1692 789 1547 831 1367 c 1
 636 1309 l 1
 610 1387 564 1483 464 1482 c 0
 394 1481 351 1444 351 1374 c 0
 351 1313 406 1275 441 1254 c 2
 664 1115 l 2
 762 1055 825 957 825 835 c 0
 825 713 762 634 671 579 c 1
 761 507 829 429 829 309 c 0
 829 106 685 -15 459 -15 c 0
506 708 m 1
 546 728 593 768 593 825 c 0
 593 857 578 906 529 937 c 2
 430 998 l 1
 382 977 340 929 340 869 c 0
 340 833 361 794 389 778 c 2
 506 708 l 1
EndSplineSet
EndChar

StartChar: semicolon
Encoding: 672 59 416
Width: 505
VWidth: 0
Flags: W
HStem: -163 105<167 237.016> 91 271<125 271> 894 276<124 395>
VStem: 124 271<94.0839 362 894 1170> 271 129<-23.6298 91>
LayerCount: 2
Fore
SplineSet
167 -163 m 1xe8
 137 -58 l 1
 219 -52 271 -7 271 91 c 1
 125 91 l 1
 125 362 l 1
 400 362 l 1
 400 110 l 2
 400 -62 331 -163 167 -163 c 1xe8
124 894 m 1xf0
 124 1170 l 1
 395 1170 l 1
 395 894 l 1
 124 894 l 1xf0
EndSplineSet
EndChar

StartChar: seven
Encoding: 673 55 417
Width: 880
VWidth: 0
Flags: W
HStem: 0 21G<196 475.386> 1440 218<81 519>
LayerCount: 2
Fore
SplineSet
196 0 m 1
 519 1440 l 1
 81 1440 l 1
 81 1658 l 1
 798 1658 l 1
 798 1491 l 1
 471 0 l 1
 196 0 l 1
EndSplineSet
EndChar

StartChar: six
Encoding: 674 54 418
Width: 1042
VWidth: 0
Flags: W
HStem: -20 221<442.552 627.123> 806 215<451.465 636.779> 1454 223<445.347 641.311>
VStem: 104 285<265.75 766.107 913 1392.56> 685 284<257.203 759.125 1236 1407.94>
CounterMasks: 1 e0
LayerCount: 2
Fore
SplineSet
537 -20 m 0
 231 -20 104 223 104 528 c 2
 104 1087 l 2
 104 1412 195 1677 537 1677 c 0
 822 1677 951 1527 956 1260 c 0
 956 1255 956 1241 956 1236 c 1
 681 1236 l 1
 681 1375 658 1454 538 1454 c 0
 430 1454 389 1355 389 1110 c 2
 389 913 l 1
 427 979 506 1020 612 1021 c 0
 882 1024 969 816 969 546 c 0
 969 225 859 -20 537 -20 c 0
539 201 m 0
 659 201 685 329 685 489 c 0
 685 657 684 806 538 806 c 0
 463 806 414 756 389 709 c 1
 389 459 l 2
 389 330 420 201 539 201 c 0
EndSplineSet
EndChar

StartChar: slash
Encoding: 675 47 419
Width: 812
VWidth: 0
Flags: W
HStem: 0 21G<73 273.657> 1638 20G<536.343 737>
VStem: 73 664
LayerCount: 2
Fore
SplineSet
73 0 m 1
 542 1658 l 1
 737 1658 l 1
 268 0 l 1
 73 0 l 1
EndSplineSet
EndChar

StartChar: sterling
Encoding: 677 163 421
Width: 905
VWidth: 0
Flags: W
HStem: 0 224<413 841> 687 213<18 138 413 652> 1445 232<448.478 584.315>
VStem: 138 275<224 687 901 1410.2> 617 228<1216 1419.93>
LayerCount: 2
Fore
SplineSet
18 0 m 1
 18 149 l 1
 138 207 l 1
 138 687 l 1
 18 687 l 1
 18 901 l 1
 138 901 l 1
 138 1081 l 2
 138 1401 174 1677 513 1677 c 0
 769 1677 843 1509 845 1279 c 1
 845 1216 l 1
 617 1216 l 1
 617 1330 609 1445 514 1445 c 0
 422 1445 415 1321 413 1189 c 1
 413 900 l 1
 652 900 l 1
 652 687 l 1
 413 687 l 1
 413 224 l 1
 841 224 l 1
 841 0 l 1
 18 0 l 1
EndSplineSet
EndChar

StartChar: summation
Encoding: 678 8721 422
Width: 857
VWidth: 0
Flags: W
HStem: -390 209<373 779> 1445 213<380 774>
LayerCount: 2
Fore
SplineSet
52 -390 m 1
 349 654 l 1
 52 1658 l 1
 774 1658 l 1
 774 1445 l 1
 380 1445 l 1
 633 656 l 1
 373 -181 l 1
 779 -181 l 1
 779 -390 l 1
 52 -390 l 1
EndSplineSet
EndChar

StartChar: t
Encoding: 679 116 423
Width: 680
VWidth: 0
Flags: W
HStem: -16 222<448.909 628> 999 185<38 155 436 616>
VStem: 155 281<218.773 999 1184 1532>
AnchorPoint: "cedilla" 340 0 basechar 0
LayerCount: 2
Fore
SplineSet
437 -16 m 0
 214 -12 156 132 155 334 c 1
 155 999 l 1
 38 999 l 1
 38 1184 l 1
 155 1184 l 1
 155 1532 l 1
 436 1532 l 1
 436 1184 l 1
 616 1184 l 1
 616 999 l 1
 436 999 l 1
 436 316 l 2
 436 239 468 207 543 206 c 0
 572 205 609 209 628 212 c 1
 628 -2 l 1
 575 -9 519 -18 437 -16 c 0
EndSplineSet
EndChar

StartChar: tbar
Encoding: 680 359 424
Width: 582
VWidth: 0
Flags: W
HStem: -16 222<448.909 628> 660 130<41 155 436 628> 999 185<38 155 436 616>
VStem: 155 281<218.773 660 790 999 1184 1532>
LayerCount: 2
Fore
SplineSet
437 -16 m 0
 214 -12 156 132 155 334 c 1
 155 660 l 1
 41 660 l 1
 41 790 l 1
 155 790 l 1
 155 999 l 1
 38 999 l 1
 38 1184 l 1
 155 1184 l 1
 155 1532 l 1
 436 1532 l 1
 436 1184 l 1
 616 1184 l 1
 616 999 l 1
 436 999 l 1
 436 790 l 1
 628 790 l 1
 628 660 l 1
 436 660 l 1
 436 316 l 2
 436 239 468 207 543 206 c 0
 572 205 609 209 628 212 c 1
 628 -2 l 1
 575 -9 519 -18 437 -16 c 0
EndSplineSet
EndChar

StartChar: thorn
Encoding: 683 254 427
Width: 967
VWidth: 0
Flags: W
HStem: -390 21G<104 384> -19 201<462.16 707.5> 1008 194<466.919 576.713> 1638 20G<104 384>
VStem: 104 280<-390 88 196.619 988.845 1093 1658> 604 280<202.501 984.838>
LayerCount: 2
Fore
SplineSet
104 -390 m 1
 104 1658 l 1
 384 1658 l 1
 384 1093 l 1
 449 1159 529 1203 622 1202 c 0
 842 1200 884 950 884 802 c 2
 884 414 l 2
 884 183 811 -19 604 -19 c 0
 521 -19 446 27 384 88 c 1
 384 -390 l 1
 104 -390 l 1
507 182 m 0
 594 182 604 287 604 405 c 2
 604 813 l 2
 604 914 587 1010 500 1008 c 0
 459 1007 419 987 384 961 c 1
 384 219 l 1
 418 198 459 182 507 182 c 0
EndSplineSet
EndChar

StartChar: three
Encoding: 684 51 428
Width: 1007
VWidth: 0
Flags: W
HStem: -23 237<410.966 625.626> 753 238<431 592.912> 1449 229<414.344 624.465>
VStem: 83 284<262.947 506 1156 1400.52> 667 282<259.479 677.342 1050.53 1406.12>
CounterMasks: 1 e0
LayerCount: 2
Fore
SplineSet
517 -23 m 0
 211 -23 83 159 83 447 c 2
 83 506 l 1
 367 506 l 1
 367 498 367 468 367 460 c 0
 369 307 395 214 519 214 c 0
 650 214 667 319 667 476 c 0
 667 642 623 743 474 752 c 0
 467 752 438 753 431 753 c 1
 431 991 l 1
 437 991 463 991 469 992 c 0
 617 996 667 1064 667 1229 c 0
 667 1366 634 1449 515 1449 c 0
 391 1449 369 1347 367 1212 c 0
 367 1205 367 1163 367 1156 c 1
 83 1156 l 1
 83 1233 l 2
 83 1515 239 1678 515 1678 c 0
 794 1678 949 1520 949 1239 c 0
 949 1046 857 919 726 881 c 1
 865 833 949 703 949 480 c 0
 949 180 829 -23 517 -23 c 0
EndSplineSet
EndChar

StartChar: threequarters
Encoding: 685 190 429
Width: 1551
VWidth: 0
Flags: W
HStem: 0 22G<375 565.684 1200 1374> 234 134<1047 1200 1374 1487> 867 127<271.007 376.778> 1208 119<262 372.065> 1544 128<271.65 378.144>
VStem: 99 165<997.529 1100 1438 1539.11> 383 172<995.765 1196.11 1339.47 1540.92> 1200 174<1 234 368 644>
CounterMasks: 1 38
LayerCount: 2
Fore
SplineSet
330 867 m 0
 182 867 99 956 99 1100 c 1
 264 1100 l 1
 264 1041 274 994 327 994 c 0
 379 994 383 1044 383 1100 c 0
 383 1184 353 1208 262 1208 c 1
 262 1327 l 1
 354 1327 384 1353 384 1436 c 0
 384 1495 380 1544 326 1544 c 0
 269 1544 264 1494 264 1438 c 1
 99 1438 l 1
 99 1591 185 1672 332 1672 c 0
 478 1672 553 1587 553 1442 c 0
 553 1337 485 1278 397 1272 c 1
 496 1262 555 1208 555 1101 c 0
 555 953 476 867 330 867 c 0
1200 1 m 1
 1200 234 l 1
 914 234 l 1
 914 364 l 1
 1218 876 l 1
 1374 876 l 1
 1374 368 l 1
 1487 368 l 1
 1487 234 l 1
 1374 234 l 1
 1374 1 l 1
 1200 1 l 1
375 0 m 1
 1011 1658 l 1
 1195 1658 l 1
 558 0 l 1
 375 0 l 1
1047 368 m 1
 1200 368 l 1
 1200 644 l 1
 1047 368 l 1
EndSplineSet
EndChar

StartChar: uni00B3
Encoding: 686 179 430
Width: 895
VWidth: 0
Flags: W
HStem: 602 188<407.079 566.722> 1148 156<382 549.258> 1661 177<404.03 565.135>
VStem: 156 222<818.422 1041 1412 1638> 593 213<813.786 1108.87 1348.49 1638.39>
CounterMasks: 1 e0
LayerCount: 2
Fore
SplineSet
487 602 m 0
 236 602 156 742 156 975 c 2
 156 1041 l 1
 377 1041 l 1
 377 970 l 2
 377 847 412 790 484 790 c 0
 561 790 593 850 593 949 c 0
 593 1065 555 1148 457 1148 c 2
 382 1148 l 1
 382 1304 l 1
 452 1304 l 2
 554 1304 593 1393 593 1510 c 0
 593 1609 555 1661 482 1661 c 0
 411 1661 378 1603 378 1510 c 2
 378 1412 l 1
 156 1412 l 1
 156 1509 l 2
 156 1711 274 1838 479 1838 c 0
 689 1838 806 1729 806 1509 c 0
 806 1371 729 1263 655 1244 c 1
 729 1215 806 1140 806 967 c 0
 806 747 709 602 487 602 c 0
EndSplineSet
EndChar

StartChar: tilde
Encoding: 687 732 431
Width: 881
VWidth: 0
Flags: W
HStem: 1399 179<472.926 617.803> 1498 175<275.271 435.976> 1638 20G<625 764>
VStem: 123 146<1415 1493.34> 625 139<1578.34 1658>
LayerCount: 2
Fore
SplineSet
606 1399 m 1xb8
 507 1395 388 1498 320 1498 c 0
 282 1498 269 1467 269 1415 c 1
 123 1415 l 1
 123 1563 162 1668 300 1673 c 0x58
 409 1677 524 1580 576 1578 c 1
 613 1575 625 1602 625 1658 c 1
 764 1658 l 1
 764 1523 735 1402 606 1399 c 1xb8
EndSplineSet
EndChar

StartChar: tildecomb
Encoding: 688 771 432
Width: 881
VWidth: 0
Flags: W
HStem: 1399 179<472.926 617.803> 1498 175<275.271 435.976> 1638 20G<625 764>
VStem: 123 146<1415 1493.34> 625 139<1578.34 1658>
LayerCount: 2
Fore
SplineSet
606 1399 m 1xb8
 507 1395 388 1498 320 1498 c 0
 282 1498 269 1467 269 1415 c 1
 123 1415 l 1
 123 1563 162 1668 300 1673 c 0x58
 409 1677 524 1580 576 1578 c 1
 613 1575 625 1602 625 1658 c 1
 764 1658 l 1
 764 1523 735 1402 606 1399 c 1xb8
EndSplineSet
EndChar

StartChar: trademark
Encoding: 689 8482 433
Width: 1633
VWidth: 0
Flags: W
HStem: 1492 166<122 297 493 660>
VStem: 297 196<710 1492> 751 159<710 1259> 1344 159<710 1258>
CounterMasks: 1 70
LayerCount: 2
Fore
SplineSet
751 710 m 1
 751 1658 l 1
 946 1658 l 1
 1125 1048 l 1
 1316 1658 l 1
 1503 1658 l 1
 1503 710 l 1
 1344 710 l 1
 1344 1258 l 1
 1174 710 l 1
 1087 710 l 1
 910 1259 l 1
 910 710 l 1
 751 710 l 1
297 710 m 1
 297 1492 l 1
 122 1492 l 1
 122 1658 l 1
 660 1658 l 1
 660 1492 l 1
 493 1492 l 1
 493 710 l 1
 297 710 l 1
EndSplineSet
EndChar

StartChar: two
Encoding: 690 50 434
Width: 1025
VWidth: 0
Flags: W
HStem: 0 229<420 917> 1441 237<439.891 635.088>
VStem: 104 280<1106 1380.16> 677 283<1057.16 1405.03>
LayerCount: 2
Fore
SplineSet
93 0 m 1
 93 200 l 1
 498 834 l 2
 583 967 677 1078 677 1245 c 0
 677 1372 634 1446 536 1441 c 0
 420 1436 384 1322 384 1175 c 2
 384 1106 l 1
 104 1106 l 1
 104 1177 l 2
 104 1473 223 1678 535 1678 c 0
 820 1678 960 1516 960 1243 c 0
 960 1030 863 901 761 748 c 1
 420 229 l 1
 917 229 l 1
 917 0 l 1
 93 0 l 1
EndSplineSet
EndChar

StartChar: uni00B2
Encoding: 691 178 435
Width: 896
VWidth: 0
Flags: W
HStem: 618 168<401 757> 1666 173<419.789 559.173>
VStem: 169 204<1423 1613.37> 584 204<1363.35 1649.8>
LayerCount: 2
Fore
SplineSet
161 618 m 1
 161 771 l 1
 454 1229 l 2
 516 1326 584 1402 584 1524 c 0
 584 1616 553 1670 481 1666 c 0
 394 1662 373 1473 373 1423 c 1
 169 1423 l 1
 169 1474 l 2
 169 1689 254 1839 479 1839 c 0
 683 1839 788 1720 788 1522 c 0
 788 1367 717 1274 645 1162 c 2
 401 786 l 1
 757 786 l 1
 757 618 l 1
 161 618 l 1
EndSplineSet
EndChar

StartChar: u
Encoding: 692 117 436
Width: 966
VWidth: 0
Flags: W
HStem: 0 3G<220 348 578 857> 1164 20G<99 378 578 857>
VStem: 99 279<196.428 1184> 578 279<0 111 209.437 1184>
AnchorPoint: "ogonek" 730 0 basechar 0
LayerCount: 2
Fore
SplineSet
293 -18 m 0
 147 -18 99 111 99 238 c 2
 99 1184 l 1
 378 1184 l 1
 378 295 l 2
 378 229 392 186 458 187 c 0
 495 187 537 208 578 237 c 1
 578 1184 l 1
 857 1184 l 1
 857 0 l 1
 578 0 l 1
 578 111 l 1
 496 36 403 -18 293 -18 c 0
EndSplineSet
EndChar

StartChar: underscore
Encoding: 700 95 444
Width: 730
VWidth: 0
Flags: W
HStem: -313 199<0 730>
LayerCount: 2
Fore
SplineSet
0 -313 m 1
 0 -114 l 1
 730 -114 l 1
 730 -313 l 1
 0 -313 l 1
EndSplineSet
EndChar

StartChar: uni00AD
Encoding: 702 173 446
Width: 732
VWidth: 0
Flags: W
HStem: 807 194<124 615>
VStem: 124 491<807 1001>
LayerCount: 2
Fore
SplineSet
124 807 m 1
 124 1001 l 1
 615 1001 l 1
 615 807 l 1
 124 807 l 1
EndSplineSet
EndChar

StartChar: uni0237
Encoding: 743 567 487
Width: 512
VWidth: 0
Flags: W
HStem: -347 213<-30.6561 209.949> 1164 20G<133 412>
VStem: 133 279<-111.379 1184>
AnchorPoint: "circumflexcomb" 215 1188 basechar 0
LayerCount: 2
Fore
SplineSet
-32 -327 m 1
 -32 -127 l 1
 -16 -130 9 -134 27 -134 c 0
 99 -134 133 -91 133 -14 c 2
 133 1184 l 1
 412 1184 l 1
 412 -45 l 2
 412 -231 304 -347 113 -347 c 0
 63 -347 9 -341 -32 -327 c 1
EndSplineSet
EndChar

StartChar: uni0302
Encoding: 745 770 489
Width: 762
VWidth: 0
Flags: W
HStem: 1286 372<257 280 490 511>
VStem: 73 625
AnchorPoint: "circumflexcomb" 328 1225 mark 0
LayerCount: 2
Fore
SplineSet
73 1286 m 1
 257 1658 l 1
 511 1658 l 1
 698 1286 l 1
 490 1286 l 1
 385 1526 l 1
 280 1286 l 1
 73 1286 l 1
EndSplineSet
EndChar

StartChar: uni0304
Encoding: 746 772 490
Width: 491
VWidth: 0
Flags: W
HStem: 1510 148<25 496>
VStem: 25 471<1510 1658>
LayerCount: 2
Fore
SplineSet
25 1510 m 1
 25 1658 l 1
 496 1658 l 1
 496 1510 l 1
 25 1510 l 1
EndSplineSet
EndChar

StartChar: uni0306
Encoding: 747 774 491
Width: 690
VWidth: 0
Flags: W
HStem: 1368 134<218.503 459.959> 1638 20G<46 187 491 633>
VStem: 46 141<1535.29 1658> 491 142<1534.86 1658>
LayerCount: 2
Fore
SplineSet
339 1368 m 0
 130 1368 46 1490 46 1658 c 1
 187 1658 l 1
 187 1547 236 1502 339 1502 c 0
 442 1502 491 1548 491 1658 c 1
 633 1658 l 1
 633 1489 550 1368 339 1368 c 0
EndSplineSet
EndChar

StartChar: uni0307
Encoding: 748 775 492
Width: 166
VWidth: 0
Flags: W
HStem: 1381 277<-31 241>
VStem: -31 272<1381 1658>
LayerCount: 2
Fore
SplineSet
-31 1381 m 1
 -31 1658 l 1
 241 1658 l 1
 241 1381 l 1
 -31 1381 l 1
EndSplineSet
EndChar

StartChar: uni0308
Encoding: 749 776 493
Width: 847
VWidth: 0
Flags: W
HStem: 1392 266<101 352 494 746>
VStem: 101 251<1392 1658> 494 252<1392 1658>
LayerCount: 2
Fore
SplineSet
101 1392 m 1
 101 1658 l 1
 352 1658 l 1
 352 1392 l 1
 101 1392 l 1
494 1392 m 1
 494 1658 l 1
 746 1658 l 1
 746 1392 l 1
 494 1392 l 1
EndSplineSet
EndChar

StartChar: uni030A
Encoding: 750 778 494
Width: 402
VWidth: 0
Flags: W
HStem: 1215 119<106.979 289.16> 1562 118<107.185 289.16>
VStem: -39 126<1354.12 1541.68> 309 128<1354.12 1541.68>
LayerCount: 2
Fore
SplineSet
198 1215 m 0
 59 1215 -39 1303 -39 1448 c 0
 -39 1593 60 1680 198 1680 c 0
 337 1680 437 1593 437 1448 c 0
 437 1303 337 1215 198 1215 c 0
198 1334 m 0
 269 1334 309 1381 309 1448 c 0
 309 1514 269 1562 198 1562 c 0
 127 1562 87 1514 87 1448 c 0
 87 1381 127 1334 198 1334 c 0
EndSplineSet
EndChar

StartChar: uni030C
Encoding: 751 780 495
Width: 278
VWidth: 0
Flags: W
HStem: 1291 367<63 89 312 337>
VStem: -114 631
LayerCount: 2
Fore
SplineSet
63 1291 m 1
 -114 1658 l 1
 89 1658 l 1
 200 1427 l 1
 312 1658 l 1
 517 1658 l 1
 337 1291 l 1
 63 1291 l 1
EndSplineSet
EndChar

StartChar: uni030F
Encoding: 752 783 496
Width: 725
VWidth: 0
Flags: W
HStem: 1290 385<378 400 688 734>
VStem: 34 679
LayerCount: 2
Fore
SplineSet
258 1290 m 1
 34 1675 l 1
 280 1675 l 1
 404 1290 l 1
 258 1290 l 1
568 1290 m 1
 400 1675 l 1
 614 1675 l 1
 713 1290 l 1
 568 1290 l 1
EndSplineSet
EndChar

StartChar: uni0311
Encoding: 753 785 497
Width: 690
VWidth: 0
Flags: W
HStem: 1524 134<235.509 442.073>
VStem: 68 142<1368 1497.14> 468 141<1368 1497.14>
LayerCount: 2
Fore
SplineSet
68 1368 m 1
 68 1536 135 1658 339 1658 c 0
 541 1658 609 1536 609 1368 c 1
 468 1368 l 1
 468 1478 436 1524 339 1524 c 0
 242 1524 210 1477 210 1368 c 1
 68 1368 l 1
EndSplineSet
EndChar

StartChar: uni0326
Encoding: 754 806 498
Width: 353
VWidth: 0
Flags: W
HStem: -596 117<96 151.867> -341 270<38 180>
VStem: 38 270<-338.761 -71> 180 128<-450.141 -341>
LayerCount: 2
Fore
SplineSet
96 -596 m 1xe0
 51 -479 l 1
 132 -474 180 -439 180 -341 c 1xd0
 38 -341 l 1
 38 -71 l 1
 310 -71 l 1
 308 -315 l 2
 307 -487 259 -595 96 -596 c 1xe0
EndSplineSet
EndChar

StartChar: afii10050
Encoding: 759 1168 503
Width: 846
VWidth: 0
Flags: W
HStem: 0 21G<127 429> 1435 223<429 641>
VStem: 127 302<0 1435> 641 181<1658 1906>
LayerCount: 2
Fore
SplineSet
127 0 m 1
 127 1658 l 1
 641 1658 l 1
 640 1906 l 1
 822 1906 l 1
 822 1435 l 1
 429 1435 l 1
 429 0 l 1
 127 0 l 1
EndSplineSet
EndChar

StartChar: uni04AE
Encoding: 760 -1 504
Width: 999
VWidth: 0
Flags: W
HStem: 0 21G<356 645> 1638 20G<19 306.494 695.834 981>
VStem: 356 289<0 721>
LayerCount: 2
Fore
SplineSet
356 0 m 1
 356 721 l 1
 19 1658 l 1
 300 1658 l 1
 425 1273 l 1
 505 1019 l 1
 583 1272 l 1
 702 1658 l 1
 981 1658 l 1
 645 721 l 1
 645 0 l 1
 356 0 l 1
EndSplineSet
EndChar

StartChar: uni04AF
Encoding: 761 1199 505
Width: 849
VWidth: 0
Flags: W
HStem: -358 21G<306 553> 1164 20G<13 284.428 565.064 836>
VStem: 306 247<-358 167.304>
LayerCount: 2
Fore
SplineSet
306 -358 m 1
 306 115 l 1
 13 1184 l 1
 280 1184 l 1
 433 493 l 1
 569 1184 l 1
 836 1184 l 1
 553 121 l 1
 553 -358 l 1
 306 -358 l 1
EndSplineSet
EndChar

StartChar: uni04B0
Encoding: 762 1200 506
Width: 1009
VWidth: 0
Flags: W
HStem: 0 21G<362 651> 598 195<80 336.105 676.819 942> 1638 20G<25 312.494 701.834 987>
VStem: 362 289<0 598>
LayerCount: 2
Fore
SplineSet
80 598 m 1
 80 793 l 1
 336.104589114 793 l 1
 25 1658 l 1
 306 1658 l 1
 431 1273 l 1
 511 1019 l 1
 589 1272 l 1
 708 1658 l 1
 987 1658 l 1
 676.818569904 793 l 1
 942 793 l 1
 942 598 l 1
 651 598 l 1
 651 0 l 1
 362 0 l 1
 362 598 l 1
 80 598 l 1
EndSplineSet
EndChar

StartChar: uni04B1
Encoding: 763 1201 507
Width: 857
VWidth: 0
Flags: W
HStem: -358 21G<306 553> -22 173<81 296.133 560.987 772> 1164 20G<13 284.428 565.064 836>
VStem: 306 247<-358 -22>
LayerCount: 2
Fore
SplineSet
81 -22 m 1
 81 151 l 1
 296.132834425 151 l 1
 13 1184 l 1
 280 1184 l 1
 433 493 l 1
 569 1184 l 1
 836 1184 l 1
 560.986829727 151 l 1
 772 151 l 1
 772 -22 l 1
 553 -22 l 1
 553 -358 l 1
 306 -358 l 1
 306 -22 l 1
 81 -22 l 1
EndSplineSet
EndChar

StartChar: uni04E8
Encoding: 764 1256 508
Width: 1150
VWidth: 0
Flags: W
HStem: -20 224<453.757 695.736> 748 195<404 746> 1454 223<452.185 697.31>
VStem: 97 307<260.502 748 943 1402.45> 746 307<261.382 748 943 1401.13>
LayerCount: 2
Fore
SplineSet
575 -20 m 0
 220 -20 97 186 97 526 c 2
 97 1138 l 2
 97 1479 220 1677 575 1677 c 0
 928 1677 1053 1476 1053 1138 c 2
 1053 526 l 2
 1053 188 928 -20 575 -20 c 0
575 204 m 0
 724 204 746 313 746 455 c 2
 746 748 l 1
 404 748 l 1
 404 455 l 2
 404 313 425 204 575 204 c 0
404 943 m 1
 746 943 l 1
 746 1208 l 2
 746 1351 724 1454 575 1454 c 0
 425 1454 404 1351 404 1208 c 2
 404 943 l 1
EndSplineSet
EndChar

StartChar: uni04E9
Encoding: 765 1257 509
Width: 929
VWidth: 0
Flags: W
HStem: -19 197<389.019 543.469> 532 153<362 566> 1006 196<389.019 543.469>
VStem: 85 277<202.654 532 685 980.346> 566 278<202.654 532 685 980.346>
LayerCount: 2
Fore
SplineSet
463 -19 m 0
 202 -19 85 136 85 396 c 2
 85 787 l 2
 85 1047 202 1202 463 1202 c 0
 724 1202 844 1047 844 787 c 2
 844 396 l 2
 844 136 724 -19 463 -19 c 0
464 178 m 0
 559 178 566 272 566 377 c 2
 566 532 l 1
 362 532 l 1
 362 377 l 2
 362 273 369 178 464 178 c 0
362 685 m 1
 566 685 l 1
 566 806 l 2
 566 911 559 1006 464 1006 c 0
 369 1006 362 910 362 806 c 2
 362 685 l 1
EndSplineSet
EndChar

StartChar: uni2074
Encoding: 780 8308 524
Width: 806
VWidth: 0
Flags: W
HStem: 811 135<222 406 636 759> 1638 20G<406.112 636>
VStem: 406 230<516 811 946 1337>
LayerCount: 2
Fore
SplineSet
406 516 m 1
 406 811 l 1
 63 811 l 1
 63 944 l 1
 416 1658 l 1
 636 1658 l 1
 636 946 l 1
 759 946 l 1
 759 811 l 1
 636 811 l 1
 636 516 l 1
 406 516 l 1
222 946 m 1
 406 946 l 1
 406 1337 l 1
 222 946 l 1
EndSplineSet
EndChar

StartChar: uni2215
Encoding: 781 8725 525
Width: 811
VWidth: 0
Flags: W
HStem: 0 21G<73 273.657> 1638 20G<536.343 737>
VStem: 73 664
LayerCount: 2
Fore
SplineSet
73 0 m 1
 542 1658 l 1
 737 1658 l 1
 268 0 l 1
 73 0 l 1
EndSplineSet
EndChar

StartChar: uni2219
Encoding: 782 8729 526
Width: 400
VWidth: 0
Flags: W
HStem: 636 269<65 336>
VStem: 65 271<636 905>
LayerCount: 2
Fore
SplineSet
65 636 m 1
 65 905 l 1
 336 905 l 1
 336 636 l 1
 65 636 l 1
EndSplineSet
EndChar

StartChar: uniFB01
Encoding: 784 64257 528
Width: 1072
VWidth: 0
Flags: W
HStem: 0 21G<163 442 681 959> 985 199<35 163 442 681> 1371 236<703 960> 1402 204<454.057 597>
VStem: 163 279<0 985 1184 1392.54> 681 278<0 985> 703 257<1371 1607>
LayerCount: 2
Fore
SplineSet
163 0 m 1xdc
 163 985 l 1
 35 985 l 1
 35 1184 l 1
 163 1184 l 1
 163 1247 l 2
 163 1479 233 1606 466 1606 c 0
 505 1606 549 1603 597 1596 c 1
 597 1396 l 1
 573 1400 552 1402 534 1402 c 0
 465 1402 442 1369 442 1277 c 2
 442 1184 l 1
 959 1184 l 1
 959 0 l 1
 681 0 l 1
 681 985 l 1
 442 985 l 1
 442 0 l 1
 163 0 l 1xdc
703 1371 m 1xea
 703 1607 l 1
 960 1607 l 1
 960 1371 l 1
 703 1371 l 1xea
EndSplineSet
EndChar

StartChar: uniFB02
Encoding: 785 64258 529
Width: 1102
VWidth: 0
Flags: W
HStem: 0 21G<160 439 717 997> 981 203<32 160 439 594> 1449 197<476.154 713.723>
VStem: 160 279<0 981 1184 1410.87> 717 280<0 1446.68>
LayerCount: 2
Fore
SplineSet
439 981 m 1
 439 0 l 1
 160 0 l 1
 160 981 l 1
 32 981 l 1
 32 1184 l 1
 160 1184 l 1
 160 1247 l 2
 160 1427 175 1646 585 1646 c 0
 693 1646 828 1631 997 1596 c 1
 997 0 l 1
 717 0 l 1
 717 1442 l 1
 679 1447 646 1449 618 1449 c 0
 443 1449 439 1365 439 1249 c 2
 439 1184 l 1
 594 1184 l 1
 594 981 l 1
 439 981 l 1
EndSplineSet
EndChar

StartChar: uniFB03
Encoding: 786 64259 530
Width: 1578
VWidth: 0
Flags: W
HStem: 0 21G<160 439 675 954 1190 1469> 986 198<32 160 439 675 954 1190> 1371 236<1202 1470> 1397 210<323.123 595 838.969 1112>
VStem: 160 279<0 986 1184 1388.14> 675 279<0 986 1184 1388.14> 1190 279<0 986 1371 1607>
CounterMasks: 1 0e
LayerCount: 2
Fore
SplineSet
1202 1371 m 1xee
 1202 1607 l 1
 1470 1607 l 1
 1470 1371 l 1
 1202 1371 l 1xee
160 0 m 1
 160 986 l 1
 32 986 l 1
 32 1184 l 1
 160 1184 l 1
 160 1247 l 2
 160 1468 196 1607 452 1607 c 0
 507 1607 534 1603 595 1596 c 1
 595 1388 l 1
 573 1390 544 1397 523 1397 c 0
 455 1397 439 1350 439 1275 c 2
 439 1184 l 1
 675 1184 l 1
 675 1247 l 2
 675 1468 712 1607 967 1607 c 0
 1022 1607 1052 1603 1112 1596 c 1
 1112 1388 l 1
 1090 1390 1061 1397 1039 1397 c 0xde
 972 1397 954 1350 954 1275 c 2
 954 1184 l 1
 1469 1184 l 1
 1469 0 l 1
 1190 0 l 1
 1190 986 l 1
 954 986 l 1
 954 0 l 1
 675 0 l 1
 675 986 l 1
 439 986 l 1
 439 0 l 1
 160 0 l 1
EndSplineSet
EndChar

StartChar: v
Encoding: 791 118 535
Width: 826
VWidth: 0
Flags: W
HStem: 0 21G<253.098 577.868> 1164 20G<26 302.724 530.299 803>
LayerCount: 2
Fore
SplineSet
257 0 m 1
 26 1184 l 1
 300 1184 l 1
 417 325 l 1
 533 1184 l 1
 803 1184 l 1
 574 0 l 1
 257 0 l 1
EndSplineSet
EndChar

StartChar: w
Encoding: 792 119 536
Width: 1217
VWidth: 0
Flags: W
HStem: 0 21G<229.926 478.671 737.491 981.176> 1164 20G<51 284.66 506.714 718.083 941.15 1166>
VStem: 510 205<1096.73 1184>
LayerCount: 2
Fore
SplineSet
233 0 m 1
 51 1184 l 1
 282 1184 l 1
 384 417 l 1
 510 1184 l 1
 715 1184 l 1
 834 412 l 1
 944 1184 l 1
 1166 1184 l 1
 978 0 l 1
 741 0 l 1
 611 741 l 1
 475 0 l 1
 233 0 l 1
EndSplineSet
EndChar

StartChar: x
Encoding: 797 120 541
Width: 846
VWidth: 0
Flags: W
HStem: 0 21G<18 272.486 553.838 838> 1164 20G<25 308.113 569.11 820>
LayerCount: 2
Fore
SplineSet
18 0 m 1
 275 634 l 1
 25 1184 l 1
 299 1184 l 1
 448 857 l 1
 577 1184 l 1
 820 1184 l 1
 567 596 l 1
 838 0 l 1
 563 0 l 1
 399 358 l 1
 265 0 l 1
 18 0 l 1
EndSplineSet
EndChar

StartChar: y
Encoding: 798 121 542
Width: 855
VWidth: 0
Flags: W
HStem: -317 202<113 293.578> 1164 20G<13 290.779 559.684 836>
LayerCount: 2
Fore
SplineSet
113 -317 m 1
 113 -115 l 1
 277 -115 327 -96 308 13 c 0
 299 60 280 138 267 187 c 1
 214 413 67 958 13 1184 c 1
 287 1184 l 1
 434 406 l 1
 563 1184 l 1
 836 1184 l 1
 555 -62 l 2
 511 -259 358 -318 147 -317 c 1
 113 -317 l 1
EndSplineSet
EndChar

StartChar: yen
Encoding: 802 165 546
Width: 959
VWidth: 0
Flags: W
HStem: 0 21G<351 639> 240 160<177 351 639 813> 527 161<177 319 671 813> 1638 20G<13 300.791 690.463 975>
VStem: 351 288<0 240 400 527>
CounterMasks: 1 70
LayerCount: 2
Fore
SplineSet
351 0 m 1
 351 240 l 1
 177 240 l 1
 177 400 l 1
 351 400 l 1
 351 527 l 1
 177 527 l 1
 177 688 l 1
 319 688 l 1
 13 1658 l 1
 295 1658 l 1
 500 950 l 1
 696 1658 l 1
 975 1658 l 1
 671 688 l 1
 813 688 l 1
 813 527 l 1
 639 527 l 1
 639 400 l 1
 813 400 l 1
 813 240 l 1
 639 240 l 1
 639 0 l 1
 351 0 l 1
EndSplineSet
EndChar

StartChar: z
Encoding: 804 122 548
Width: 754
VWidth: 0
Flags: W
HStem: 0 208<363 701> 977 207<99 409>
VStem: 68 636
LayerCount: 2
Fore
SplineSet
68 0 m 1
 68 184 l 1
 409 977 l 1
 99 977 l 1
 99 1184 l 1
 704 1184 l 1
 704 1023 l 1
 363 208 l 1
 701 208 l 1
 701 0 l 1
 68 0 l 1
EndSplineSet
EndChar

StartChar: zero
Encoding: 808 48 552
Width: 1044
VWidth: 0
Flags: W
HStem: -23 244<431.937 614.377> 1434 244<428.637 616.881>
VStem: 92 287<276.649 1388.93> 667 287<276.649 1388.93>
LayerCount: 2
Fore
SplineSet
523 221 m 0
 646 221 667 357 667 465 c 2
 667 1185 l 2
 667 1299 652 1434 523 1434 c 0
 393 1434 379 1299 379 1185 c 2
 379 465 l 2
 379 357 402 221 523 221 c 0
523 -23 m 0
 236 -23 92 177 92 461 c 2
 92 1190 l 2
 92 1481 226 1678 523 1678 c 0
 818 1678 954 1481 954 1190 c 2
 954 461 l 2
 954 177 809 -23 523 -23 c 0
EndSplineSet
EndChar

StartChar: afii00208
Encoding: 809 8213 553
Width: 4096
VWidth: 0
Flags: W
HStem: 556 194<115 3982>
LayerCount: 2
Fore
SplineSet
115 556 m 1
 115 750 l 1
 3982 750 l 1
 3982 556 l 1
 115 556 l 1
EndSplineSet
EndChar

